<svg width="20" height="24" viewBox="0 0 20 24" fill="none" xmlns="http://www.w3.org/2000/svg">
<path d="M16.5764 13.4535C15.9162 10.1309 19.0698 8.18233 19.0698 8.18233C19.0698 8.18233 17.8411 6.40469 15.7761 5.94737C13.7121 5.48905 12.6792 6.06168 11.6482 6.49115C10.6162 6.92168 10.1012 6.92168 10.1012 6.92168C8.61199 6.92168 7.52332 5.34486 4.68591 6.06273C2.73113 6.55604 0.67331 8.81262 0.30151 11.5059C-0.0702901 14.2002 0.732038 17.638 2.27897 20.3025C3.8259 22.969 5.40172 23.9711 6.52018 23.9999C7.63868 24.0277 8.75513 23.1986 10.1012 22.9968C11.4484 22.7969 12.2775 23.485 13.5988 23.8568C14.9151 24.2276 15.3765 23.8835 16.8925 22.5941C18.4127 21.3046 19.7887 17.6062 19.7887 17.6062C19.7887 17.6062 17.2365 16.778 16.5764 13.4535Z" fill="#272B3B"/>
<path d="M13.6533 3.79731C15.1157 2.30705 14.6204 0 14.6204 0C14.6204 0 12.5667 0.360484 11.1907 1.79206C9.81577 3.22469 10.0434 5.48743 10.0434 5.48743C10.0434 5.48743 12.1908 5.28661 13.6533 3.79731Z" fill="#272B3B"/>
</svg>
