<svg width="22" height="24" viewBox="0 0 22 24" fill="none" xmlns="http://www.w3.org/2000/svg">
<path fill-rule="evenodd" clip-rule="evenodd" d="M12.4322 2.0745C14.1455 0.00979094 16.5271 0 16.5271 0C16.5271 0 16.8813 1.94095 15.1795 3.81102C13.3621 5.80759 11.2967 5.48097 11.2967 5.48097C11.2967 5.48097 10.9091 3.91011 12.4322 2.0745Z" fill="white"/>
<path fill-rule="evenodd" clip-rule="evenodd" d="M11.5148 6.83997C12.3963 6.83997 14.0317 5.73242 16.1609 5.73242C19.8257 5.73242 21.2674 8.11671 21.2674 8.11671C21.2674 8.11671 18.4477 9.43496 18.4477 12.6335C18.4477 16.2416 21.9605 17.4851 21.9605 17.4851C21.9605 17.4851 19.5049 23.8045 16.1883 23.8045C14.6647 23.8045 13.4808 22.8658 11.8755 22.8658C10.2397 22.8658 8.61674 23.8394 7.55963 23.8394C4.53091 23.8394 0.704651 17.845 0.704651 13.0263C0.704651 8.28551 3.94324 5.79861 6.98095 5.79861C8.95555 5.79861 10.4881 6.83997 11.5148 6.83997Z" fill="white"/>
</svg>
