<svg width="22" height="23" viewBox="0 0 22 23" fill="none" xmlns="http://www.w3.org/2000/svg">
<path d="M14.0105 0.660157C14.2173 0.556789 14.4566 0.539747 14.6759 0.612779C14.8952 0.68581 15.0766 0.842937 15.1801 1.04962L17.7389 6.16729C19.3119 6.2882 20.2989 6.59744 20.936 7.38451C21.4429 8.01114 21.6056 8.79007 21.5464 9.86778H0.278149C0.218858 8.79007 0.382782 8.01114 0.888503 7.38451C1.5256 6.59628 2.51262 6.2882 4.08559 6.16729L6.64443 1.04962C6.7488 0.844577 6.92998 0.689095 7.14848 0.617057C7.36699 0.545019 7.60512 0.562265 7.81096 0.665036C8.01681 0.767806 8.1737 0.947772 8.24743 1.16571C8.32117 1.38366 8.30577 1.62191 8.20461 1.82855L6.07128 6.09521C6.6328 6.0894 7.24548 6.0894 7.91513 6.0894H13.9094C14.579 6.0894 15.1917 6.0894 15.7532 6.09521L13.6199 1.82855C13.5166 1.62165 13.4997 1.38221 13.573 1.16287C13.6463 0.943541 13.8036 0.763454 14.0105 0.660157Z" fill="url(#paint0_linear_202_3382)"/>
<path fill-rule="evenodd" clip-rule="evenodd" d="M1.09438 14.5263C0.879924 13.5582 0.682256 12.5866 0.501465 11.6117H21.3232C21.1423 12.5865 20.9446 13.5582 20.7303 14.5263L20.2316 16.8514C19.6654 19.494 19.3829 20.8147 18.4238 21.5901C17.4646 22.3655 16.1137 22.3655 13.4119 22.3655H8.41281C5.71098 22.3655 4.36006 22.3655 3.4021 21.5901C2.44181 20.8147 2.15814 19.494 1.59313 16.8514L1.09438 14.5263ZM8.5872 13.3556C8.35594 13.3556 8.13416 13.4474 7.97065 13.6109C7.80713 13.7745 7.71526 13.9962 7.71526 14.2275C7.71526 14.4587 7.80713 14.6805 7.97065 14.844C8.13416 15.0076 8.35594 15.0994 8.5872 15.0994H13.2375C13.4688 15.0994 13.6905 15.0076 13.8541 14.844C14.0176 14.6805 14.1094 14.4587 14.1094 14.2275C14.1094 13.9962 14.0176 13.7745 13.8541 13.6109C13.6905 13.4474 13.4688 13.3556 13.2375 13.3556H8.5872Z" fill="url(#paint1_linear_202_3382)"/>
<defs>
<linearGradient id="paint0_linear_202_3382" x1="0.883742" y1="1.98328" x2="21.2094" y2="6.74672" gradientUnits="userSpaceOnUse">
<stop stop-color="#30A94A"/>
<stop offset="1" stop-color="#238832"/>
</linearGradient>
<linearGradient id="paint1_linear_202_3382" x1="1.10499" y1="13.2481" x2="21.2815" y2="17.247" gradientUnits="userSpaceOnUse">
<stop stop-color="#30A94A"/>
<stop offset="1" stop-color="#238832"/>
</linearGradient>
</defs>
</svg>
