<svg width="13" height="13" viewBox="0 0 13 13" fill="none" xmlns="http://www.w3.org/2000/svg">
<path d="M2.79955 4.06456H8.39844C8.53912 4.06456 8.65295 3.94038 8.65295 3.78692C8.65295 3.63346 8.53912 3.50928 8.39844 3.50928H2.79955C2.65887 3.50928 2.54504 3.63346 2.54504 3.78692C2.54507 3.9404 2.6589 4.06456 2.79955 4.06456Z" fill="#FDFDFD"/>
<path d="M5.85349 6.84082H2.79955C2.65887 6.84082 2.54504 6.965 2.54504 7.11846C2.54504 7.27192 2.65887 7.3961 2.79955 7.3961H5.85349C5.99416 7.3961 6.10799 7.27192 6.10799 7.11846C6.10799 6.965 5.99416 6.84082 5.85349 6.84082Z" fill="#FDFDFD"/>
<path d="M11.2415 1.84344C11.2268 1.84344 11.2125 1.84747 11.1978 1.84823V1.84344C11.1978 1.23098 10.741 0.73291 10.1798 0.73291H1.01799C0.456803 0.73291 0 1.23098 0 1.84344V12.671C0 12.7833 0.0621286 12.8847 0.157063 12.9275C0.18839 12.9419 0.221673 12.9487 0.254479 12.9487C0.320592 12.9487 0.385703 12.9205 0.434423 12.8673L2.90482 10.1724H10.1798C10.741 10.1724 11.1978 9.67431 11.1978 9.06182V4.45692L11.9305 3.65779C11.9305 3.65779 11.9305 3.65779 11.9305 3.65753C12.1119 3.45961 12.2158 3.18578 12.2158 2.90624C12.2158 2.32009 11.7789 1.84344 11.2415 1.84344ZM10.6888 9.06182C10.6888 9.36791 10.4606 9.61708 10.1798 9.61708H2.79944C2.73184 9.61708 2.66721 9.64636 2.61949 9.69841L0.508982 12.0008V1.84344C0.508982 1.53735 0.737145 1.28819 1.01796 1.28819H10.1798C10.4606 1.28819 10.6888 1.53735 10.6888 1.84344V2.03308C10.6405 2.06931 10.5943 2.10916 10.5526 2.15468L7.78354 5.17501H2.79944C2.65876 5.17501 2.54493 5.29919 2.54493 5.45265C2.54493 5.60611 2.65876 5.73028 2.79944 5.73028H7.37522L7.13083 7.06395C7.11394 7.15505 7.14028 7.24914 7.20043 7.31473C7.24864 7.36733 7.31376 7.39607 7.38037 7.39607C7.39678 7.39607 7.41368 7.39417 7.43007 7.39065L8.70206 7.11301C8.75176 7.10216 8.79699 7.07587 8.83228 7.03709L10.6888 5.01212V9.06182ZM8.52708 6.58512L7.70495 6.76461L7.86948 5.86664L10.1797 3.34642L10.8379 4.06445L8.52708 6.58512ZM11.5706 3.26521L11.1978 3.6719L10.5395 2.95382L10.9124 2.547C10.9989 2.45291 11.1187 2.39869 11.2415 2.39869C11.498 2.39869 11.7068 2.62644 11.7068 2.90624C11.7068 3.03963 11.6571 3.1706 11.5706 3.26521Z" fill="#FDFDFD"/>
</svg>
