<svg width="5" height="9" viewBox="0 0 5 9" fill="none" xmlns="http://www.w3.org/2000/svg">
<path d="M2.22775 2.67587C2.71584 2.54913 3.15623 2.43449 3.59698 2.32021C3.78068 2.2725 3.96438 2.22515 4.14809 2.17674C4.26486 2.14612 4.37238 2.14932 4.45426 2.25363C4.53436 2.35581 4.51692 2.45656 4.4653 2.56906C3.58879 4.46947 2.71477 6.37165 1.8404 8.27312C1.82296 8.31086 1.80729 8.34967 1.78593 8.38491C1.70191 8.52554 1.53672 8.6035 1.42778 8.54476C1.28787 8.46929 1.33344 8.3372 1.35978 8.22755C1.57411 7.34642 1.79483 6.46671 2.01307 5.58628C2.11596 5.17188 2.21351 4.75606 2.3228 4.34344C2.36018 4.20174 2.32957 4.17718 2.19215 4.21278C1.60081 4.36587 1.0084 4.51361 0.415279 4.65922C0.0649614 4.74502 -0.0592875 4.62113 0.0257999 4.26974C0.350485 2.93362 0.67695 1.5975 1.00413 0.261735C1.05575 0.0513303 1.12054 0.00148826 1.3402 0.000776232C1.85642 -0.000647825 2.37265 6.42035e-05 2.88887 0.00148826C3.163 0.00220029 3.24986 0.135706 3.1452 0.393816C2.86928 1.07523 2.59302 1.75628 2.31746 2.43769C2.29112 2.50213 2.26833 2.56799 2.22775 2.67587Z" fill="url(#paint0_linear_202_3388)"/>
<defs>
<linearGradient id="paint0_linear_202_3388" x1="0.130702" y1="1.30329" x2="4.65866" y2="1.54732" gradientUnits="userSpaceOnUse">
<stop stop-color="#30A94A"/>
<stop offset="1" stop-color="#238832"/>
</linearGradient>
</defs>
</svg>
