<svg width="8" height="10" viewBox="0 0 8 10" fill="none" xmlns="http://www.w3.org/2000/svg">
<path d="M1.08651 3.10915C1.1143 3.93843 1.16361 4.72289 1.89518 5.27067C1.61994 2.35427 2.23406 0.76115 3.92939 0C3.51071 1.30624 4.25214 2.07814 5.19259 2.72813C6.05505 3.32431 6.71848 4.04871 6.99551 5.08509C7.65624 7.5586 5.86947 9.83846 3.33768 9.74702C1.67015 9.68695 0.189986 8.26327 0.0330942 6.60111C-0.0691096 5.51721 0.044749 4.4889 0.667834 3.56279C0.770934 3.40948 0.863276 3.23914 1.08651 3.10915ZM2.61688 8.55464C3.40223 9.22793 4.84474 8.93118 5.56465 8.17989C6.35449 7.35688 6.51497 5.97803 5.89906 5.25812C5.68299 7.33447 4.79364 8.22741 2.61688 8.55464Z" fill="url(#paint0_linear_202_3387)"/>
<defs>
<linearGradient id="paint0_linear_202_3387" x1="0.206777" y1="1.48365" x2="7.35097" y2="2.01873" gradientUnits="userSpaceOnUse">
<stop stop-color="#30A94A"/>
<stop offset="1" stop-color="#238832"/>
</linearGradient>
</defs>
</svg>
