<svg width="325" height="335" viewBox="0 0 325 335" fill="none" xmlns="http://www.w3.org/2000/svg">
<path opacity="0.1" d="M317.301 192.849C308.056 220.934 288.135 251.725 258.81 261.746C214.512 276.898 210.537 313.307 130.158 313.06C118.42 313.076 106.715 311.817 95.2483 309.303C89.6421 308.054 84.1211 306.448 78.7187 304.495C31.0899 287.276 5.01401 246.326 1.27909 202.568C-3.62085 145.01 35.4553 115.977 60.9007 98.8543C86.3462 81.7313 115.403 18.1845 194.446 17.8067C206.513 17.6983 218.551 18.9867 230.322 21.6462C257.159 27.8278 284.777 42.7117 301.368 65.3981C302.608 67.1015 303.801 68.8323 304.952 70.6319C327.355 105.544 329.911 154.55 317.301 192.849Z" fill="url(#paint0_linear_22_1116)"/>
<path d="M39.3477 194.106C39.3583 194.093 39.3641 194.077 39.3641 194.061C39.3641 194.045 39.3583 194.029 39.3477 194.016C39.3321 194.011 39.3153 194.012 39.3002 194.018C39.2851 194.025 39.2728 194.036 39.2654 194.051C37.3464 198.654 35.8308 203.416 34.7355 208.282C33.6157 213.149 32.7692 218.074 32.1999 223.036L31.8504 226.765C31.7956 227.39 31.727 228.008 31.6791 228.633L31.5831 230.502C31.5283 231.752 31.4529 232.995 31.4118 234.245L31.4461 237.988L31.4872 239.863C31.5215 240.488 31.5626 241.113 31.6037 241.731C31.6996 242.981 31.775 244.225 31.8915 245.468C32.1245 247.947 32.5014 250.42 32.8852 252.879C32.8852 252.887 32.8868 252.894 32.8899 252.902C32.8931 252.909 32.8978 252.915 32.9036 252.92C32.9095 252.926 32.9163 252.929 32.9238 252.932C32.9313 252.934 32.9391 252.935 32.9469 252.934C32.9639 252.934 32.9804 252.928 32.9931 252.916C33.0058 252.905 33.0137 252.889 33.0154 252.872C33.0154 251.622 32.9537 250.379 32.9263 249.142C32.8989 247.906 32.7824 246.663 32.803 245.42C32.8235 244.177 32.803 242.94 32.7619 241.704L32.7276 239.843V237.988V234.272L32.8304 230.563L32.8647 228.709C32.8647 228.091 32.9332 227.473 32.9675 226.854L33.1936 223.145C33.6186 218.206 34.3187 213.294 35.2906 208.433C36.2278 203.549 37.5853 198.755 39.3477 194.106Z" fill="black"/>
<path d="M39.8961 213.523C39.8993 213.506 39.8969 213.489 39.8895 213.474C39.8821 213.46 39.8699 213.448 39.855 213.44C39.8469 213.437 39.8382 213.436 39.8296 213.436C39.8209 213.436 39.8124 213.439 39.8047 213.442C39.7969 213.446 39.79 213.452 39.7845 213.459C39.779 213.465 39.775 213.473 39.7727 213.481C37.6533 219.672 36.2462 226.086 35.5786 232.596C35.2497 235.845 34.8933 239.101 34.8385 242.363C34.7599 245.632 34.8766 248.903 35.188 252.158C35.1892 252.173 35.1952 252.187 35.2051 252.198C35.215 252.209 35.2283 252.217 35.2429 252.219C35.2519 252.22 35.261 252.22 35.2696 252.217C35.2783 252.214 35.2864 252.21 35.2934 252.204C35.3004 252.199 35.3062 252.191 35.3105 252.183C35.3147 252.175 35.3174 252.167 35.3182 252.158C35.6952 248.909 35.9213 245.66 36.1475 242.418C36.3736 239.176 36.4079 235.928 36.6203 232.686C36.8178 229.45 37.1976 226.228 37.7579 223.035C38.2956 219.828 39.0094 216.652 39.8961 213.523Z" fill="black"/>
<path d="M50.621 220.35C50.6082 220.337 50.591 220.33 50.5731 220.33C50.5551 220.33 50.5379 220.337 50.5251 220.35C47.8326 222.069 45.406 224.175 43.3225 226.6C42.277 227.823 41.337 229.133 40.5128 230.515L39.9371 231.607L39.4848 232.74C39.333 233.116 39.2003 233.498 39.0873 233.887C38.9708 234.272 38.8475 234.663 38.7378 235.048C37.9188 238.152 37.4228 241.333 37.2576 244.54C37.095 247.731 37.2142 250.931 37.6139 254.101C37.6151 254.116 37.6211 254.13 37.631 254.141C37.6409 254.152 37.6541 254.16 37.6687 254.163C37.6866 254.163 37.7039 254.157 37.7177 254.146C37.7315 254.135 37.7409 254.119 37.7441 254.101L38.5596 244.636C38.7858 241.505 39.1862 238.389 39.7589 235.302C39.8412 234.924 39.9508 234.547 40.0467 234.176C40.1346 233.796 40.2444 233.423 40.3757 233.056L40.7869 231.964L41.2803 230.934C42.0249 229.557 42.8871 228.247 43.857 227.019C45.7692 224.507 48.0389 222.29 50.5936 220.439C50.6075 220.429 50.6178 220.415 50.6227 220.399C50.6277 220.383 50.6271 220.365 50.621 220.35Z" fill="black"/>
<path d="M45.4196 232.507C44.0255 233.53 42.905 234.882 42.1575 236.443C41.3691 237.971 40.7553 239.584 40.3277 241.251C40.1995 241.662 40.092 242.079 40.0056 242.501L39.711 243.758C39.5546 244.602 39.4493 245.455 39.3957 246.313C39.3957 247.171 39.3546 248.03 39.3957 248.881C39.4561 249.739 39.5682 250.592 39.7315 251.436C39.7348 251.45 39.7417 251.462 39.7513 251.471C39.761 251.481 39.7731 251.488 39.7863 251.491C39.795 251.493 39.8039 251.493 39.8126 251.492C39.8212 251.49 39.8294 251.486 39.8365 251.481C39.8437 251.476 39.8496 251.469 39.854 251.462C39.8583 251.454 39.861 251.445 39.8617 251.436C40.0588 250.608 40.2098 249.768 40.314 248.923C40.4442 248.091 40.5744 247.26 40.6772 246.436C40.78 245.612 40.9034 244.788 40.9719 243.957C41.0405 243.126 41.1432 242.295 41.3283 241.484C41.6051 239.846 42.0649 238.245 42.6989 236.71C43.2722 235.138 44.212 233.725 45.4401 232.589C45.446 232.584 45.4506 232.578 45.4538 232.571C45.457 232.564 45.4587 232.556 45.4587 232.548C45.4587 232.54 45.457 232.533 45.4538 232.526C45.4506 232.518 45.446 232.512 45.4401 232.507C45.4333 232.506 45.4264 232.506 45.4196 232.507Z" fill="black"/>
<path d="M30.3635 241.986C30.0071 237.789 29.315 233.627 28.6639 229.471C28.0129 225.316 27.2933 221.167 26.5258 217.026C25.7582 212.884 24.9222 208.784 24.0313 204.662C24.0268 204.649 24.018 204.637 24.0064 204.628C23.9947 204.62 23.9806 204.615 23.9662 204.615C23.9517 204.615 23.9377 204.62 23.926 204.628C23.9143 204.637 23.9056 204.649 23.9011 204.662C24.6206 208.784 25.2717 212.96 25.8816 217.115C26.4915 221.27 27.1014 225.433 27.6291 229.595C28.1568 233.757 28.5406 237.947 29.0614 242.102L30.5965 254.63C30.5965 254.647 30.603 254.662 30.6146 254.674C30.6261 254.686 30.6418 254.692 30.6582 254.692C30.6748 254.691 30.6906 254.684 30.703 254.673C30.7154 254.662 30.7237 254.647 30.7267 254.63C30.7747 253.573 30.7747 252.522 30.8021 251.464C30.8295 250.406 30.7541 249.355 30.7404 248.305C30.6993 246.189 30.5211 244.094 30.3635 241.986Z" fill="black"/>
<path d="M27.8484 241.931C27.6222 240.262 27.3207 238.606 26.9986 236.958L26.4161 234.506C26.2174 233.689 26.0392 232.871 25.7993 232.061C24.9638 228.802 23.8918 225.609 22.5921 222.507L22.0781 221.353L21.5162 220.219C21.1667 219.457 20.7349 218.736 20.3237 218.001C19.505 216.527 18.4881 215.173 17.3015 213.976C17.2958 213.97 17.2889 213.965 17.2812 213.962C17.2735 213.959 17.2653 213.957 17.257 213.957C17.2487 213.957 17.2404 213.959 17.2328 213.962C17.2251 213.965 17.2182 213.97 17.2124 213.976C17.2064 213.982 17.2016 213.989 17.1984 213.996C17.1951 214.004 17.1934 214.012 17.1934 214.021C17.1934 214.029 17.1951 214.037 17.1984 214.045C17.2016 214.053 17.2064 214.06 17.2124 214.065C18.3089 215.308 19.2312 216.694 19.9537 218.186C20.3237 218.928 20.7075 219.663 21.0159 220.439L21.5093 221.579L21.9479 222.747C23.1073 225.862 24.0395 229.058 24.7371 232.308C25.1209 233.922 25.3744 235.57 25.6897 237.198L26.0803 239.664C26.2242 240.481 26.3955 241.292 26.512 242.116C26.7725 243.758 27.074 245.399 27.3618 247.041C27.6497 248.682 27.9169 250.338 28.2596 251.979C28.2628 251.995 28.2714 252.009 28.2839 252.019C28.2964 252.029 28.3121 252.034 28.3281 252.034C28.3445 252.034 28.3602 252.028 28.3717 252.016C28.3833 252.004 28.3898 251.989 28.3898 251.972C28.3898 250.292 28.351 248.614 28.2733 246.938C28.2459 245.269 28.0197 243.6 27.8484 241.931Z" fill="black"/>
<path d="M24.3807 242.144C23.5994 239.939 22.7017 237.782 21.7217 235.667C20.7341 233.554 19.6196 231.503 18.3842 229.526C18.3713 229.517 18.3557 229.512 18.3397 229.512C18.3237 229.512 18.3081 229.517 18.2951 229.526C18.2845 229.539 18.2787 229.554 18.2787 229.571C18.2787 229.587 18.2845 229.603 18.2951 229.615C19.3705 231.668 20.3225 233.782 21.146 235.948C21.9958 238.091 22.7633 240.275 23.4007 242.487C24.038 244.699 24.5314 246.958 25.1139 249.184C25.6964 251.409 26.231 253.648 26.9163 255.894C26.9205 255.907 26.9286 255.919 26.9396 255.928C26.9506 255.936 26.964 255.941 26.978 255.942C26.995 255.942 27.0115 255.936 27.0242 255.925C27.0368 255.913 27.0448 255.897 27.0465 255.88C27.0734 253.533 26.8552 251.19 26.3955 248.888C25.9039 246.59 25.2301 244.335 24.3807 242.144Z" fill="black"/>
<path d="M24.2369 249.486C23.8087 248.11 23.1856 246.803 22.3866 245.605C21.6447 244.376 20.7411 243.254 19.7002 242.267C19.1607 241.785 18.5806 241.35 17.9664 240.969C17.3677 240.579 16.7139 240.283 16.0269 240.09C16.0116 240.087 15.9957 240.089 15.982 240.097C15.9683 240.104 15.9576 240.116 15.9516 240.131C15.9414 240.142 15.9359 240.157 15.9359 240.172C15.9359 240.187 15.9414 240.202 15.9516 240.213C17.1899 240.805 18.2863 241.658 19.1656 242.713C20.0624 243.74 20.8162 244.884 21.4066 246.113C22.0439 247.322 22.3729 248.655 22.928 249.898C23.1678 250.536 23.4145 251.175 23.6955 251.814C23.9346 252.477 24.2162 253.124 24.5384 253.751C24.5441 253.761 24.552 253.769 24.5616 253.775C24.5711 253.781 24.582 253.784 24.5933 253.785C24.6111 253.786 24.6285 253.779 24.6423 253.768C24.6561 253.757 24.6654 253.741 24.6687 253.723C24.6893 253.006 24.6618 252.288 24.5864 251.574C24.5522 250.88 24.4014 250.179 24.2369 249.486Z" fill="black"/>
<path d="M24.4903 210.672C22.3972 210.087 20.5036 208.939 19.0143 207.353C17.5249 205.768 16.4966 203.804 16.0404 201.674C14.4505 194.257 19.5629 197.437 14.9851 185.781C10.4072 174.125 11.4626 171.488 13.0456 168.129C14.6287 164.77 15.5127 165.835 16.9176 170.251C18.3225 174.668 23.4486 181.55 25.3743 194.435C27.3 207.32 24.4903 210.672 24.4903 210.672Z" fill="url(#paint1_linear_22_1116)"/>
<path d="M38.0594 198.144C38.0594 198.144 33.4747 196.551 33.3034 187.903C33.1321 179.256 36.6477 181.035 37.1754 170.251C37.7031 159.468 38.409 151.892 40.3484 151.707C42.2878 151.521 47.3933 157.002 49.1546 169.008C50.9158 181.014 46.8656 188.927 43.3432 192.484C39.8207 196.042 38.0594 198.144 38.0594 198.144Z" fill="url(#paint2_linear_22_1116)"/>
<path d="M22.03 221.092C22.03 221.092 20.9678 214.738 18.857 211.737C16.7463 208.735 12.1616 206.084 9.16681 200.26C6.17202 194.435 2.82773 191.612 2.99906 199.91C3.17038 208.207 6.87104 212.438 11.4557 215.267C16.0404 218.097 22.03 221.092 22.03 221.092Z" fill="url(#paint3_linear_22_1116)"/>
<path d="M20.0906 232.033C20.0906 232.033 15.8623 223.915 9.7014 217.912C3.5405 211.909 -1.40056 208.907 0.360676 211.909C2.12191 214.91 4.23951 214.738 7.21374 220.034C10.188 225.33 9.32448 229.21 13.5528 232.212C17.7812 235.213 20.0906 232.033 20.0906 232.033Z" fill="url(#paint4_linear_22_1116)"/>
<path d="M19.5629 242.452C19.3847 241.924 19.2065 238.036 13.2238 234.897C7.24106 231.758 1.57357 232.953 2.3 234.54C3.02642 236.127 6.70652 238.778 10.4003 240.364C14.0941 241.951 19.5629 242.452 19.5629 242.452Z" fill="url(#paint5_linear_22_1116)"/>
<path d="M37.703 221.442C37.703 221.442 35.0989 218.09 36.4695 211.029C37.8401 203.969 41.0473 205.734 44.5767 202.025C48.106 198.316 47.3933 197.787 50.9158 193.906C54.4382 190.026 57.6043 187.903 59.0161 189.49C60.4278 191.077 58.3308 196.022 56.1995 198.845C54.0682 201.668 50.717 203.083 49.1545 206.613C47.592 210.143 48.2705 215.796 44.2203 218.44C40.1701 221.085 37.703 221.442 37.703 221.442Z" fill="url(#paint6_linear_22_1116)"/>
<path d="M46.5092 223.386C46.5092 223.386 52.8551 216.167 57.433 210.851C62.0108 205.535 63.7721 201.496 63.9503 205.026C64.1284 208.557 65.5333 211.38 61.8327 215.968C58.132 220.556 46.5092 223.386 46.5092 223.386Z" fill="url(#paint7_linear_22_1116)"/>
<path d="M43.1651 235.035C43.1651 235.035 42.987 232.212 53.0267 225.68C63.0664 219.148 67.2948 217.912 66.2394 220.563C65.184 223.214 60.7569 225.858 56.0215 230.625C51.286 235.392 43.1651 235.035 43.1651 235.035Z" fill="url(#paint8_linear_22_1116)"/>
<path d="M24.9151 209.924C24.9151 209.924 22.5577 197.258 20.118 188.254C17.6783 179.249 16.0678 173.782 16.0678 173.782" stroke="black" stroke-width="0.603188" stroke-linecap="round" stroke-linejoin="round"/>
<path d="M37.6482 198.309C37.6482 198.309 41.9519 184.572 43.3225 176.247C44.6931 167.923 43.1443 161.776 42.4385 158.067" stroke="black" stroke-width="0.603188" stroke-linecap="round" stroke-linejoin="round"/>
<path d="M21.475 220.824C19.5772 217.557 17.4061 214.457 14.9851 211.558C11.1063 206.97 8.13208 204.498 6.35028 200.081" stroke="black" stroke-width="0.603188" stroke-linecap="round" stroke-linejoin="round"/>
<path d="M37.7031 221.442C37.7031 221.442 39.1149 212.966 42.4591 208.557C45.8034 204.147 52.4989 197.258 55.1442 192.814" stroke="black" stroke-width="0.603188" stroke-linecap="round" stroke-linejoin="round"/>
<path d="M19.145 242.267C19.145 242.267 13.2239 238.4 8.99561 236.278" stroke="black" stroke-width="0.603188" stroke-linecap="round" stroke-linejoin="round"/>
<path d="M53.0881 277.839C52.6906 267.131 40.8142 259.981 40.8142 259.981H22.6125C22.6125 259.981 10.7361 267.124 10.3387 277.839C9.94117 288.553 23.7981 327.827 23.7981 327.827H39.6286C39.6286 327.827 53.4787 288.553 53.0881 277.839Z" fill="black" stroke="black" stroke-width="0.603188" stroke-linecap="round" stroke-linejoin="round"/>
<path d="M43.158 249.451H19.933L22.6125 259.988H40.4785L43.158 249.451Z" fill="black" stroke="black" stroke-width="0.603188" stroke-linecap="round" stroke-linejoin="round"/>
<path d="M138.47 31.8663C138.469 31.5215 138.366 31.1849 138.174 30.8989C137.982 30.6129 137.709 30.3904 137.391 30.2594C137.073 30.1284 136.723 30.0948 136.386 30.1629C136.049 30.231 135.739 30.3977 135.497 30.6419C135.254 30.8862 135.089 31.1971 135.022 31.5353C134.955 31.8735 134.99 32.2239 135.122 32.5423C135.254 32.8607 135.477 33.1328 135.763 33.3242C136.05 33.5156 136.386 33.6177 136.73 33.6177C136.959 33.6177 137.186 33.5724 137.398 33.4843C137.609 33.3962 137.801 33.267 137.963 33.1043C138.125 32.9416 138.253 32.7484 138.34 32.536C138.427 32.3235 138.471 32.0959 138.47 31.8663Z" fill="white"/>
<path d="M266.595 18.6512V52.4577" stroke="black" stroke-width="0.603188" stroke-linecap="round" stroke-linejoin="round" stroke-dasharray="3.02 3.02"/>
<path d="M266.589 110.167V138.643C266.593 140.883 266.157 143.102 265.306 145.173C264.454 147.244 263.204 149.126 261.626 150.712C260.048 152.299 258.174 153.558 256.111 154.418C254.047 155.278 251.835 155.722 249.6 155.725H213.813" stroke="black" stroke-width="0.603188" stroke-linecap="round" stroke-linejoin="round" stroke-dasharray="3.02 3.02"/>
<path d="M215.067 151.411L207.673 155.69L215.067 159.976V151.411Z" fill="black"/>
<path d="M304.517 67.6034L243.703 55.0588L234.742 98.6929L295.556 111.238L304.517 67.6034Z" fill="black"/>
<path d="M301.375 63.5485L240.561 51.0039L231.601 94.638L292.415 107.183L301.375 63.5485Z" fill="white" stroke="black" stroke-width="0.603188" stroke-miterlimit="10"/>
<path d="M240.561 50.995L266.486 79.0869L301.375 63.5436" stroke="black" stroke-width="0.603188" stroke-linecap="round" stroke-linejoin="round"/>
<path d="M257.022 296.637C257.022 296.637 245.138 280.73 230.308 269.74C215.478 258.751 202.759 254.218 199.264 255.269C195.769 256.32 192.706 259.699 192.706 259.699L151.265 301.404C151.265 301.404 137.593 312.222 136.086 313.17C134.578 314.117 127.519 318.527 123.195 319.887C118.871 321.247 111.792 321.034 111.757 322.353C111.723 323.671 112.676 324.688 114.786 325.581C118.71 327.129 122.856 328.033 127.067 328.26C130.279 328.315 133.473 328.743 136.586 329.537C138.059 329.908 142.288 331.852 143.322 330.224C144.357 328.596 145.79 319.234 146.146 318.252C146.502 317.27 159.64 307.757 168.836 303.245C178.033 298.732 189.293 291.307 192.534 287.77C195.776 284.233 200.546 278.766 200.546 278.766C200.546 278.766 215.286 292.743 220.365 299.337C225.443 305.93 233.598 314.097 248.387 320.979C263.176 327.861 268.617 322.25 269.631 316.659C270.646 311.068 257.022 296.637 257.022 296.637Z" fill="white" stroke="black" stroke-width="0.603188" stroke-linecap="round" stroke-linejoin="round"/>
<path d="M230.308 269.74C215.472 258.751 202.759 254.218 199.264 255.269C195.769 256.32 192.706 259.699 192.706 259.699L151.752 300.909C152.643 303.403 154.664 306.617 159.29 308.726C162.379 306.729 165.57 304.894 168.85 303.231C178.047 298.712 189.307 291.287 192.548 287.75C195.79 284.212 200.559 278.745 200.559 278.745C200.559 278.745 215.3 292.722 220.378 299.316C225.456 305.91 239.217 324.365 254.986 328.521C284.009 336.179 283.022 321.35 284.009 315.759C284.996 310.168 257.035 296.617 257.035 296.617C257.035 296.617 245.138 280.73 230.308 269.74Z" fill="black" stroke="black" stroke-width="0.603188" stroke-linecap="round" stroke-linejoin="round"/>
<path d="M111.757 322.353C111.716 323.672 112.676 324.688 114.786 325.581C118.71 327.129 122.856 328.033 127.067 328.26C130.279 328.315 133.473 328.744 136.586 329.537C138.059 329.908 142.288 331.852 143.322 330.224C144.213 328.851 145.378 321.714 145.94 319.125C141.424 319.269 136.291 317.298 136.291 317.298C136.291 317.298 136.654 316.151 136.086 313.177C134.571 314.125 127.519 318.534 123.195 319.894C118.871 321.254 111.792 321.034 111.757 322.353Z" fill="white" stroke="black" stroke-width="0.603188" stroke-linecap="round" stroke-linejoin="round"/>
<path d="M307.995 235.598C304.068 232.081 295.241 223.66 289.073 213.124C282.906 202.588 284.591 199.222 279.966 190.932C275.34 182.642 268.617 178.569 259.502 180.396C252.108 181.88 248.311 186.33 247.167 187.951C246.9 188.315 246.632 188.638 246.344 189.009C245.015 190.568 240.807 196.351 237.662 209.896C233.872 226.188 234.016 234.19 239.759 237.981C245.502 241.772 249.572 240.09 251.251 241.917C252.93 243.744 253.492 245.99 252.094 245.99C251.704 246.003 251.316 245.935 250.953 245.789C250.591 245.644 250.263 245.424 249.99 245.145C249.99 245.145 253.211 250.063 256.295 248.654C259.379 247.246 262.881 242.198 260.64 235.453C258.399 228.709 252.375 221.833 251.388 220.569C250.401 219.306 248.448 204.696 248.448 204.696C248.448 204.696 248.592 199.779 254.054 201.468C259.516 203.158 266.945 206.242 269.33 211.16C271.715 216.077 280.541 227.17 288.244 230.536C295.947 233.901 299.038 236.999 301.841 245.289C304.643 253.579 304.643 256.237 304.643 256.237C304.643 256.237 310.386 253.572 311.497 247.535C312.607 241.498 311.915 239.107 307.995 235.598ZM240.307 235.872C237.648 232.926 239.327 227.589 239.327 227.589C238.484 235.144 247.174 239.389 247.174 239.389C247.174 239.389 242.973 238.833 240.307 235.872Z" fill="black" stroke="black" stroke-width="0.603188" stroke-linecap="round" stroke-linejoin="round"/>
<path d="M257.638 297.901C257.638 297.901 239.032 294.598 234.42 296.253C229.808 297.908 217.788 317.71 215.643 320.018C213.498 322.325 211.195 323.321 209.222 323.321C207.248 323.321 200.162 322.003 196.043 322.827C191.924 323.651 186.819 326.295 187.319 328.768C187.819 331.241 190.115 332.401 197.695 333.576C205.274 334.75 213.34 331.928 215.478 330.767C217.617 329.606 220.09 327.964 220.748 327.635C221.406 327.305 227.334 325.979 230.63 323.837C233.078 322.149 235.389 320.273 237.545 318.225C237.545 318.225 251.546 324.661 256.816 327.47C262.086 330.279 270.323 332.092 274.936 332.092C279.548 332.092 289.594 330.767 292.068 329.613C294.542 328.459 299.147 324.001 299.147 318.891C299.147 313.781 299.696 306.631 298.017 306.322C296.338 306.013 294.864 306.679 293.22 306.514C291.575 306.349 282.508 301.233 280.199 300.237C277.889 299.241 257.638 297.901 257.638 297.901Z" fill="black" stroke="black" stroke-width="0.603188" stroke-linecap="round" stroke-linejoin="round"/>
<path d="M228.821 302.16C230.57 300.091 232.44 298.128 234.42 296.281C236.476 294.625 251.752 296.397 251.752 296.397" stroke="white" stroke-width="0.603188" stroke-linecap="round" stroke-linejoin="round"/>
<path d="M225.902 305.518C225.902 305.518 226.587 304.687 227.629 303.52" stroke="white" stroke-width="0.603188" stroke-linecap="round" stroke-linejoin="round"/>
<path d="M215.143 320.567C213.148 322.511 211.031 323.369 209.222 323.369C207.241 323.369 200.162 322.051 196.043 322.875C191.924 323.699 186.819 326.344 187.319 328.816C187.819 331.289 190.115 332.45 197.695 333.624C205.274 334.799 213.34 331.976 215.478 330.815C217.617 329.654 219.96 328.067 220.694 327.71C219.298 327.006 218.077 325.999 217.117 324.764C216.157 323.529 215.483 322.095 215.143 320.567Z" fill="white" stroke="black" stroke-width="0.603188" stroke-linecap="round" stroke-linejoin="round"/>
<path d="M209.715 326.817C208.92 325.519 209.804 324.07 210.633 323.184C210.17 323.291 209.697 323.346 209.222 323.349C207.241 323.349 200.162 322.03 196.043 322.854C191.924 323.678 186.819 326.323 187.319 328.795C187.819 331.268 190.115 332.429 197.695 333.603C205.274 334.778 213.34 331.955 215.478 330.794C215.807 330.622 216.164 330.43 216.479 330.238C214.396 329.929 210.866 328.685 209.715 326.817Z" fill="white" stroke="black" stroke-width="0.603188" stroke-linecap="round" stroke-linejoin="round"/>
<path d="M260.489 229.698C260.489 229.698 247.592 229.835 246.194 234.753C244.796 239.671 246.05 263.827 245.913 271.843C245.776 279.858 245.776 285.044 246.756 287.015C247.736 288.986 253.479 292.634 253.903 292.771C254.328 292.908 253.76 297.263 253.76 297.263C253.76 297.263 263.71 298.527 269.316 298.671C274.922 298.815 279.966 300.917 285.147 304.99C290.327 309.063 293.699 311.728 293.699 311.728L296.92 308.218C296.92 308.218 298.181 320.155 299.586 325.636C300.991 331.117 305.754 331.392 307.124 331.392C308.495 331.392 313.148 331.255 313.148 331.255C313.148 331.255 308.666 322.965 306.699 317.346C304.733 311.728 303.478 306.954 303.478 306.954C303.478 306.954 304.458 305.409 304.458 302.043C304.458 298.678 303.773 296.706 303.903 293.334C304.034 289.962 310.071 275.215 307.542 258.786C305.014 242.357 305.863 237.714 299.696 234.485C293.528 231.257 280.075 229.286 276.292 228.991C272.51 228.695 260.489 229.698 260.489 229.698Z" fill="url(#paint9_linear_22_1116)" stroke="black" stroke-width="0.603188" stroke-linecap="round" stroke-linejoin="round"/>
<path d="M251.375 220.569C251.008 219.783 250.755 218.948 250.621 218.09C247.681 213.165 245.022 208.083 244.323 205.665C243.261 202.004 244.076 195.039 244.631 191.379C242.733 194.401 239.91 200.129 237.648 209.923C233.858 226.215 234.002 234.217 239.745 238.008C245.488 241.8 249.559 240.117 251.238 241.944C252.917 243.771 253.479 246.017 252.081 246.017C251.691 246.03 251.302 245.962 250.94 245.817C250.578 245.671 250.25 245.452 249.977 245.172C249.977 245.172 253.198 250.09 256.282 248.682C259.366 247.274 262.867 242.226 260.626 235.481C258.386 228.736 252.341 221.833 251.375 220.569ZM240.307 235.872C237.648 232.926 239.327 227.589 239.327 227.589C238.484 235.144 247.174 239.389 247.174 239.389C247.174 239.389 242.973 238.833 240.307 235.872Z" fill="black" stroke="black" stroke-width="0.603188" stroke-linecap="round" stroke-linejoin="round"/>
<path d="M278.3 294.618L282.303 295.195" stroke="black" stroke-width="0.603188" stroke-linecap="round" stroke-linejoin="round"/>
<path d="M255.562 273.017C255.562 273.017 252.745 289.969 253.938 290.655C254.746 291.116 267.267 293.004 275.402 294.193" stroke="black" stroke-width="0.603188" stroke-linecap="round" stroke-linejoin="round"/>
<path d="M255.137 291.507L253.76 297.249" stroke="black" stroke-width="0.603188" stroke-linecap="round" stroke-linejoin="round"/>
<path d="M285.38 302.215C285.38 302.215 293.836 305.127 298.017 306.336C302.197 307.545 302.814 307.105 302.814 307.105" stroke="black" stroke-width="0.603188" stroke-linecap="round" stroke-linejoin="round"/>
<path d="M271.201 242.363L277.519 245.962L277.69 240.653" stroke="black" stroke-width="0.603188" stroke-linecap="round" stroke-linejoin="round"/>
<path d="M262.573 241.683L261.373 242.624" stroke="black" stroke-width="0.603188" stroke-linecap="round" stroke-linejoin="round"/>
<path d="M254.623 253.153L254.541 249.898" stroke="black" stroke-width="0.603188" stroke-linecap="round" stroke-linejoin="round"/>
<path d="M251.656 197.54C251.656 197.54 244.343 203.934 244.343 205.665C244.343 207.396 246.735 214.993 247.667 218.063C248.806 221.334 250.617 224.33 252.985 226.854C255.11 229.121 259.235 231.786 260.167 231.786C260.915 231.705 261.638 231.472 262.292 231.099C262.292 231.099 262.826 242.027 264.683 245.894C266.54 249.761 267.479 249.623 267.877 248.689C268.274 247.755 273.195 231.635 273.195 231.635L275.586 220.171L270.536 207.121C270.536 207.121 263.491 200.857 258.701 199.257C253.91 197.657 251.656 197.54 251.656 197.54Z" fill="white" stroke="black" stroke-width="0.603188" stroke-linecap="round" stroke-linejoin="round"/>
<path d="M255.767 220.59C255.767 220.59 255.767 222.994 256.172 223.125C256.576 223.255 258.296 223.812 258.831 222.438" stroke="black" stroke-width="0.603188" stroke-linecap="round" stroke-linejoin="round"/>
<path d="M257.22 225.783C257.22 225.783 261.209 226.318 262.538 223.516" stroke="black" stroke-width="0.603188" stroke-linecap="round" stroke-linejoin="round"/>
<path d="M262.271 231.12C262.271 231.12 266.657 227.685 269.056 224.457C269.056 224.457 266.397 230.721 265.595 232.321C265.139 233.227 264.741 234.161 264.402 235.117L262.271 231.12Z" fill="black" stroke="black" stroke-width="0.603188" stroke-linecap="round" stroke-linejoin="round"/>
<path d="M259.879 214.464C259.879 214.464 263.47 215.528 264.93 213.262" stroke="black" stroke-width="0.603188" stroke-linecap="round" stroke-linejoin="round"/>
<path d="M258.283 211.263C258.283 211.263 262.271 208.996 265.067 209.93" stroke="black" stroke-width="0.603188" stroke-linecap="round" stroke-linejoin="round"/>
<path d="M248.839 216.064C249.457 216.446 250.183 216.613 250.905 216.54C251.627 216.466 252.305 216.157 252.834 215.659" stroke="black" stroke-width="0.603188" stroke-linecap="round" stroke-linejoin="round"/>
<path d="M252.567 212.733C252.567 212.733 250.573 211.393 247.647 212.863" stroke="black" stroke-width="0.603188" stroke-linecap="round" stroke-linejoin="round"/>
<path d="M289.916 246.69C289.916 246.69 288.374 252.027 288.936 255.681C289.498 259.335 288.662 271.115 288.662 271.692C288.662 272.268 285.578 273.656 285.715 274.638C285.892 275.586 286.121 276.524 286.401 277.447L281.912 275.62L275.888 283.629C279.802 287.182 284.13 290.247 288.779 292.757C296.906 297.249 302.485 295.848 302.485 295.848C302.485 295.848 305.706 276.046 306.131 267.193C306.556 258.339 308.509 246.69 305.445 238.407C303.04 231.93 292.425 231.099 290.033 242.198" fill="url(#paint10_linear_22_1116)"/>
<path d="M289.916 246.69C289.916 246.69 288.374 252.027 288.936 255.681C289.498 259.335 288.662 271.115 288.662 271.692C288.662 272.268 285.578 273.656 285.715 274.638C285.892 275.586 286.121 276.524 286.401 277.447L281.912 275.62L275.888 283.629C279.802 287.182 284.13 290.247 288.779 292.757C296.906 297.249 302.485 295.848 302.485 295.848C302.485 295.848 305.706 276.046 306.131 267.193C306.556 258.339 308.509 246.69 305.445 238.407C303.04 231.93 292.425 231.099 290.033 242.198" stroke="black" stroke-width="0.603188" stroke-linecap="round" stroke-linejoin="round"/>
<path d="M297.379 268.889L298.743 268.319" stroke="black" stroke-width="0.603188" stroke-linecap="round" stroke-linejoin="round"/>
<path d="M290.334 271.829L295.673 269.604" stroke="black" stroke-width="0.603188" stroke-linecap="round" stroke-linejoin="round"/>
<path d="M287.395 277.729C287.395 277.729 299.161 274.782 299.045 275.764C298.928 276.746 294.981 277.138 294.981 277.138" stroke="black" stroke-width="0.603188" stroke-linecap="round" stroke-linejoin="round"/>
<path d="M288.662 278.292C288.662 278.292 297.345 279.274 298.887 282.928" stroke="black" stroke-width="0.603188" stroke-linecap="round" stroke-linejoin="round"/>
<path d="M297.407 286.548C297.907 286.871 298.452 287.118 299.024 287.283" stroke="black" stroke-width="0.603188" stroke-linecap="round" stroke-linejoin="round"/>
<path d="M287.977 279.556C287.977 279.556 292.603 283.375 296.002 285.648" stroke="black" stroke-width="0.603188" stroke-linecap="round" stroke-linejoin="round"/>
<path d="M233.694 253.669C233.694 253.669 230.534 260.434 231.727 261.547C232.919 262.66 240.101 269.59 240.787 269.933C241.472 270.277 243.432 276.273 244.46 278.581C245.488 280.888 246.084 286.287 248.044 287.056C250.004 287.825 254.212 283.807 254.28 281.754C254.349 279.7 254.28 278.924 252.403 276.259C250.525 273.594 246.235 265.043 246.235 265.043L234.523 252.295L233.694 253.669Z" fill="white" stroke="black" stroke-width="0.603188" stroke-linecap="round" stroke-linejoin="round"/>
<path d="M228.232 245.276L241.472 266.849L251.635 268.223L241.726 248.614L228.232 245.276Z" fill="black" stroke="black" stroke-width="0.603188" stroke-linecap="round" stroke-linejoin="round"/>
<path d="M281.925 275.62C281.925 275.62 266.794 264.933 262.867 262.281C260.911 260.996 259.039 259.588 257.261 258.064C257.261 258.064 256.843 255.399 255.891 254.273C254.938 253.146 253.931 252.899 252.108 253.009C250.285 253.119 248.743 253.435 247.619 253.009C246.495 252.583 244.398 249.08 244.117 250.626C243.836 252.171 243.98 253.291 245.378 254.417C246.776 255.544 248.743 255.962 249.305 256.237C249.867 256.512 248.414 256.752 248.414 256.752C246.158 257.548 243.75 257.812 241.376 257.522C239.031 257.217 236.738 256.598 234.557 255.681C233.577 255.399 233.714 256.8 234.838 257.645C235.962 258.49 236.654 258.909 236.654 258.909C236.654 258.909 233.152 258.346 233.577 259.472C234.002 260.599 235.537 261.581 236.517 262.281C237.497 262.982 238.477 264.246 239.32 264.665C240.163 265.084 240.3 267.055 241.705 267.9C243.11 268.745 242.692 268.648 246.269 268.978C250.02 269.28 253.79 269.248 257.535 268.882L275.895 283.629L281.925 275.62Z" fill="white" stroke="black" stroke-width="0.603188" stroke-linecap="round" stroke-linejoin="round"/>
<path d="M236.661 258.909C236.661 258.909 240.17 260.592 240.725 260.592H248.298" stroke="black" stroke-width="0.603188" stroke-linecap="round" stroke-linejoin="round"/>
<path d="M235.894 261.973C236.71 262.071 237.512 262.272 238.279 262.57C238.772 262.9 241.979 263.539 242.966 263.704C244.442 263.806 245.922 263.834 247.4 263.786" stroke="black" stroke-width="0.603188" stroke-linecap="round" stroke-linejoin="round"/>
<path d="M239.32 264.665C239.32 264.665 243.233 266.588 243.973 266.726C245.563 266.767 247.153 266.712 248.736 266.561" stroke="black" stroke-width="0.603188" stroke-linecap="round" stroke-linejoin="round"/>
<path d="M285.291 220.569C280.228 215.128 275.591 209.305 271.42 203.151C271.42 203.151 269.878 225.199 273.236 234.609C276.594 244.018 288.936 240.103 293.274 237.699C297.612 235.295 299.161 233.489 301.827 233.908C295.771 230.185 290.214 225.702 285.291 220.569Z" fill="black" stroke="black" stroke-width="0.603188" stroke-linecap="round" stroke-linejoin="round"/>
<path d="M253.712 196.42C248.819 190.596 251.656 197.54 251.656 197.54C251.656 197.54 261.024 206.503 270.536 207.156C270.515 207.135 258.618 202.245 253.712 196.42Z" fill="black" stroke="black" stroke-width="0.603188" stroke-linecap="round" stroke-linejoin="round"/>
<path d="M185.11 16.0789V240.599C185.11 243.558 183.949 246.397 181.881 248.49C179.813 250.583 177.009 251.759 174.085 251.759H78.2388C75.3147 251.759 72.5104 250.583 70.4427 248.49C68.375 246.397 67.2134 243.558 67.2134 240.599V16.0724C67.2134 13.1143 68.3744 10.2773 70.4408 8.18566C72.5073 6.09398 75.31 4.91889 78.2324 4.91889H119.371L119.41 5.04303C120.443 8.78046 122.792 11.2046 125.413 11.2046H126.898C129.518 11.2046 131.875 8.77392 132.901 5.0365L132.946 4.91235H174.085C175.533 4.91235 176.967 5.20123 178.306 5.76248C179.644 6.32373 180.859 7.14636 181.883 8.18335C182.907 9.22035 183.719 10.4514 184.273 11.8061C184.826 13.1609 185.111 14.6128 185.11 16.0789Z" fill="white" stroke="black" stroke-width="0.499387" stroke-miterlimit="10"/>
<path d="M141.768 192.81H111.715C110.198 192.81 108.969 194.043 108.969 195.563V201.158C108.969 202.678 110.198 203.91 111.715 203.91H141.768C143.285 203.91 144.514 202.678 144.514 201.158V195.563C144.514 194.043 143.285 192.81 141.768 192.81Z" fill="#269038"/>
<path d="M126.952 71.6978L126.783 71.5699L126.614 71.6978C126.614 71.6978 117.982 76.6217 114.079 78.4912C114.079 78.4912 115.955 89.0236 117.295 93.7706C118.635 98.5177 123.905 101.072 126.783 102.768C129.666 101.072 134.916 98.5252 136.271 93.7706C137.626 89.016 139.491 78.4912 139.491 78.4912C135.592 76.6217 126.952 71.6978 126.952 71.6978Z" fill="url(#paint11_linear_22_1116)"/>
<path d="M125.898 93.2797L120.17 88.3595C120.039 88.2472 119.932 88.11 119.853 87.9559C119.775 87.8018 119.728 87.6338 119.714 87.4614C119.687 87.1133 119.799 86.7686 120.026 86.5032C120.252 86.2379 120.575 86.0735 120.922 86.0464C121.269 86.0192 121.613 86.1314 121.878 86.3584L125.631 89.5858L132.064 82.2546C132.294 81.9922 132.618 81.8321 132.966 81.8095C133.314 81.7869 133.656 81.9037 133.918 82.1342C134.18 82.3646 134.34 82.6899 134.362 83.0384C134.385 83.3868 134.268 83.73 134.038 83.9924L125.898 93.2797Z" fill="white"/>
<path d="M116.98 201.681V194.772H119.873V195.659H118.239V197.644H119.527V198.525H118.239V200.8H119.89V201.67L116.98 201.681Z" fill="white"/>
<path d="M120.622 201.681V194.772H121.502L123.176 198.713V194.772H124.237V201.681H123.403L121.7 197.553V201.681H120.622Z" fill="white"/>
<path d="M125.939 201.681V195.699H124.844V194.772H128.282V195.699H127.198V201.681H125.939Z" fill="white"/>
<path d="M128.923 201.681V194.772H131.816V195.659H130.182V197.644H131.465V198.525H130.182V200.8H131.833V201.67L128.923 201.681Z" fill="white"/>
<path d="M132.565 201.682V194.773H134.217C134.616 194.761 135.015 194.817 135.397 194.938C135.699 195.036 135.958 195.237 136.129 195.506C136.31 195.84 136.397 196.218 136.378 196.598C136.38 196.85 136.353 197.102 136.299 197.349C136.257 197.555 136.169 197.749 136.043 197.917C135.909 198.082 135.733 198.208 135.533 198.281L136.497 201.693H135.238L134.404 198.526H133.836V201.693L132.565 201.682ZM133.825 197.701H134.217C134.411 197.705 134.604 197.668 134.784 197.593C134.924 197.521 135.033 197.399 135.09 197.252C135.16 197.059 135.192 196.854 135.187 196.649C135.207 196.375 135.14 196.102 134.994 195.87C134.902 195.772 134.789 195.696 134.662 195.651C134.536 195.605 134.401 195.591 134.268 195.609H133.808L133.825 197.701Z" fill="white"/>
<path d="M99.1185 41.6907L97.9157 35.7029H98.8803L99.6689 39.9393L100.406 35.7029H101.394L100.191 41.6907H99.1185Z" fill="#1E1E1E"/>
<path d="M102.007 41.6907V35.7029H104.514V36.4706H103.102V38.1765H104.236V38.9385H103.102V40.9629H104.531V41.7135L102.007 41.6907Z" fill="#1E1E1E"/>
<path d="M105.161 41.6908V35.7029H106.597C106.943 35.6953 107.288 35.7452 107.618 35.8508C107.88 35.9341 108.105 36.1072 108.253 36.3398C108.41 36.6287 108.485 36.9552 108.469 37.2837C108.471 37.5036 108.449 37.7231 108.401 37.9377C108.363 38.1148 108.288 38.2817 108.18 38.4267C108.063 38.5705 107.91 38.6804 107.737 38.7452L108.571 41.6908H107.493L106.767 38.9499H106.267V41.6908H105.161ZM106.256 38.2789H106.597C106.77 38.2876 106.942 38.2565 107.101 38.1879C107.225 38.128 107.321 38.0218 107.368 37.8922C107.428 37.7245 107.455 37.5469 107.448 37.369C107.465 37.1318 107.407 36.8951 107.283 36.6924C107.203 36.6084 107.104 36.5445 106.995 36.506C106.885 36.4674 106.768 36.4553 106.653 36.4706H106.256V38.2789Z" fill="#1E1E1E"/>
<path d="M109.314 41.6907V35.7029H110.392V41.6907H109.314Z" fill="#1E1E1E"/>
<path d="M111.317 41.6907V35.7029H113.774V36.4592H112.406V38.2049H113.541V38.9669H112.406V41.6907H111.317Z" fill="#1E1E1E"/>
<path d="M114.37 41.6907V35.7029H115.436V41.6907H114.37Z" fill="#1E1E1E"/>
<path d="M117.978 41.7761C117.615 41.7951 117.255 41.7039 116.945 41.5146C116.699 41.3449 116.517 41.0963 116.429 40.8095C116.324 40.4769 116.274 40.1291 116.282 39.7802V37.6421C116.273 37.282 116.323 36.9228 116.429 36.5787C116.512 36.2928 116.696 36.0465 116.945 35.885C117.259 35.7045 117.617 35.6195 117.978 35.6405C118.314 35.6229 118.649 35.6956 118.948 35.8509C119.178 35.9872 119.353 36.2007 119.442 36.4536C119.547 36.7432 119.597 37.0498 119.589 37.3578V37.8639H118.545V37.3464C118.555 37.193 118.555 37.0392 118.545 36.8858C118.535 36.7634 118.485 36.6477 118.404 36.556C118.35 36.5107 118.287 36.4767 118.22 36.4562C118.153 36.4357 118.082 36.429 118.012 36.4366C117.864 36.4249 117.717 36.4719 117.604 36.5673C117.513 36.6629 117.454 36.7839 117.433 36.9142C117.409 37.0761 117.398 37.2396 117.399 37.4033V40.0077C117.396 40.1872 117.413 40.3666 117.45 40.5422C117.476 40.6663 117.542 40.7783 117.638 40.8606C117.746 40.9398 117.878 40.9781 118.012 40.9687C118.082 40.9756 118.153 40.9676 118.219 40.945C118.286 40.9225 118.347 40.8859 118.398 40.8379C118.482 40.7432 118.532 40.6231 118.54 40.4967C118.564 40.3367 118.575 40.1751 118.574 40.0133V39.4447H119.618V39.928C119.622 40.2479 119.576 40.5665 119.482 40.872C119.392 41.1346 119.218 41.3603 118.988 41.5146C118.685 41.7008 118.333 41.7919 117.978 41.7761Z" fill="#1E1E1E"/>
<path d="M120.049 41.6907L121.24 35.7029H122.409L123.601 41.6907H122.591L122.358 40.3089H121.314L121.076 41.6907H120.049ZM121.428 39.6152H122.245L121.836 37.1017L121.428 39.6152Z" fill="#1E1E1E"/>
<path d="M124.514 41.6907V36.5104H123.561V35.7029H126.54V36.5104H125.604V41.6907H124.514Z" fill="#1E1E1E"/>
<path d="M127.118 41.6907V35.7029H128.196V41.6907H127.118Z" fill="#1E1E1E"/>
<path d="M130.755 41.7758C130.403 41.7938 130.053 41.711 129.745 41.537C129.494 41.3769 129.304 41.1364 129.206 40.8546C129.097 40.5229 129.045 40.1748 129.053 39.8254V37.5508C129.046 37.1969 129.102 36.8445 129.218 36.5102C129.311 36.2368 129.493 36.0025 129.734 35.8449C130.044 35.6777 130.393 35.599 130.744 35.6174C131.099 35.5984 131.452 35.677 131.765 35.8449C132.013 35.9989 132.202 36.2309 132.304 36.5045C132.417 36.8413 132.469 37.1957 132.457 37.5508V39.8254C132.464 40.1792 132.408 40.5315 132.293 40.866C132.191 41.1442 132.002 41.3818 131.754 41.5427C131.449 41.7112 131.103 41.7919 130.755 41.7758ZM130.755 40.9684C130.9 40.9817 131.044 40.939 131.158 40.849C131.249 40.7627 131.309 40.6487 131.328 40.5248C131.359 40.377 131.374 40.2265 131.374 40.0756V37.3177C131.374 37.1649 131.359 37.0124 131.328 36.8627C131.307 36.7429 131.247 36.6333 131.158 36.55C131.045 36.4573 130.902 36.4088 130.755 36.4135C130.616 36.4041 130.477 36.4444 130.364 36.5272C130.273 36.6097 130.211 36.7194 130.188 36.84C130.154 36.9892 130.139 37.142 130.143 37.2949V40.0529C130.141 40.2036 130.154 40.3541 130.182 40.5021C130.203 40.6267 130.265 40.7408 130.358 40.8262C130.468 40.9209 130.61 40.9698 130.755 40.9627V40.9684Z" fill="#1E1E1E"/>
<path d="M133.274 41.6907V35.7029H134.035L135.487 39.1148V35.7029H136.384V41.6907H135.663L134.205 38.1196V41.6964L133.274 41.6907Z" fill="#1E1E1E"/>
<path d="M140.69 41.7761C140.329 41.7943 139.971 41.7031 139.663 41.5146C139.416 41.3449 139.234 41.0963 139.147 40.8095C139.039 40.4772 138.987 40.1294 138.993 39.7802V37.6421C138.986 37.2816 139.038 36.9224 139.147 36.5787C139.23 36.2928 139.413 36.0465 139.663 35.885C139.974 35.7049 140.331 35.6199 140.69 35.6405C141.026 35.6215 141.362 35.6942 141.66 35.8509C141.893 35.9862 142.069 36.1998 142.159 36.4536C142.264 36.7432 142.314 37.0498 142.307 37.3578V37.8639H141.263V37.3464C141.263 37.1924 141.253 37.0386 141.235 36.8858C141.224 36.7634 141.174 36.6477 141.093 36.556C141.039 36.5107 140.976 36.4767 140.909 36.4562C140.842 36.4357 140.771 36.429 140.701 36.4366C140.553 36.4249 140.407 36.4719 140.293 36.5673C140.2 36.6614 140.14 36.7831 140.123 36.9142C140.099 37.0761 140.087 37.2396 140.089 37.4033V40.0077C140.085 40.1872 140.102 40.3666 140.14 40.5422C140.165 40.6663 140.231 40.7783 140.327 40.8606C140.435 40.9398 140.568 40.9781 140.701 40.9687C140.771 40.9756 140.842 40.9676 140.908 40.945C140.975 40.9225 141.036 40.8859 141.087 40.8379C141.168 40.7411 141.217 40.6221 141.229 40.4967C141.253 40.3367 141.264 40.1751 141.263 40.0133V39.4447H142.307V39.928C142.313 40.2485 142.265 40.5676 142.165 40.872C142.079 41.1352 141.907 41.3616 141.677 41.5146C141.38 41.6961 141.037 41.787 140.69 41.7761Z" fill="#1E1E1E"/>
<path d="M144.69 41.7759C144.338 41.7932 143.987 41.7104 143.68 41.537C143.429 41.3769 143.239 41.1365 143.141 40.8547C143.027 40.5179 142.974 40.1638 142.982 39.8084V37.5508C142.973 37.1973 143.027 36.8449 143.141 36.5102C143.241 36.2355 143.431 36.0029 143.68 35.8506C143.998 35.701 144.345 35.6234 144.696 35.6234C145.047 35.6234 145.393 35.701 145.711 35.8506C145.96 36.0029 146.15 36.2355 146.25 36.5102C146.369 36.8438 146.425 37.1967 146.415 37.5508V39.8254C146.424 40.1795 146.368 40.5322 146.25 40.866C146.151 41.1455 145.961 41.3837 145.711 41.5427C145.399 41.7154 145.045 41.7962 144.69 41.7759ZM144.69 40.9684C144.834 40.9817 144.979 40.939 145.093 40.849C145.182 40.7605 145.243 40.6478 145.269 40.5249C145.297 40.3768 145.31 40.2263 145.308 40.0756V37.3177C145.311 37.1651 145.297 37.0126 145.269 36.8628C145.241 36.7437 145.18 36.635 145.093 36.55C144.974 36.4754 144.836 36.4358 144.696 36.4358C144.555 36.4358 144.417 36.4754 144.298 36.55C144.208 36.6325 144.146 36.7422 144.123 36.8628C144.092 37.0124 144.076 37.1649 144.077 37.3177V40.0756C144.078 40.2262 144.091 40.3765 144.117 40.5249C144.138 40.6495 144.2 40.7635 144.293 40.849C144.406 40.9356 144.548 40.9762 144.69 40.9627V40.9684Z" fill="#1E1E1E"/>
<path d="M147.209 41.6907V35.7029H148.616C149.004 35.6863 149.391 35.7542 149.751 35.9019C150.007 36.0321 150.208 36.25 150.318 36.516C150.442 36.8525 150.5 37.2097 150.488 37.568V39.7573C150.499 40.1249 150.441 40.4913 150.318 40.8378C150.215 41.115 150.013 41.344 149.751 41.4803C149.406 41.6374 149.028 41.7095 148.65 41.6907H147.209ZM148.298 40.9287H148.633C148.822 40.9471 149.012 40.9011 149.172 40.798C149.287 40.7005 149.358 40.5614 149.371 40.4113C149.395 40.2037 149.407 39.9948 149.405 39.7858V37.5112C149.408 37.3204 149.391 37.1297 149.354 36.9425C149.342 36.877 149.318 36.8145 149.282 36.7588C149.246 36.7031 149.199 36.6553 149.144 36.6184C148.98 36.5387 148.798 36.5034 148.616 36.516H148.298V40.9287Z" fill="#1E1E1E"/>
<path d="M151.328 41.6907V35.7029H153.836V36.4706H152.418V38.1765H153.552V38.9385H152.418V40.9629H153.853V41.7135L151.328 41.6907Z" fill="#1E1E1E"/>
<path d="M62.6554 201.625C62.6554 142.346 62.648 83.0669 62.674 23.788C62.6777 16.6572 64.6647 10.2617 70.3619 5.49669C74.2245 2.26181 78.5141 0 83.736 0C112.014 0.00742796 140.292 0 168.571 0.00742796C176.519 0.00742796 185.221 6.3212 187.887 13.8606C189.094 17.2774 189.666 20.7463 189.655 24.36C189.618 35.8696 189.64 47.3792 189.648 58.8889C189.648 59.7654 189.343 60.7719 190.728 61.0541C191.3 61.173 191.118 61.8898 191.118 62.3577C191.126 70.5248 191.126 78.6918 191.122 86.8626C191.122 87.5311 191.256 88.2702 190.257 88.415C189.707 88.493 189.651 88.9573 189.648 89.4104C189.64 89.9675 189.64 90.5246 189.64 91.0817C189.64 138.665 189.651 186.249 189.633 233.836C189.629 244.049 183.75 252.829 173.982 255.927C173.466 256.09 172.664 256.027 172.571 256.889C170.844 256.896 169.117 256.911 167.393 256.911C140.025 256.911 112.657 256.911 85.2884 256.911C83.5614 256.911 81.8344 256.9 80.1074 256.896C80.0257 256.079 79.3201 256.268 78.8335 256.112C73.5448 254.423 69.348 251.314 66.2208 246.697C63.6248 242.865 62.752 238.538 62.7 234.081C62.57 223.262 62.6554 212.443 62.6554 201.625ZM68.9655 128.411C68.9655 164.047 68.9692 199.682 68.9506 235.322C68.9506 236.759 69.0769 238.189 69.5709 239.5C72.4195 247.091 78.2244 251.314 86.3506 251.344C113.013 251.444 139.68 251.381 166.346 251.377C167.639 251.377 168.916 251.21 170.201 251.084C178.788 250.241 184.842 242.423 184.838 234.1C184.793 163.816 184.812 93.5329 184.827 23.2495C184.827 21.7602 184.756 20.2895 184.418 18.8447C182.896 12.3341 178.87 8.17447 172.496 6.23577C168.188 4.92845 163.772 5.87923 159.419 5.54869C157.967 5.44098 157.633 6.02779 157.678 7.36482C157.737 9.12525 157.945 10.9117 156.887 12.5718C154.992 15.5356 152.155 16.6646 148.872 16.6758C133.96 16.7352 119.052 16.7352 104.141 16.6832C98.4693 16.6646 94.0497 12.7575 95.4462 6.51432C95.5947 5.85323 95.4647 5.54126 94.7962 5.5784C90.254 5.83466 85.6821 5.0213 81.1548 6.23206C74.2728 8.07791 68.9692 14.7445 68.9692 21.8605C68.9618 57.3847 68.9655 92.8978 68.9655 128.411Z" fill="#269038"/>
<path d="M153.122 89.5331C153.122 97.3918 153.125 105.251 153.118 113.109C153.118 115.252 152.691 115.702 150.5 115.702C134.659 115.713 118.819 115.713 102.979 115.702C100.821 115.702 100.394 115.234 100.394 113.076C100.391 97.2358 100.405 81.3957 100.372 65.5556C100.368 63.9326 100.758 62.9967 102.586 62.8704C103.495 62.8072 104.409 62.6327 105.334 62.6327C119.503 62.6327 133.672 62.6327 147.84 62.6327C153.096 62.6327 153.118 62.6587 153.122 67.8137C153.122 75.056 153.122 82.2945 153.122 89.5331ZM101.141 89.1319C101.141 96.8682 101.141 104.601 101.141 112.337C101.141 114.866 101.222 114.955 103.741 114.955C119.087 114.959 134.433 114.959 149.779 114.955C152.111 114.955 152.375 114.699 152.375 112.43C152.379 96.961 152.353 81.4886 152.412 66.0198C152.42 64.2483 151.903 63.6763 150.098 63.6837C134.507 63.7432 118.912 63.7432 103.321 63.6837C101.59 63.6763 101.092 64.2297 101.107 65.927C101.185 73.6595 101.141 81.3957 101.141 89.1319Z" fill="#269038"/>
<path d="M92.5011 133.862H80.7224V145.667H92.5011V133.862Z" stroke="#269038" stroke-width="1.0589" stroke-miterlimit="10"/>
<path d="M108.376 133.862H96.5975V145.667H108.376V133.862Z" stroke="#269038" stroke-width="1.0589" stroke-miterlimit="10"/>
<path d="M124.257 133.862H112.478V145.667H124.257V133.862Z" stroke="#269038" stroke-width="1.0589" stroke-miterlimit="10"/>
<path d="M140.138 133.862H128.359V145.667H140.138V133.862Z" stroke="#269038" stroke-width="1.0589" stroke-miterlimit="10"/>
<path d="M156.013 133.862H144.234V145.667H156.013V133.862Z" stroke="#269038" stroke-width="1.0589" stroke-miterlimit="10"/>
<path d="M171.894 133.862H160.115V145.667H171.894V133.862Z" stroke="#269038" stroke-width="1.0589" stroke-miterlimit="10"/>
<defs>
<linearGradient id="paint0_linear_22_1116" x1="10.2503" y1="62.7314" x2="332.475" y2="98.9252" gradientUnits="userSpaceOnUse">
<stop stop-color="#30A94A"/>
<stop offset="1" stop-color="#238832"/>
</linearGradient>
<linearGradient id="paint1_linear_22_1116" x1="12.109" y1="172.928" x2="26.5508" y2="173.405" gradientUnits="userSpaceOnUse">
<stop stop-color="#30A94A"/>
<stop offset="1" stop-color="#238832"/>
</linearGradient>
<linearGradient id="paint2_linear_22_1116" x1="33.7693" y1="158.769" x2="50.1463" y2="159.357" gradientUnits="userSpaceOnUse">
<stop stop-color="#30A94A"/>
<stop offset="1" stop-color="#238832"/>
</linearGradient>
<linearGradient id="paint3_linear_22_1116" x1="3.54454" y1="198.736" x2="22.6124" y2="200.145" gradientUnits="userSpaceOnUse">
<stop stop-color="#30A94A"/>
<stop offset="1" stop-color="#238832"/>
</linearGradient>
<linearGradient id="paint4_linear_22_1116" x1="0.582338" y1="214.196" x2="20.6514" y2="216.009" gradientUnits="userSpaceOnUse">
<stop stop-color="#30A94A"/>
<stop offset="1" stop-color="#238832"/>
</linearGradient>
<linearGradient id="paint5_linear_22_1116" x1="2.73914" y1="234.381" x2="19.6023" y2="237.523" gradientUnits="userSpaceOnUse">
<stop stop-color="#30A94A"/>
<stop offset="1" stop-color="#238832"/>
</linearGradient>
<linearGradient id="paint6_linear_22_1116" x1="36.7493" y1="193.903" x2="60.1922" y2="195.632" gradientUnits="userSpaceOnUse">
<stop stop-color="#30A94A"/>
<stop offset="1" stop-color="#238832"/>
</linearGradient>
<linearGradient id="paint7_linear_22_1116" x1="47.0266" y1="206.693" x2="64.8492" y2="208.347" gradientUnits="userSpaceOnUse">
<stop stop-color="#30A94A"/>
<stop offset="1" stop-color="#238832"/>
</linearGradient>
<linearGradient id="paint8_linear_22_1116" x1="43.8383" y1="221.66" x2="66.7153" y2="225.107" gradientUnits="userSpaceOnUse">
<stop stop-color="#30A94A"/>
<stop offset="1" stop-color="#238832"/>
</linearGradient>
<linearGradient id="paint9_linear_22_1116" x1="247.486" y1="244.527" x2="315.277" y2="249.107" gradientUnits="userSpaceOnUse">
<stop stop-color="#30A94A"/>
<stop offset="1" stop-color="#238832"/>
</linearGradient>
<linearGradient id="paint10_linear_22_1116" x1="276.794" y1="243.159" x2="308.18" y2="244.768" gradientUnits="userSpaceOnUse">
<stop stop-color="#30A94A"/>
<stop offset="1" stop-color="#238832"/>
</linearGradient>
<linearGradient id="paint11_linear_22_1116" x1="114.815" y1="76.3175" x2="140.231" y2="78.4366" gradientUnits="userSpaceOnUse">
<stop stop-color="#30A94A"/>
<stop offset="1" stop-color="#238832"/>
</linearGradient>
</defs>
</svg>
