<svg width="24" height="25" viewBox="0 0 24 25" fill="none" xmlns="http://www.w3.org/2000/svg">
<path d="M23.8068 10.141C23.9135 10.141 24 10.2275 24 10.3342V12.3623C24 13.1214 23.9295 13.8636 23.7942 14.5836C22.7481 20.1762 17.8211 24.4027 11.9154 24.362C5.2887 24.3163 -0.0146415 18.962 3.03692e-05 12.3353C0.0146085 5.7204 5.3817 0.362305 12 0.362305C15.2425 0.362305 18.1844 1.64865 20.3444 3.73815C20.4224 3.81357 20.4244 3.93788 20.3477 4.01457L17.4784 6.88384C17.4045 6.95771 17.2852 6.95963 17.2095 6.88759C15.8538 5.59716 14.0196 4.80493 12 4.80493C7.82947 4.80493 4.47111 8.13943 4.4428 12.3099C4.41434 16.5076 7.80884 19.9196 12 19.9196C15.4005 19.9196 18.2767 17.6732 19.2251 14.5836H12.1932C12.0865 14.5836 12 14.4971 12 14.3904V10.3341C12 10.2274 12.0865 10.1409 12.1932 10.1409H23.8068V10.141Z" fill="#2196F3"/>
<path d="M23.8064 10.1406H22.3577C22.4644 10.1406 22.5509 10.2271 22.5509 10.3338V12.3619C22.5509 13.121 22.4804 13.8633 22.3451 14.5833C21.3471 19.9187 16.8169 24.0106 11.2744 24.3403C11.4865 24.3528 11.6999 24.3601 11.9149 24.3616C17.8207 24.4023 22.7477 20.1758 23.7938 14.5833C23.929 13.8633 23.9995 13.121 23.9995 12.3619V10.3337C23.9995 10.2271 23.913 10.1406 23.8064 10.1406Z" fill="#1E88E5"/>
<path d="M5.13614 9.1974L1.4917 6.56415C3.53629 2.86613 7.47623 0.362305 12.0005 0.362305C15.243 0.362305 18.185 1.64865 20.3449 3.73815C20.4229 3.81357 20.4249 3.93788 20.3482 4.01457L17.4789 6.88384C17.4052 6.95757 17.2859 6.95987 17.2103 6.88796C15.8547 5.5973 14.0203 4.80498 12.0005 4.80498C8.95682 4.80498 6.33323 6.60423 5.13614 9.1974Z" fill="#F44336"/>
<path d="M4.08301 8.43694L5.13512 9.19712C6.22777 6.83021 8.50909 5.12555 11.2133 4.84594C11.2336 4.84373 11.2532 4.84106 11.2739 4.83909C11.0359 4.8165 10.7948 4.80469 10.5508 4.80469C7.80127 4.80469 5.40502 6.25421 4.08301 8.43694Z" fill="#E53935"/>
<path d="M18.8956 3.73815C18.9736 3.81357 18.9756 3.93788 18.8989 4.01462L16.57 6.34351C16.7931 6.5132 17.0067 6.6947 17.2093 6.88763C17.285 6.95968 17.4044 6.95776 17.4783 6.88388L20.3475 4.01462C20.4243 3.93788 20.4222 3.81362 20.3442 3.73815C18.1843 1.64865 15.2423 0.362305 11.9998 0.362305C11.7565 0.362305 11.5151 0.370414 11.2754 0.384711C14.2304 0.560727 16.8976 1.8054 18.8956 3.73815Z" fill="#E53935"/>
<path d="M20.8022 20.5177C18.6108 22.8824 15.4778 24.3625 11.9995 24.3625C7.30138 24.3625 3.23394 21.6626 1.26416 17.7294L4.98486 15.1797C6.10138 17.9578 8.82154 19.9198 11.9995 19.9198C13.9938 19.9198 15.8076 19.1472 17.1578 17.8849L20.8022 20.5177Z" fill="#4CAF50"/>
<path d="M4.98534 15.1797L3.88818 15.9315C5.16248 18.3055 7.66837 19.9198 10.5512 19.9198C10.795 19.9198 11.036 19.9078 11.2739 19.8853C8.41223 19.6125 6.01575 17.7437 4.98534 15.1797Z" fill="#43A047"/>
<path d="M11.9999 24.3627C15.4782 24.3627 18.6112 22.8827 20.8026 20.5179L19.91 19.873C17.8524 22.4338 14.7656 24.1326 11.2773 24.3409C11.5164 24.3551 11.7573 24.3627 11.9999 24.3627Z" fill="#43A047"/>
<path d="M4.44267 12.3626C4.44267 13.3583 4.63533 14.3092 4.98544 15.1798L1.26469 17.7295C0.455391 16.1147 0 14.2918 0 12.3626C0 10.2596 0.540844 8.28308 1.49119 6.56445L5.13562 9.1977C4.69088 10.1601 4.44267 11.2326 4.44267 12.3626Z" fill="#FFC107"/>
<path d="M3.88846 15.9317L4.98562 15.1798C4.63551 14.3092 4.44285 13.3583 4.44285 12.3626C4.44285 11.2326 4.69105 10.1601 5.1358 9.19767L4.08369 8.4375C3.40049 9.56555 3.00398 10.8893 2.99432 12.3102C2.98541 13.6205 3.31012 14.8543 3.88846 15.9317Z" fill="#FFB300"/>
</svg>
