<svg width="306" height="245" viewBox="0 0 306 245" fill="none" xmlns="http://www.w3.org/2000/svg">
<path d="M184.088 31.0251C189.042 30.4355 192.796 26.9995 197.33 25.434C203.694 23.2314 209.861 20.3851 216.76 20.0191C219.871 19.8497 222.805 18.623 226.038 18.6095C233.113 18.5824 239.883 19.6328 246.708 21.5846C252.726 23.306 258.208 25.9152 263.101 29.5002C271.329 35.5318 277.848 43.217 282.769 52.2305C286.631 59.3125 289.302 66.7673 291.619 74.5202C295.808 88.542 295.713 102.794 295.36 117.087C295.157 125.402 292.839 133.494 291.247 141.661C290.061 147.76 288.109 153.771 288.665 160.135C288.861 162.385 286.997 164.167 287.275 166.6C288.136 174.231 287.994 182.052 289.573 189.513C291.911 200.553 291.375 211.607 291.287 222.66C291.233 229.546 288.732 236.092 286.55 242.591C285.913 244.496 284.09 244.272 282.531 244.272C266.51 244.272 250.483 244.252 234.462 244.245C234.794 243.418 235.017 242.517 235.471 241.765C240.941 232.751 243.516 222.972 243.292 212.44C244.227 207.188 243.983 201.963 242.181 196.961C240.981 193.634 239.66 190.347 238.447 187.013C236.813 182.519 234.8 178.169 232.957 173.757L232.971 173.472C239.165 172.008 239.673 167.786 237.593 162.27C234.95 155.262 230.782 149.142 226.973 142.806C226.858 140.427 227.786 138.258 228.254 135.995C230.199 126.609 228.918 117.568 224.161 109.137C224.838 107.667 226.322 106.928 227.278 105.742C231.934 99.941 237.701 96.9252 245.291 98.1857C245.325 100.551 245.352 102.923 245.393 105.288C245.454 108.866 246.898 110.642 250.334 110.744C255.294 110.9 260.262 110.832 265.229 110.764C267.527 110.73 268.943 109.666 269.289 107.152C270.048 101.642 269.784 96.1187 269.485 90.6225C269.35 88.1421 267.547 86.4004 264.626 86.4479C261.692 86.5021 258.757 86.414 255.83 86.3869C255.864 76.2484 255.904 66.1099 255.918 55.9714C255.925 52.1221 255.233 51.3969 251.425 51.3834C238.806 51.3562 226.187 51.3562 213.568 51.3834C209.366 51.3901 208.824 52.0136 208.81 56.3713C208.77 68.4209 208.729 80.4773 208.689 92.5269C207.706 92.3032 206.669 92.2287 205.761 91.8356C200.136 89.4094 194.362 87.9253 188.168 88.4335C186.263 88.5894 184.332 88.4064 182.414 88.3861C182.278 87.661 181.933 87.1527 181.126 87.1188C180.469 83.466 183.227 81.7649 185.538 80.1452C189.021 77.7122 189.93 74.3779 188.838 70.7861C187.829 67.4653 187.836 64.1988 187.781 60.8645C187.734 58.1807 187.646 55.497 187.578 52.8201C190.472 52.1356 191.312 50.6921 190.716 47.5137C189.577 41.5295 187.063 36.2095 184.088 31.0251Z" fill="#ADD9B5" fill-opacity="0.16"/>
<path d="M55.6691 244.259C42.0133 244.265 28.3576 244.218 14.695 244.333C12.3773 244.353 10.7914 243.506 10.4187 241.46C9.70029 237.529 8.39911 233.761 7.51132 229.878C4.94281 218.634 5.95258 207.256 6.52185 196.046C6.86748 189.317 8.96161 182.425 11.3675 175.79C13.8953 168.823 16.4909 161.856 18.5783 154.7C21.4856 144.724 21.2823 134.843 19.7846 124.853C18.0158 113.088 17.0331 101.276 17.7854 89.423C18.4292 79.3048 22.0142 69.9728 26.6836 60.9932C32.3763 50.0415 40.6579 41.4956 50.8709 34.8812C55.886 31.6282 61.6329 29.7374 67.4544 28.0093C74.2383 26.0033 81.0966 25.5153 87.9889 25.5763C96.4874 25.6509 104.857 26.9385 113.064 29.4867C117.74 30.937 122.125 33.1463 126.876 34.3323C125.093 38.9 122.904 43.339 122.457 48.3337C122.328 49.7704 121.034 49.9941 120.044 50.3736C116.995 51.5392 114.04 52.8743 111.248 54.5618C100.899 60.8102 97.9105 69.5052 102.77 79.9893C103.82 82.2529 102.695 83.2423 101.387 84.53C98.4459 87.4238 96.3993 90.6835 96.013 95.0276C95.5996 99.6631 96.9279 103.865 98.2901 108.121C91.6485 108.487 85.068 107.816 78.3926 109.944C70.782 112.37 63.788 115.366 58.075 120.97C52.3619 126.575 48.7768 133.399 45.4967 140.712C42.0065 148.499 41.6203 156.55 41.7016 164.513C41.7558 170.341 41.7016 176.4 43.8703 182.309C45.4764 186.687 47.252 190.909 49.4003 194.982C52.1044 200.106 54.7813 205.107 54.3679 211.234C54.2053 213.64 52.45 215.388 52.3551 217.591C51.9892 226.638 51.6503 235.726 55.6691 244.259Z" fill="#ADD9B5" fill-opacity="0.16"/>
<path d="M55.6691 244.258C51.657 235.726 51.9891 226.638 52.3686 217.577C52.4567 215.375 54.2188 213.626 54.3814 211.22C54.7881 205.094 52.1111 200.092 49.4139 194.969C47.2655 190.896 45.4831 186.674 43.8837 182.296C41.7151 176.379 41.7693 170.327 41.7151 164.499C41.6338 156.536 42.0201 148.485 45.5103 140.698C48.7904 133.386 52.3822 126.561 58.0885 120.957C63.8015 115.352 70.7955 112.357 78.4061 109.93C85.0815 107.802 91.6621 108.473 98.3036 108.107C102.478 114.756 107.676 120.394 114.426 124.501C113.315 125.755 111.783 126.053 110.245 126.426C105.731 127.51 101.55 129.347 97.7817 132.091C86.4369 140.353 80.3579 152.097 76.19 165.028C74.8549 169.175 76.5356 171.656 80.6629 172.727C81.0356 172.821 81.3203 173.255 81.6455 173.533C80.7306 174.082 80.2766 174.882 79.9038 175.898C78.3045 180.303 76.4611 184.614 74.9091 189.032C72.6185 195.552 69.6366 201.895 70.4973 209.167C71.0123 213.518 72.5643 217.455 75.9325 219.969C85.4272 227.051 98.5204 224.28 104.444 214.263C105.528 212.427 106.395 210.346 108.293 209.072C108.395 212.447 108.496 215.815 108.598 219.19C108.354 227.56 109.093 235.875 109.994 244.177C91.8857 244.204 73.7774 244.231 55.6691 244.258Z" fill="#2C9E42" fill-opacity="0.39"/>
<path d="M114.419 124.494C107.663 120.387 102.465 114.749 98.2968 108.101C96.9346 103.845 95.6063 99.6497 96.0197 95.0074C96.406 90.6701 98.4527 87.4035 101.394 84.5097C102.702 83.2221 103.827 82.2326 102.776 79.9691C97.9173 69.485 100.899 60.7968 111.255 54.5416C114.053 52.8541 117.008 51.519 120.051 50.3533C121.041 49.9738 122.335 49.7502 122.464 48.3134C122.911 43.3187 125.1 38.8798 126.882 34.312C130.176 30.2797 133.504 26.3287 138.403 24.0516C147.993 19.5923 157.874 19.5787 168.04 21.4966C174.634 22.7436 179.622 26.3625 184.094 31.0116C187.07 36.2028 189.584 41.5161 190.716 47.5138C191.312 50.6922 190.465 52.1357 187.578 52.8202C186.609 57.3811 187.856 62.0438 187.029 66.6996C186.155 66.4353 185.436 66.1032 184.684 66.0083C181.661 65.6153 180.631 64.0159 180.997 60.973C181.309 58.3774 181.065 55.714 181.065 52.7863C174.966 57.1643 169.232 56.7848 165.254 51.6071C163.634 49.4994 163.37 49.4926 162.171 51.7833C160.476 55.0295 157.515 56.4188 153.794 56.1409C150.338 55.8834 149.545 53.3149 148.793 50.6447C148.711 50.3533 148.447 50.1094 148.203 49.757C147.783 50.0484 147.342 50.2314 147.085 50.5634C144.435 53.9587 141.25 56.08 136.696 55.1447C135.083 54.8126 135.13 55.9715 135.123 56.9745C135.096 59.7667 135.117 62.5656 135.117 65.6085C133.673 64.863 132.555 64.8359 131.437 64.9105C127.716 65.168 124.978 67.8991 124.7 71.6062C124.368 76.052 126.449 80.1588 129.837 80.1453C134.154 80.1317 134.29 82.3343 133.998 85.4585C133.903 86.448 134.12 87.4713 134.195 88.4743C133.89 91.2122 134.663 93.6859 135.727 96.2001C137.482 100.341 140.708 103.153 143.913 106.02C143.784 107.308 143.662 108.602 143.534 109.89C136.594 110.29 135.605 111.137 133.917 118.049C133.687 118.991 133.626 119.988 132.311 120.32C126.367 121.831 120.58 123.973 114.419 124.494Z" fill="#0A3338"/>
<path d="M243.299 212.44C243.522 222.965 240.947 232.744 235.478 241.765C235.017 242.517 234.8 243.418 234.468 244.245C224.452 244.184 214.435 244.116 204.419 244.055C204.71 239.108 204.941 234.161 205.313 229.22C205.537 226.333 206.438 223.473 205.537 220.559C205.537 219.983 205.544 219.407 205.551 218.824C207.346 217.13 206.472 215.043 206.411 213.07C206.526 212.393 206.642 211.722 206.764 211.044C209 212.677 210.098 215.226 211.819 217.272C217.451 223.941 227.888 225.73 235.688 221.772C239.666 219.746 241.272 215.964 243.299 212.44Z" fill="#2C9E42" fill-opacity="0.39"/>
<path d="M205.537 220.559C206.438 223.473 205.537 226.333 205.313 229.22C204.934 234.161 204.71 239.108 204.419 244.055C198.197 244.11 191.976 244.171 185.755 244.225C185.782 243.811 185.816 243.405 185.843 242.991C191.352 241.771 195.371 236.587 195.425 230.393C195.527 218.587 195.541 206.781 195.588 194.976C195.866 194.976 196.151 194.976 196.428 194.976C198.584 199.381 202.175 202.83 204.52 207.107C203.009 207.967 202.968 209.486 203.578 210.638C204.818 212.976 204.656 215.402 204.697 217.855C204.71 218.824 204.378 219.936 205.537 220.559Z" fill="#2CA043" fill-opacity="0.6"/>
<path d="M109.994 244.17C109.093 235.868 108.354 227.553 108.598 219.183C110.957 215.32 111.126 211.234 109.818 207.005C112.61 202.966 115.402 198.934 118.194 194.894L118.391 194.928C118.445 196.385 118.547 197.842 118.554 199.299C118.608 209.967 118.588 220.64 118.71 231.308C118.771 236.756 122.823 241.744 127.974 243.059C127.987 243.438 128.001 243.811 128.014 244.191C122.003 244.191 115.999 244.184 109.994 244.17Z" fill="#2CA043" fill-opacity="0.6"/>
<path d="M115.26 18.6978C111.708 17.173 106.836 19.0231 102.424 16.4614C98.8456 14.3808 97.7274 11.8259 99.4759 8.09169C100.703 5.46897 102.383 3.5985 104.694 1.78903C110.428 -2.69061 119.014 1.93812 120.6 8.00359C121.013 9.58942 122.199 10.7822 122.118 12.673C121.935 17.1933 120.634 18.7181 115.26 18.6978Z" fill="#ADD9B5" fill-opacity="0.16"/>
<path d="M6.09485 127.863C7.58581 128.371 9.03607 129.008 9.58501 130.939C10.3779 133.731 10.1949 136.686 11.4351 139.438C12.1196 140.956 10.954 142.515 9.63246 143.49C8.43292 144.378 7.17238 144.1 5.85763 143.368C1.09336 140.698 -0.438253 138.15 0.103912 133.474C0.395326 130.919 3.689 127.747 6.09485 127.863Z" fill="#ADD9B5" fill-opacity="0.16"/>
<path d="M185.843 242.991C185.816 243.405 185.782 243.811 185.755 244.225C185.029 245.234 183.945 244.957 182.969 244.957C165.986 244.97 149.003 244.963 132.013 244.957C131.132 244.957 130.189 245.14 129.478 244.374C129.485 243.893 129.485 243.411 129.491 242.93C148.271 242.951 167.057 242.971 185.843 242.991Z" fill="#E9E8F4"/>
<path d="M304.957 169.575C304.957 174.116 302.544 176.922 299.264 176.549C298.423 176.454 297.468 176.312 297.387 175.444C297.136 172.598 295.421 170.26 294.832 167.563C294.486 165.983 295.015 164.655 296.729 164.079C299.169 163.252 301.385 163.889 303.344 165.34C304.814 166.424 305.275 168.05 304.957 169.575Z" fill="#F2F9F3"/>
<path d="M129.485 242.93C129.478 243.411 129.478 243.893 129.471 244.374C128.983 244.313 128.489 244.259 128.001 244.198C127.987 243.818 127.973 243.445 127.96 243.066C128.475 243.018 128.976 242.978 129.485 242.93Z" fill="#D6D4EA"/>
<path d="M114.419 124.495C120.58 123.973 126.367 121.831 132.297 120.327C133.612 119.995 133.673 118.998 133.903 118.056C135.591 111.144 136.58 110.303 143.52 109.904C145.174 110.676 146.522 112.065 148.413 112.37C148.427 112.553 148.508 112.702 148.657 112.811C149.836 114.858 149.992 118.117 152.601 118.544C155.936 119.086 159.982 120.001 162.686 117.657C165.518 115.203 168.209 112.506 171.042 109.998C177.975 110.5 181.627 112.872 182.054 118.253C182.292 121.194 183.803 121.716 185.843 122.19C187.347 122.536 188.913 122.631 190.444 122.834C191.447 123.817 192.661 124.129 194.036 124.44C199.919 125.769 205.761 127.178 211.284 129.821C217.654 132.871 222.046 138.11 226.966 142.806C230.781 149.143 234.949 155.262 237.586 162.27C239.666 167.786 239.158 172.009 232.964 173.472C229.48 173.012 225.909 173.54 222.466 172.551C217.505 173.391 214.151 170.585 210.694 167.644C206.811 164.337 202.623 161.375 198.57 158.265C196.673 156.57 195.378 154.131 192.627 153.494C190.404 150.22 187.198 148.75 183.403 147.923C177.914 146.723 172.458 147.069 166.921 147.272C158.355 147.584 149.762 147.157 141.196 147.448C134.913 147.659 128.455 147.95 123.955 153.494C119.807 153.385 117.015 155.452 115.158 159.003C111.044 160.908 107.825 164.1 104.423 166.926C100.201 170.436 96.0468 173.5 90.1981 172.808C90.1168 173.052 90.0423 173.303 89.961 173.547C87.1824 173.54 84.4038 173.533 81.6319 173.533C81.3066 173.256 81.022 172.829 80.6493 172.734C76.522 171.663 74.8346 169.183 76.1764 165.035C80.3443 152.104 86.4301 140.36 97.7681 132.098C101.536 129.354 105.718 127.524 110.231 126.433C111.776 126.047 113.308 125.748 114.419 124.495Z" fill="#2CA043"/>
<path d="M192.64 153.493C195.392 154.124 196.686 156.57 198.584 158.265C199.14 161.05 201.274 162.9 202.704 165.164C202.731 165.719 202.874 166.187 203.545 166.234L203.558 166.153C203.301 167.963 205.239 169.23 204.758 171.134C204.595 171.778 204.941 172.537 205.625 172.767C206.859 173.188 206.615 171.927 206.981 171.392C207.557 170.545 208.234 169.86 209.278 169.65C211.67 170.721 213.446 172.991 216.252 173.262C219.498 177.593 224.459 179.395 228.64 182.357C228.85 182.133 229.054 181.91 229.264 181.679C227.353 179.172 225.441 176.657 223.232 173.757C226.776 173.757 229.874 173.757 232.964 173.757C234.814 178.169 236.82 182.526 238.453 187.013C239.666 190.347 240.988 193.634 242.188 196.962C243.99 201.956 244.234 207.188 243.299 212.44C241.273 215.964 239.666 219.746 235.682 221.772C227.881 225.73 217.451 223.941 211.813 217.272C210.085 215.233 208.987 212.678 206.757 211.051C206.676 210.848 206.588 210.651 206.479 210.461C206.716 209.445 206.188 208.876 205.327 208.503C205.056 208.035 204.785 207.574 204.514 207.107C202.169 202.83 198.577 199.381 196.422 194.969C197.872 193.614 197.73 191.492 198.835 189.954C199.248 189.385 198.814 188.673 198.211 188.856C196.307 189.439 193.528 188.775 193.25 191.967C187.524 189.371 184.65 184.77 184.386 178.65C184.278 176.054 183.498 174.814 180.848 175.194C178.564 175.519 176.416 174.679 174.207 174.428C172.309 174.218 170.513 173.072 169.321 171.724C167.999 170.226 170.906 169.582 170.771 168.071C170.764 167.963 170.798 167.847 170.812 167.739C174.078 167.522 177.507 168.295 180.503 166.214C176.321 166.763 172.275 166.871 168.684 164.235C169.199 161.951 171.435 161.931 172.96 160.962C176.03 160.528 179.093 160.067 182.17 159.674C182.848 159.586 183.722 160.555 184.196 159.457C184.542 158.644 184.657 157.607 184.115 156.875C183.376 155.865 182.441 156.801 181.702 157.038C178.849 157.939 176.104 159.376 172.973 158.292C174.491 155.167 176.599 153.195 180.462 153.439C184.508 153.697 188.581 153.493 192.64 153.493Z" fill="#F6C9C0"/>
<path d="M134.188 88.488C134.113 87.4782 133.897 86.4617 133.991 85.4722C134.29 82.348 134.147 80.1455 129.83 80.159C126.442 80.1726 124.361 76.0657 124.693 71.6199C124.971 67.9196 127.709 65.1817 131.43 64.9242C132.548 64.8496 133.666 64.87 135.11 65.6222C135.11 62.5861 135.089 59.7872 135.116 56.9882C135.13 55.9852 135.076 54.8264 136.689 55.1584C141.243 56.0937 144.428 53.9724 147.078 50.5771C147.335 50.2451 147.783 50.0621 148.196 49.7707C148.44 50.1231 148.704 50.367 148.786 50.6585C149.538 53.3286 150.331 55.8971 153.787 56.1547C157.508 56.4325 160.469 55.0432 162.164 51.797C163.363 49.5064 163.628 49.5131 165.247 51.6208C169.219 56.7985 174.952 57.178 181.058 52.8C181.058 55.7277 181.309 58.3911 180.99 60.9867C180.624 64.0296 181.654 65.629 184.677 66.0221C185.429 66.1169 186.148 66.449 187.022 66.7133C187.849 62.0643 186.595 57.3949 187.571 52.8339C187.639 55.5176 187.727 58.2013 187.774 60.8783C187.828 64.2126 187.822 67.4791 188.831 70.7999C189.923 74.3917 189.021 77.726 185.531 80.159C183.22 81.7719 180.462 83.473 181.119 87.1326L180.929 87.1462C177.371 97.2643 170.764 103.628 159.656 104.509C155.841 104.814 152.167 104.326 148.515 103.187C141.06 100.856 136.973 95.3261 134.188 88.488ZM159.134 80.3217C162.746 80.2674 165.132 77.3533 163.939 74.4324C162.719 71.4437 161.337 68.5228 160.097 65.5409C159.704 64.5989 159.344 63.806 158.192 64.4362C157.311 64.9242 157.548 65.5815 157.914 66.4219C159.033 68.9633 159.981 71.5792 161.012 74.1545C161.865 76.2961 161.134 77.5973 158.965 78.214C158.131 78.4512 156.559 77.8412 156.891 79.5423C157.115 80.6944 158.382 80.1793 159.134 80.3217ZM144.787 61.888C147.017 61.3865 149.091 61.007 151.11 60.4378C152.276 60.1125 152.852 59.3738 151.632 58.3301C149.674 56.6358 144.882 57.3813 143.567 59.5567C143.262 60.065 143.079 60.5259 143.31 61.1087C143.628 61.9152 144.293 61.9084 144.787 61.888ZM168.839 60.126C169.957 59.611 172.668 61.5627 172.743 59.2857C172.824 56.9001 170.032 56.5545 167.829 56.5884C167.382 56.5952 166.901 56.5884 166.501 56.7578C165.383 57.239 163.905 57.7405 164.068 59.1366C164.251 60.7224 165.844 59.9363 166.833 60.1057C167.389 60.2073 167.965 60.126 168.839 60.126ZM149.457 74.3104C150.338 73.7886 152.188 75.1033 152.052 72.9076C151.944 71.2065 151.307 69.1869 149.497 69.1802C147.681 69.1666 147.051 71.1997 146.908 72.8872C146.719 75.1033 148.576 73.8021 149.457 74.3104ZM183.051 76.5739C183.83 75.8352 184.25 75.6116 184.237 75.4083C184.142 73.8157 184.481 72.3586 185.355 71.01C185.416 70.9151 185.09 70.3865 184.86 70.3187C183.877 70.0137 183.057 70.4204 182.597 71.2675C182.115 72.1553 180.523 72.6026 181.329 74.0258C181.817 74.9 182.447 75.6929 183.051 76.5739ZM168.887 72.1485C169.042 71.01 168.988 70.0205 167.497 70.1086C165.186 70.2442 166.21 71.8232 166.183 73.0431C166.155 74.1545 166.874 73.4294 167.084 73.4362C167.958 73.4429 169.334 73.9512 168.887 72.1485ZM130.095 73.2938C129.979 73.8089 129.119 74.7441 130.549 74.8255C131.565 74.8865 132.636 74.0461 132.609 73.0228C132.568 71.2404 130.793 69.0243 129.912 69.3428C126.903 70.4407 131.613 71.6945 130.095 73.2938ZM159.426 94.4586C158.531 95.0482 156.627 93.7606 156.417 95.2854C156.186 96.9593 158.077 96.5527 159.182 96.573C160.334 96.5934 162.157 96.9865 162.238 95.4819C162.313 93.8826 160.503 94.8856 159.426 94.4586Z" fill="#F2C6BD"/>
<path d="M208.688 92.5337C208.729 80.4841 208.77 68.4277 208.81 56.3781C208.824 52.0205 209.366 51.397 213.568 51.3902C226.187 51.3631 238.806 51.3631 251.424 51.3902C255.233 51.397 255.918 52.1289 255.918 55.9783C255.904 66.1168 255.857 76.2552 255.829 86.3937C254.372 86.4412 252.915 86.5089 251.458 86.5361C247.284 86.6106 245.637 88.2777 245.542 92.4795C245.501 94.3839 245.379 96.2815 245.291 98.179C237.701 96.9185 231.934 99.9411 227.278 105.735C226.322 106.921 224.838 107.66 224.16 109.131C223.13 109.558 222.249 110.493 220.975 110.08C220.982 107.064 220.873 104.041 221.029 101.039C221.151 98.6467 220.135 97.8266 217.871 97.9418C215.533 98.0638 213.181 98.0232 210.837 98.0503C208.139 96.9863 209.047 94.5126 208.688 92.5337ZM214.883 85.2552C214.883 85.384 214.835 85.7296 214.889 86.0616C215.038 86.9969 214.34 88.3184 215.56 88.7725C216.977 89.3011 217.071 87.7559 217.539 86.9901C219.233 84.2115 221.605 82.3275 224.56 81.006C226.952 79.9352 229.602 79.759 231.751 80.5926C233.445 81.2499 232.279 83.8456 232.523 85.5602C232.584 86.0007 232.53 86.4615 232.537 86.9088C232.55 87.7153 232.598 88.5624 233.54 88.8199C234.285 89.0165 234.719 88.4201 235.221 87.9525C239.49 84.0421 243.739 80.1046 248.11 76.3095C249.771 74.8659 249.52 73.6529 248.151 72.4059C244.763 69.3291 241.32 66.3133 237.891 63.2839C236.454 62.0166 235.492 59.0889 233.391 60.0174C231.398 60.8984 232.686 63.6906 232.584 65.622C232.483 67.5467 232.245 68.6853 229.873 68.9021C219.172 69.8848 215.54 74.7507 214.883 85.2552Z" fill="#27B998"/>
<path d="M208.689 92.5338C209.048 94.5127 208.14 96.9863 210.837 98.0503C211.108 98.2265 211.372 98.5179 211.664 98.5586C219.342 99.6362 219.335 99.6294 219.633 107.552C219.674 108.582 219.247 109.917 220.975 110.08C222.256 110.486 223.137 109.558 224.161 109.131C228.918 117.568 230.199 126.602 228.254 135.988C227.786 138.252 226.858 140.414 226.973 142.799C222.053 138.103 217.661 132.857 211.291 129.814C205.768 127.171 199.926 125.762 194.043 124.433C192.674 124.122 191.454 123.81 190.451 122.834C191.922 120.415 192.647 117.731 193.216 115C194.836 107.165 193.915 100.158 187.104 94.7838C185.064 93.1776 182.746 91.5579 182.129 88.6844C182.224 88.5828 182.319 88.4879 182.421 88.393C184.339 88.4201 186.27 88.6031 188.174 88.4405C194.375 87.9322 200.149 89.4164 205.768 91.8425C206.669 92.2356 207.713 92.3169 208.689 92.5338Z" fill="#2C9E42" fill-opacity="0.39"/>
<path d="M245.291 98.1788C245.379 96.2812 245.501 94.3768 245.542 92.4793C245.63 88.2775 247.284 86.6103 251.458 86.5358C252.915 86.5087 254.373 86.4409 255.83 86.3935C258.764 86.4206 261.699 86.5087 264.626 86.4545C267.547 86.4002 269.357 88.1487 269.485 90.6291C269.784 96.1185 270.048 101.649 269.289 107.158C268.943 109.673 267.527 110.737 265.229 110.771C260.269 110.838 255.294 110.906 250.333 110.75C246.897 110.642 245.454 108.873 245.393 105.295C245.352 102.916 245.325 100.551 245.291 98.1788ZM257.47 104.746C260.838 104.786 264.01 101.642 263.4 98.4702C263.034 96.5591 262.742 95.0274 264.572 93.7669C265.006 93.4687 265.141 92.7503 264.653 92.2692C264.267 91.8897 263.759 92.0794 263.488 92.4318C262.241 94.0312 260.967 93.55 259.367 92.8859C257.083 91.9303 254.881 92.5809 253.309 94.5056C251.879 96.2541 250.577 98.2262 251.858 100.612C253.044 102.835 254.535 104.807 257.47 104.746Z" fill="#F8C1A1"/>
<path d="M232.957 173.757C229.867 173.757 226.769 173.757 223.225 173.757C225.434 176.657 227.346 179.165 229.257 181.679C229.047 181.903 228.843 182.127 228.633 182.357C224.458 179.395 219.491 177.593 216.245 173.262C218.264 172.551 220.494 173.648 222.466 172.551C225.909 173.54 229.48 173.011 232.964 173.472C232.97 173.472 232.957 173.757 232.957 173.757Z" fill="#F8AD9D"/>
<path d="M181.119 87.1325C181.925 87.1664 182.278 87.6747 182.407 88.3999C182.312 88.4947 182.217 88.5964 182.122 88.6913C181.756 88.6506 181.383 88.6167 181.017 88.5761C180.99 88.0949 180.956 87.6205 180.929 87.1393L181.119 87.1325Z" fill="#D6D4EA"/>
<path d="M115.165 158.996C117.028 155.445 119.814 153.378 123.968 153.487C127.35 153.487 130.732 153.52 134.113 153.487C137.549 153.46 139.854 154.998 141.006 158.251C137.692 159.342 134.716 157.81 131.646 157.031C130.711 156.794 129.783 156.76 129.6 158.014C129.464 158.922 129.905 159.464 130.887 159.586C134.303 160.02 137.705 160.494 141.114 160.948C142.517 161.423 143.872 161.958 144.448 163.517C144.211 164.005 144.089 164.615 143.723 164.96C141.649 166.898 139.23 166.397 136.729 166.017C134.947 165.746 133.11 164.242 130.976 165.712C135.116 168.369 139.46 167.644 143.683 167.705C144.835 171.778 144.211 173.269 140.572 174.279C138.647 174.814 136.594 175.18 134.608 175.139C131.877 175.085 129.796 175.078 129.891 178.806C129.932 180.493 129.051 182.296 128.258 183.889C126.55 187.324 125.154 191.154 120.627 191.96C120.41 191.262 121.921 190.415 121.047 190.239C119.041 189.839 117.089 188.585 114.006 189.371C117.177 190.537 115.456 194.061 118.214 194.901C115.422 198.94 112.63 202.973 109.838 207.012C109.072 207.507 108.632 208.245 108.313 209.072C106.422 210.346 105.555 212.427 104.464 214.263C98.5406 224.28 85.4473 227.052 75.9526 219.97C72.5844 217.462 71.0393 213.518 70.5174 209.167C69.65 201.895 72.6318 195.552 74.9293 189.032C76.4812 184.614 78.3246 180.297 79.924 175.898C80.2967 174.882 80.7508 174.075 81.6657 173.533C84.4443 173.533 87.2229 173.54 90.0015 173.547C90.8215 174.15 90.3539 174.638 89.8998 175.187C88.3479 177.05 86.8027 178.914 85.3049 180.818C85.0677 181.117 84.9255 181.679 85.0407 182.018C85.2169 182.54 85.7929 182.492 86.1453 182.187C89.9269 178.853 94.9419 177.186 98.283 173.255C100.784 172.74 102.485 170.822 104.62 169.663C105.433 169.833 106.124 170.206 106.382 171.046C106.612 171.805 106.734 172.794 107.629 172.849C108.855 172.923 108.591 171.534 109.065 170.863C110.116 169.372 110.353 167.576 110.489 165.787C112.481 163.828 114.243 161.7 115.165 158.996ZM129.945 167.122C129.817 167.027 129.688 166.912 129.546 166.858C129.498 166.837 129.315 167 129.322 167.048C129.356 167.203 129.451 167.352 129.519 167.502C129.661 167.38 129.803 167.251 129.945 167.122Z" fill="#F6C9C0"/>
<path d="M108.286 209.065C108.605 208.238 109.039 207.5 109.811 207.005C111.119 211.234 110.95 215.32 108.591 219.183C108.49 215.815 108.388 212.44 108.286 209.065Z" fill="url(#paint0_linear_25_2520)"/>
<path d="M180.929 87.1391C180.957 87.6203 180.99 88.0947 181.018 88.5759C180.448 96.0306 176.674 101.635 170.899 106.081C169.375 105.986 168.656 106.671 167.945 108.121C164.739 114.627 159.636 116.809 153.171 114.81C151.578 114.315 150.501 112.709 148.664 112.804C148.515 112.695 148.434 112.546 148.42 112.363C148.223 109.32 146.936 107.057 143.906 106.027C140.694 103.16 137.468 100.348 135.72 96.2068C134.656 93.6925 133.89 91.2189 134.188 88.481C136.974 95.319 141.067 100.849 148.515 103.174C152.168 104.312 155.841 104.8 159.656 104.495C170.771 103.628 177.372 97.2573 180.929 87.1391Z" fill="#F8AD9D"/>
<path d="M143.907 106.034C146.929 107.064 148.224 109.327 148.42 112.37C146.529 112.065 145.181 110.676 143.527 109.903C143.649 108.609 143.778 107.321 143.907 106.034Z" fill="#F2C6BD"/>
<path d="M206.479 210.461C206.588 210.651 206.676 210.848 206.757 211.051C206.642 211.729 206.527 212.4 206.411 213.077C204.439 214.744 205.625 216.879 205.551 218.831C205.544 219.407 205.544 219.983 205.537 220.566C204.385 219.942 204.71 218.831 204.697 217.869C204.656 215.409 204.819 212.982 203.579 210.651C202.969 209.499 203.009 207.974 204.521 207.12C204.792 207.588 205.063 208.049 205.334 208.516C205.354 209.363 205.334 210.251 206.479 210.461Z" fill="url(#paint1_linear_25_2520)"/>
<path d="M205.544 218.831C205.618 216.879 204.432 214.745 206.404 213.077C206.465 215.043 207.34 217.137 205.544 218.831Z" fill="#7E7BBA"/>
<path d="M120.607 191.953C125.141 191.147 126.53 187.318 128.238 183.882C129.031 182.289 129.912 180.486 129.871 178.799C129.776 175.072 131.864 175.072 134.588 175.133C136.574 175.173 138.627 174.807 140.552 174.272C144.191 173.262 144.815 171.771 143.663 167.698C145.282 166.553 148.257 165.651 144.428 163.51C143.852 161.958 142.497 161.423 141.094 160.941C141.06 160.04 141.026 159.139 140.992 158.237C139.847 154.984 137.536 153.446 134.1 153.473C130.718 153.5 127.337 153.473 123.955 153.473C128.462 147.936 134.92 147.645 141.196 147.428C149.762 147.137 158.355 147.563 166.921 147.252C172.458 147.048 177.914 146.703 183.403 147.902C187.192 148.729 190.404 150.2 192.627 153.473C188.567 153.473 184.494 153.676 180.448 153.419C176.585 153.175 174.478 155.14 172.96 158.271C172.953 159.166 172.953 160.054 172.946 160.948C171.428 161.911 169.185 161.938 168.67 164.221C167.159 166.736 169.463 166.939 170.798 167.725C170.784 167.834 170.744 167.949 170.757 168.057C170.893 169.569 167.985 170.212 169.307 171.71C170.5 173.066 172.296 174.204 174.193 174.414C176.409 174.665 178.551 175.505 180.835 175.18C183.491 174.8 184.264 176.041 184.372 178.636C184.637 184.763 187.51 189.358 193.237 191.96C194.016 192.963 194.789 193.959 195.568 194.962C195.521 206.768 195.507 218.574 195.405 230.379C195.351 236.58 191.332 241.758 185.823 242.978C167.037 242.957 148.251 242.937 129.465 242.917C128.956 242.964 128.448 243.005 127.947 243.052C122.796 241.738 118.743 236.75 118.682 231.301C118.56 220.634 118.581 209.96 118.526 199.293C118.52 197.836 118.418 196.379 118.364 194.922C118.73 193.647 119.577 192.733 120.607 191.953ZM138.282 209.038C137.414 209.065 136.967 209.526 136.913 210.38C135.943 211.451 136.154 212.576 136.974 213.728C136.974 212.63 136.974 211.532 136.974 210.434C137.834 210.38 138.282 209.926 138.315 209.065C138.404 208.964 138.492 208.862 138.58 208.76C138.478 208.855 138.383 208.95 138.282 209.038ZM142.368 208.374C142.26 207.249 141.596 206.897 140.586 207.161C140.369 207.215 140.03 207.676 140.084 207.778C140.599 208.794 141.582 208.211 142.361 208.388C143.845 209.892 144.625 211.715 144.835 213.809C144.537 211.756 146.699 208.577 142.368 208.374ZM144.469 183.543L144.51 183.604C143.439 181.408 141.704 181.056 139.529 181.733C137.644 182.316 136.418 183.394 136.289 185.474C136.154 187.663 137.333 189.066 139.108 190.001C140.762 190.876 142.436 190.571 143.751 189.297C145.458 187.623 145.594 185.63 144.469 183.543ZM144.367 196.839L144.415 196.887C143.249 193.736 140.762 194.285 138.566 195.111C136.337 195.952 135.639 198.988 136.885 201.156C138.309 203.644 140.471 204.01 142.931 202.973C145.255 201.99 145.736 199.72 144.367 196.839ZM164.007 187.901C167.938 187.901 171.875 187.887 175.806 187.907C177.385 187.914 178.951 187.697 178.876 185.725C178.808 184.072 177.392 183.645 175.928 183.645C167.836 183.638 159.744 183.631 151.653 183.645C150.094 183.645 148.501 184.038 148.576 185.922C148.65 187.887 150.372 187.894 151.87 187.894C155.915 187.901 159.961 187.901 164.007 187.901ZM164.041 201.021C168.101 201.021 172.16 201.014 176.22 201.028C177.568 201.034 178.856 200.784 178.883 199.157C178.91 197.429 177.656 196.948 176.125 196.955C167.891 196.961 159.663 196.955 151.429 196.961C149.965 196.961 148.549 197.307 148.569 199.069C148.589 200.912 150.121 201.014 151.524 201.021C155.699 201.028 159.867 201.021 164.041 201.021ZM163.526 214.433C167.701 214.433 171.882 214.412 176.057 214.446C177.595 214.46 178.876 214.06 178.876 212.325C178.869 210.488 177.439 210.333 175.976 210.339C167.85 210.353 159.717 210.346 151.592 210.339C150.162 210.339 148.637 210.434 148.576 212.237C148.508 214.243 150.101 214.439 151.673 214.433C155.624 214.426 159.575 214.433 163.526 214.433ZM144.028 216.08C144.211 215.504 143.886 215.327 143.581 215.307C143.303 215.287 142.849 215.395 142.761 215.585C142.531 216.073 142.856 216.391 143.344 216.385C143.608 216.385 143.873 216.154 144.028 216.08Z" fill="#FCFBFD"/>
<path d="M195.581 194.976C194.802 193.973 194.029 192.977 193.25 191.974C193.535 188.782 196.307 189.446 198.211 188.863C198.807 188.68 199.241 189.392 198.834 189.961C197.73 191.499 197.872 193.62 196.422 194.976C196.144 194.976 195.859 194.976 195.581 194.976Z" fill="#F8AD9D"/>
<path d="M120.607 191.953C119.577 192.733 118.73 193.648 118.391 194.935C118.391 194.935 118.188 194.901 118.194 194.901C115.443 194.061 117.157 190.537 113.993 189.371C117.076 188.585 119.028 189.839 121.034 190.239C121.895 190.415 120.383 191.255 120.607 191.953Z" fill="#F8AD9D"/>
<path d="M170.9 106.088C176.674 101.642 180.455 96.0374 181.018 88.5826C181.384 88.6233 181.756 88.6572 182.122 88.6978C182.739 91.5713 185.057 93.191 187.097 94.7972C193.915 100.171 194.829 107.179 193.21 115.013C192.647 117.744 191.915 120.428 190.445 122.847C188.906 122.637 187.348 122.549 185.843 122.204C183.796 121.729 182.285 121.207 182.055 118.266C181.628 112.885 177.975 110.513 171.042 110.012C170.995 108.69 170.947 107.389 170.9 106.088Z" fill="#0A3338"/>
<path d="M170.899 106.088C170.947 107.389 170.994 108.697 171.048 109.998C168.215 112.499 165.525 115.203 162.692 117.656C159.981 120.001 155.935 119.093 152.608 118.544C149.999 118.117 149.843 114.857 148.664 112.811C150.5 112.716 151.578 114.322 153.17 114.817C159.636 116.816 164.739 114.634 167.944 108.128C168.656 106.677 169.374 105.993 170.899 106.088Z" fill="#F2C6BD"/>
<path d="M222.473 172.551C220.494 173.648 218.271 172.551 216.251 173.262C213.446 172.991 211.67 170.721 209.278 169.65C207.536 168.22 205.91 166.593 203.558 166.153L203.544 166.234C203.571 165.638 203.226 165.326 202.704 165.164C201.274 162.9 199.139 161.05 198.584 158.264C202.636 161.375 206.824 164.337 210.708 167.644C214.164 170.585 217.512 173.391 222.473 172.551Z" fill="url(#paint2_linear_25_2520)"/>
<path d="M104.593 169.657C102.458 170.809 100.75 172.734 98.256 173.242C95.5723 173.093 92.8954 172.95 90.2117 172.801C96.0603 173.493 100.215 170.429 104.437 166.919C107.839 164.093 111.058 160.901 115.172 158.996C114.243 161.707 112.481 163.829 110.468 165.78C108.327 166.797 106.429 168.173 104.593 169.657Z" fill="url(#paint3_linear_25_2520)"/>
<path d="M90.2119 172.801C92.8956 172.95 95.5793 173.093 98.2562 173.242C94.9152 177.179 89.9001 178.84 86.1185 182.181C85.7661 182.492 85.19 182.533 85.0138 182.011C84.8986 181.672 85.041 181.11 85.2782 180.812C86.7759 178.907 88.3211 177.037 89.873 175.18C90.3271 174.631 90.7947 174.15 89.9747 173.54C90.056 173.296 90.1306 173.045 90.2119 172.801Z" fill="#F8AD9D"/>
<path d="M172.96 160.962C172.967 160.067 172.967 159.179 172.973 158.285C176.104 159.362 178.849 157.932 181.702 157.031C182.441 156.8 183.376 155.865 184.115 156.868C184.657 157.607 184.542 158.644 184.196 159.45C183.729 160.548 182.854 159.579 182.17 159.667C179.093 160.067 176.03 160.528 172.96 160.962Z" fill="#F8AD9D"/>
<path d="M170.818 167.739C169.476 166.953 167.179 166.749 168.69 164.235C172.289 166.871 176.328 166.763 180.509 166.214C177.507 168.295 174.085 167.522 170.818 167.739Z" fill="#F8AD9D"/>
<path d="M203.558 166.153C205.91 166.594 207.536 168.22 209.278 169.65C208.228 169.86 207.557 170.545 206.974 171.392C206.601 171.934 206.852 173.188 205.618 172.768C204.934 172.537 204.588 171.778 204.751 171.134C205.232 169.23 203.294 167.963 203.558 166.153Z" fill="#F8AD9D"/>
<path d="M206.479 210.461C205.334 210.258 205.361 209.363 205.327 208.503C206.188 208.875 206.71 209.445 206.479 210.461Z" fill="#7E7BBA"/>
<path d="M202.704 165.157C203.226 165.326 203.572 165.631 203.545 166.228C202.874 166.18 202.732 165.712 202.704 165.157Z" fill="#F8AD9D"/>
<path d="M159.134 80.3214C158.382 80.1791 157.115 80.6941 156.898 79.5488C156.566 77.8477 158.138 78.4577 158.972 78.2205C161.14 77.6105 161.872 76.3026 161.018 74.161C159.988 71.579 159.039 68.963 157.921 66.4284C157.548 65.588 157.311 64.9307 158.199 64.4427C159.344 63.8124 159.71 64.6054 160.103 65.5474C161.344 68.5293 162.726 71.4502 163.946 74.4389C165.132 77.353 162.746 80.2672 159.134 80.3214Z" fill="#F69783"/>
<path d="M144.788 61.888C144.293 61.9084 143.629 61.9084 143.317 61.1087C143.087 60.5259 143.269 60.065 143.574 59.5567C144.889 57.3745 149.681 56.6358 151.639 58.3301C152.852 59.3805 152.283 60.1192 151.117 60.4378C149.091 61.007 147.017 61.3933 144.788 61.888Z" fill="#374B4D"/>
<path d="M168.84 60.1257C167.965 60.1257 167.389 60.2002 166.847 60.1121C165.858 59.9427 164.265 60.7288 164.082 59.143C163.919 57.7469 165.397 57.2454 166.515 56.7642C166.908 56.5948 167.396 56.6016 167.843 56.5948C170.039 56.5609 172.838 56.9066 172.757 59.2921C172.669 61.5624 169.958 59.6106 168.84 60.1257Z" fill="#374B4D"/>
<path d="M149.457 74.3104C148.576 73.8021 146.719 75.1033 146.902 72.8804C147.044 71.1929 147.674 69.1598 149.491 69.1734C151.3 69.1869 151.944 71.2065 152.046 72.9008C152.188 75.1033 150.344 73.7886 149.457 74.3104Z" fill="#F69783"/>
<path d="M183.051 76.5739C182.448 75.6929 181.818 74.9 181.33 74.0325C180.523 72.6025 182.116 72.162 182.597 71.2742C183.058 70.4271 183.878 70.0205 184.86 70.3255C185.084 70.3932 185.416 70.9218 185.355 71.0167C184.481 72.3653 184.149 73.8224 184.237 75.415C184.25 75.6116 183.83 75.8352 183.051 76.5739Z" fill="#F69783"/>
<path d="M168.887 72.1482C169.334 73.9509 167.958 73.4494 167.084 73.4291C166.874 73.4223 166.156 74.1475 166.183 73.036C166.21 71.8161 165.186 70.2371 167.497 70.1015C168.988 70.0134 169.043 71.0097 168.887 72.1482Z" fill="#374B4D"/>
<path d="M130.095 73.2937C131.606 71.6876 126.903 70.4406 129.918 69.3427C130.799 69.0242 132.575 71.2403 132.616 73.0227C132.636 74.046 131.572 74.8796 130.556 74.8254C129.119 74.744 129.986 73.8156 130.095 73.2937Z" fill="#F69783"/>
<path d="M159.426 94.4585C160.503 94.8786 162.313 93.8824 162.232 95.4818C162.15 96.9795 160.327 96.5932 159.175 96.5729C158.07 96.5526 156.186 96.9592 156.41 95.2853C156.627 93.7604 158.538 95.0548 159.426 94.4585Z" fill="#F8AD9D"/>
<path d="M214.883 85.2551C215.54 74.7439 219.173 69.878 229.88 68.9089C232.252 68.692 232.49 67.5535 232.591 65.6288C232.693 63.6973 231.398 60.9052 233.398 60.0241C235.499 59.0957 236.461 62.0234 237.898 63.2907C241.327 66.32 244.77 69.3358 248.158 72.4126C249.527 73.6596 249.778 74.8727 248.117 76.3162C243.746 80.1181 239.504 84.0488 235.227 87.9592C234.719 88.42 234.285 89.0232 233.547 88.8266C232.598 88.5759 232.557 87.722 232.544 86.9155C232.537 86.4682 232.591 86.0074 232.53 85.5669C232.286 83.8523 233.452 81.2567 231.758 80.5993C229.609 79.7657 226.966 79.9419 224.567 81.0127C221.612 82.3342 219.24 84.2182 217.546 86.9968C217.078 87.7626 216.977 89.3078 215.567 88.7792C214.347 88.3251 215.045 87.0036 214.896 86.0684C214.835 85.7363 214.883 85.3907 214.883 85.2551ZM234.468 62.2877C234.468 64.0565 234.374 64.741 234.482 65.3916C235.092 68.9495 233.919 70.7251 230.023 70.6709C228.179 70.6438 226.302 71.4435 224.479 72.006C219.572 73.524 216.733 78.024 217.282 83.6829C220.304 80.5383 223.971 78.9728 227.996 78.3967C234.313 77.4886 234.401 77.6445 234.475 83.8726C234.482 84.5029 234.55 85.1264 234.618 86.1904C238.657 82.5308 242.371 79.1761 246.064 75.8079C246.965 74.9811 247.033 74.0527 246.111 73.1852C242.459 69.7492 238.792 66.3336 234.468 62.2877Z" fill="#C4E6E0"/>
<path d="M220.975 110.086C219.254 109.924 219.674 108.589 219.633 107.558C219.335 99.6361 219.342 99.6429 211.663 98.5653C211.372 98.5247 211.114 98.2332 210.837 98.057C213.181 98.0299 215.533 98.0706 217.871 97.9486C220.128 97.8334 221.151 98.6534 221.029 101.046C220.873 104.055 220.975 107.077 220.975 110.086Z" fill="#C4E6E0"/>
<path d="M257.47 104.739C254.535 104.807 253.044 102.835 251.852 100.605C250.577 98.2195 251.872 96.2474 253.302 94.4989C254.874 92.5742 257.077 91.9304 259.361 92.8792C260.96 93.5434 262.234 94.0245 263.481 92.4251C263.752 92.0727 264.267 91.883 264.647 92.2625C265.135 92.7437 264.999 93.4552 264.565 93.7602C262.735 95.0207 263.027 96.5524 263.393 98.4635C264.01 101.642 260.838 104.78 257.47 104.739ZM261.468 97.6774C260.079 98.0772 259.32 99.1141 258.31 99.7444C257.314 100.361 256.372 99.8596 255.606 99.0667C255.118 98.5651 254.549 97.84 255.003 97.3114C256.006 96.1457 256.331 97.7316 257.009 97.9552C258.229 98.3551 258.656 97.1284 259.225 96.41C259.679 95.8272 259.638 94.9462 258.832 94.77C257.558 94.4921 255.843 93.9839 255.077 95.2444C254.223 96.6405 252.143 97.8332 253.214 99.9138C254.406 102.232 256.44 103.316 259.049 102.638C261.563 101.974 261.719 100.002 261.468 97.6774Z" fill="#F8C1A1"/>
<path d="M144.435 163.517C148.257 165.658 145.289 166.56 143.669 167.705C139.44 167.644 135.103 168.369 130.962 165.713C133.104 164.242 134.934 165.74 136.716 166.017C139.217 166.397 141.636 166.905 143.71 164.96C144.076 164.615 144.198 164.005 144.435 163.517Z" fill="#F8C1A1"/>
<path d="M140.999 158.251C141.033 159.152 141.067 160.054 141.101 160.955C137.692 160.494 134.283 160.02 130.874 159.593C129.891 159.471 129.458 158.929 129.586 158.02C129.769 156.767 130.705 156.801 131.633 157.038C134.71 157.81 137.678 159.335 140.999 158.251Z" fill="#F8AD9D"/>
<path d="M104.593 169.657C106.429 168.179 108.327 166.797 110.461 165.78C110.326 167.569 110.089 169.365 109.038 170.856C108.564 171.534 108.828 172.916 107.602 172.842C106.7 172.788 106.585 171.798 106.355 171.039C106.097 170.199 105.413 169.826 104.593 169.657Z" fill="#F8AD9D"/>
<path d="M129.945 167.128C129.803 167.257 129.661 167.386 129.518 167.507C129.451 167.359 129.356 167.21 129.322 167.054C129.315 167 129.498 166.844 129.545 166.864C129.688 166.919 129.809 167.034 129.945 167.128Z" fill="#F8C1A1"/>
<path d="M164.007 187.9C159.961 187.9 155.915 187.9 151.869 187.9C150.365 187.9 148.65 187.894 148.576 185.928C148.501 184.044 150.094 183.651 151.653 183.651C159.744 183.631 167.836 183.638 175.928 183.651C177.392 183.651 178.808 184.078 178.876 185.732C178.957 187.704 177.385 187.921 175.806 187.914C171.875 187.887 167.945 187.9 164.007 187.9Z" fill="url(#paint4_linear_25_2520)"/>
<path d="M164.041 201.021C159.866 201.021 155.698 201.028 151.524 201.014C150.121 201.007 148.582 200.906 148.569 199.062C148.549 197.3 149.972 196.955 151.429 196.955C159.663 196.948 167.89 196.955 176.124 196.948C177.656 196.948 178.917 197.422 178.883 199.15C178.856 200.777 177.568 201.028 176.219 201.021C172.16 201.014 168.1 201.021 164.041 201.021Z" fill="url(#paint5_linear_25_2520)"/>
<path d="M163.526 214.433C159.575 214.433 155.624 214.433 151.673 214.433C150.101 214.433 148.508 214.243 148.576 212.237C148.637 210.434 150.169 210.332 151.592 210.339C159.717 210.346 167.85 210.353 175.976 210.339C177.439 210.339 178.869 210.495 178.876 212.325C178.883 214.06 177.595 214.46 176.057 214.446C171.882 214.406 167.701 214.433 163.526 214.433Z" fill="url(#paint6_linear_25_2520)"/>
<path d="M138.281 209.039C138.383 208.95 138.485 208.862 138.58 208.774C138.492 208.876 138.404 208.977 138.315 209.079C138.315 209.073 138.281 209.039 138.281 209.039Z" fill="#E9E8F4"/>
<path d="M234.468 62.2876C238.799 66.3335 242.458 69.7491 246.104 73.1783C247.026 74.0458 246.965 74.9742 246.057 75.801C242.364 79.176 238.65 82.5307 234.611 86.1835C234.543 85.1263 234.475 84.496 234.468 83.8658C234.394 77.6376 234.312 77.4885 227.989 78.3899C223.964 78.9659 220.297 80.5314 217.275 83.676C216.726 78.0172 219.565 73.5172 224.472 71.9991C226.295 71.4366 228.172 70.6369 230.016 70.664C233.913 70.7183 235.092 68.9427 234.475 65.3847C234.367 64.7409 234.468 64.0496 234.468 62.2876Z" fill="#27B998"/>
<path d="M261.468 97.6776C261.719 99.9953 261.556 101.974 259.042 102.625C256.433 103.303 254.406 102.218 253.207 99.9005C252.136 97.8199 254.223 96.6271 255.071 95.2311C255.836 93.9773 257.544 94.4788 258.825 94.7567C259.638 94.9329 259.679 95.8207 259.218 96.3967C258.656 97.1219 258.229 98.3485 257.002 97.9419C256.324 97.7182 255.999 96.1324 254.996 97.2981C254.542 97.8267 255.111 98.5518 255.599 99.0533C256.365 99.8462 257.307 100.348 258.303 99.731C259.32 99.1143 260.079 98.0774 261.468 97.6776Z" fill="#F8C1A1"/>
<circle cx="140.793" cy="185.919" r="4.51261" fill="url(#paint7_linear_25_2520)"/>
<circle cx="140.793" cy="199.457" r="4.51261" fill="url(#paint8_linear_25_2520)"/>
<circle cx="140.793" cy="212.995" r="4.51261" fill="url(#paint9_linear_25_2520)"/>
<path d="M142.598 185.017L140.192 187.424L138.988 186.22" stroke="#FCFBFD" stroke-width="0.601681" stroke-linecap="round" stroke-linejoin="round"/>
<path d="M142.598 198.555L140.192 200.961L138.988 199.758" stroke="#FCFBFD" stroke-width="0.601681" stroke-linecap="round" stroke-linejoin="round"/>
<path d="M142.598 212.092L140.192 214.499L138.988 213.296" stroke="#FCFBFD" stroke-width="0.601681" stroke-linecap="round" stroke-linejoin="round"/>
<path d="M253.293 92.0572C251.972 92.0572 250.901 93.1282 250.901 94.4495V100.098C250.901 102.635 252.958 104.692 255.495 104.692H261.144C262.465 104.692 263.536 103.621 263.536 102.3V99.027C263.536 98.1036 262.42 97.6411 261.767 98.2941C261.572 98.4885 261.463 98.7521 261.463 99.027V99.7756C261.463 101.346 260.19 102.619 258.619 102.619H257.218C254.874 102.619 252.974 100.719 252.974 98.3748V96.974C252.974 95.4034 254.247 94.1302 255.818 94.1302H256.566C256.841 94.1302 257.105 94.021 257.299 93.8266C257.952 93.1736 257.49 92.0572 256.566 92.0572H253.293ZM261.746 92.2168C261.746 92.2168 261.746 92.2168 261.746 92.2168L257.991 95.9725C257.54 96.4235 256.809 96.4236 256.358 95.9726C255.907 95.5215 255.175 95.5216 254.724 95.9728L254.703 95.9939C254.241 96.4565 254.241 97.2065 254.704 97.6691L255.52 98.4854C256.434 99.3988 257.915 99.3987 258.828 98.4852L258.849 98.4642L263.22 94.0928C263.331 93.9818 263.331 93.8018 263.22 93.6908L261.746 92.2168C261.746 92.2168 261.746 92.2168 261.746 92.2168Z" fill="#FFD7BF"/>
<defs>
<linearGradient id="paint0_linear_25_2520" x1="108.354" y1="208.858" x2="110.71" y2="208.905" gradientUnits="userSpaceOnUse">
<stop stop-color="#30A94A"/>
<stop offset="1" stop-color="#238832"/>
</linearGradient>
<linearGradient id="paint1_linear_25_2520" x1="203.313" y1="209.166" x2="206.882" y2="209.263" gradientUnits="userSpaceOnUse">
<stop stop-color="#30A94A"/>
<stop offset="1" stop-color="#238832"/>
</linearGradient>
<linearGradient id="paint2_linear_25_2520" x1="199.276" y1="160.547" x2="222.711" y2="164.368" gradientUnits="userSpaceOnUse">
<stop stop-color="#30A94A"/>
<stop offset="1" stop-color="#238832"/>
</linearGradient>
<linearGradient id="paint3_linear_25_2520" x1="90.9351" y1="161.164" x2="115.288" y2="165.532" gradientUnits="userSpaceOnUse">
<stop stop-color="#30A94A"/>
<stop offset="1" stop-color="#238832"/>
</linearGradient>
<linearGradient id="paint4_linear_25_2520" x1="149.452" y1="184.289" x2="169.447" y2="198.796" gradientUnits="userSpaceOnUse">
<stop stop-color="#30A94A"/>
<stop offset="1" stop-color="#238832"/>
</linearGradient>
<linearGradient id="paint5_linear_25_2520" x1="149.447" y1="197.568" x2="168.77" y2="212.283" gradientUnits="userSpaceOnUse">
<stop stop-color="#30A94A"/>
<stop offset="1" stop-color="#238832"/>
</linearGradient>
<linearGradient id="paint6_linear_25_2520" x1="149.452" y1="210.964" x2="168.886" y2="225.64" gradientUnits="userSpaceOnUse">
<stop stop-color="#30A94A"/>
<stop offset="1" stop-color="#238832"/>
</linearGradient>
<linearGradient id="paint7_linear_25_2520" x1="136.542" y1="182.78" x2="145.537" y2="183.701" gradientUnits="userSpaceOnUse">
<stop stop-color="#30A94A"/>
<stop offset="1" stop-color="#238832"/>
</linearGradient>
<linearGradient id="paint8_linear_25_2520" x1="136.542" y1="196.318" x2="145.537" y2="197.239" gradientUnits="userSpaceOnUse">
<stop stop-color="#30A94A"/>
<stop offset="1" stop-color="#238832"/>
</linearGradient>
<linearGradient id="paint9_linear_25_2520" x1="136.542" y1="209.856" x2="145.537" y2="210.776" gradientUnits="userSpaceOnUse">
<stop stop-color="#30A94A"/>
<stop offset="1" stop-color="#238832"/>
</linearGradient>
</defs>
</svg>
