<svg width="350" height="287" viewBox="0 0 350 287" fill="none" xmlns="http://www.w3.org/2000/svg">
<path d="M37.0728 285.147C30.0149 287.065 22.8164 286.342 15.7384 285.69C11.0901 285.258 10.1965 280.479 9.36323 276.965C6.68263 265.64 3.93176 254.255 5.11644 242.449C6.08025 232.871 6.93363 223.273 8.3693 213.765C10.9796 196.467 10.1865 179.399 6.51196 162.312C2.98803 145.907 -0.977643 129.412 0.217079 112.525C2.08446 86.0003 7.59625 60.3891 24.5031 38.7837C37.1531 22.6098 53.5278 12.9917 74.3702 11.0842C96.0459 9.09635 115.292 15.843 133.815 26.0132C145.792 32.5892 157.71 39.3158 172.177 38.3118C182.799 37.5789 192.678 34.1855 202.436 30.3704C216.1 25.0293 229.845 20.381 244.673 19.0758C271.7 16.7064 294.822 24.8687 312.943 44.8477C325.804 59.0337 333.083 76.1514 335.442 95.528C337.661 113.73 333.866 131.239 331.627 148.979C330.784 155.656 331.366 162.202 332.721 168.808C335.844 184.048 343.173 197.953 346.496 213.103C349.457 226.616 350.773 240.17 349.538 254.095C348.755 262.94 347.6 271.494 345.05 280.027C343.624 284.786 341.054 286.202 336.878 286.091C319.539 285.629 302.15 287.306 284.842 285.027C284.702 283.662 285.565 282.868 286.539 282.176C300.936 271.885 306.277 250.792 289.541 235.019C288.818 234.045 288.065 233.092 287.774 231.877C288.497 228.925 291.649 229.076 293.095 227.469C291.8 227.62 289.892 230.1 288.657 226.887C289.219 223.122 287.804 220.09 285.274 217.4C283.467 215.482 281.348 213.745 280.876 210.894C280.676 201.236 280.907 191.527 277.122 182.331C276.62 181.106 276.79 179.701 277.172 178.385C281.941 170.866 287.523 164.892 297.663 166.147C301.277 166.599 305.002 166.207 308.676 166.197C311.909 166.177 313.656 164.872 313.656 161.438C313.676 145.576 313.706 129.703 313.636 113.84C313.626 110.477 312.05 109.051 308.726 109.051C293.024 109.051 277.322 109.001 261.62 109.092C259.391 109.102 257.233 109.393 256.269 111.893C255.155 113.911 255.376 116.109 255.366 118.268C255.345 127.454 255.406 136.64 255.335 145.827C255.285 152.473 254.07 153.367 247.434 151.851C242.394 150.696 237.415 149.05 232.194 149.09C228.248 149.12 228.148 144.993 225.588 143.648C223.66 142.925 221.642 143.076 219.644 143.056C211.452 143.006 211.452 143.006 209.374 150.435C206.753 152.644 202.908 151.901 200.308 154.16C193.682 152.162 187.066 150.134 182.156 144.823C179.807 144.662 177.919 147.754 175.319 145.817C173.05 141.46 170.319 137.594 165.571 135.556C164.205 134.974 163.091 133.849 162.83 132.193C162.98 126.701 164.205 121.31 164.286 115.828C164.446 105.015 159.627 100.076 147.489 98.3491C138.945 97.1444 131.124 102.506 128.725 111.21C127.44 115.878 128.133 120.858 126.456 125.466C125.934 126.792 124.97 127.635 123.585 127.986C122.912 128.016 122.189 127.976 121.697 127.524C117.009 123.238 111.768 121.722 105.664 124.171C105.242 124.342 104.71 124.001 104.268 123.739C103.817 123.067 103.746 122.334 103.947 121.561C107.632 113.549 104.64 105.909 96.0358 102.797C92.1304 101.381 89.6506 99.574 88.1848 95.4577C86.1568 89.7752 81.3578 86.8938 75.3641 86.8135C69.2901 86.7433 64.2803 89.1126 61.69 94.9959C60.5355 97.6363 59.0095 99.2527 56.0578 99.9856C44.3114 102.887 41.2091 107.746 42.9761 119.894C44.7832 123.97 47.9959 126.46 52.0821 127.966C55.4152 129.151 58.9291 130.125 59.4813 134.472C59.6319 138.598 60.1941 142.684 60.6158 146.781C60.8266 148.889 60.927 151.098 59.391 152.915C56.359 154.11 53.8691 152.252 51.2488 151.369C44.9539 149.26 44.7431 149.301 44.733 155.806C44.7029 175.876 44.5523 195.945 44.7732 216.004C44.9639 233.232 43.1267 250.4 43.6387 267.628C43.7993 272.949 41.3898 277.688 39.4321 282.487C38.9201 283.591 38.2775 284.625 37.0728 285.147Z" fill="#F2F9F3"/>
<path d="M37.0726 285.148C37.434 284.445 37.7954 283.732 38.1468 283.029C51.339 284.154 64.5512 283.431 77.7534 283.511C81.6387 283.531 82.2511 282.467 80.2834 278.893C76.5988 272.206 75.886 265.118 75.6852 257.619C74.8117 224.357 74.6812 191.106 74.7916 157.834C74.8017 155.164 74.6411 152.483 75.0728 149.833C76.0868 146.228 79.0886 144.14 81.5885 141.801C84.1787 139.391 86.8694 141.048 89.2689 142.765C95.2425 147.855 96.0055 148.076 101.879 143.076C105.433 140.054 108.615 140.034 112.24 142.393C113.214 143.026 114.308 143.498 115.221 144.19C120.181 147.935 124.819 148.056 129.066 143.096C133.233 139.462 137.188 139.853 141.455 143.206C145.762 146.58 150.451 149.08 155.35 143.929C161.555 139.713 161.645 139.592 167.91 144.12C170.57 146.048 173.14 146.65 176.162 145.606C178.913 145.957 179.887 142.453 182.568 142.654C185.027 150.545 185.138 158.748 185.198 166.85C185.369 192.05 185.469 217.249 185.148 242.439C185.078 247.067 185.75 251.745 184.495 256.324C184.104 257.197 183.391 257.599 182.467 257.689C177.899 256.595 173.733 254.436 169.536 252.408C160.681 248.131 152.178 247.95 144.126 254.245C143.664 254.426 143.182 254.496 142.68 254.456C137.881 251.063 134.367 246.334 130.15 242.328C128.022 240.3 125.703 238.804 122.52 239.879C119.789 240.792 118.374 242.539 118.615 245.491C118.424 246.746 118.113 247.93 116.848 248.553C113.374 248.964 109.88 246.846 106.316 249.346C103.264 251.494 102.541 254.125 102.682 257.448C102.812 260.54 104.037 262.839 107.029 264.054C108.997 264.857 111.236 265.169 112.691 266.976C113.244 268.923 112.571 270.891 112.772 272.839C113.766 277.387 115.613 278.853 119.9 278.11C124.157 277.377 128.112 275.63 132.128 274.104C134.096 273.351 135.973 272.056 138.273 272.598C141.756 276.684 145.019 280.961 148.443 285.097C146.897 285.941 145.21 285.82 143.543 285.82C109.629 285.86 75.7153 285.911 41.8113 285.921C40.2451 285.921 38.4882 286.473 37.0726 285.148Z" fill="white"/>
<path d="M148.483 285.107C143.473 282.557 140.692 278.14 138.443 273.25C138.524 273.029 138.604 272.808 138.684 272.588C143.393 267.156 144.206 260.701 143.533 253.874C149.386 247.609 156.545 246.474 164.366 248.974C170.48 250.932 176.323 253.603 181.865 256.906C179.787 260.5 178.662 264.305 179.004 269.174C182.879 265.791 181.132 260.891 183.652 257.729C185.569 256.855 187.316 257.598 188.913 258.482C197.256 263.1 205.96 267.016 214.363 271.513C220.558 274.836 221.783 277.748 220.166 284.103C219.795 284.826 219.263 285.368 218.49 285.649C196.272 285.75 174.064 285.87 151.846 285.92C150.732 285.94 149.607 285.398 148.483 285.107Z" fill="#F9A97D"/>
<path d="M249.061 280.901C248.287 279.947 247.514 278.993 246.741 278.039C246.5 275.419 248.348 273.763 249.713 271.965C253.347 267.227 254.894 261.574 256.379 256.012C257.404 252.177 256.871 248.091 255.205 244.316C254.612 240.039 250.667 236.997 250.787 232.449C258.197 225.632 266.781 223.373 276.569 225.773C278.467 226.435 279.631 228.182 281.388 229.056C283.135 229.969 285.093 230.702 284.932 233.242C284.752 235.993 282.824 236.967 280.264 237.509C283.296 239.979 286.569 239.838 289.872 239.587C290.655 239.487 291.418 239.507 292.141 239.899C297.311 249.587 296.408 259.315 291.488 268.612C284.45 281.885 272.814 286.463 258.307 284.726C256.982 284.565 255.647 284.515 254.311 284.375C252.012 284.043 249.954 283.34 249.061 280.901Z" fill="#F9A97D"/>
<path d="M165.221 22.5816C161.641 22.559 159.687 20.7688 159.199 17.7381C157.97 10.0677 162.53 2.74857 169.935 0.403276C174.28 -0.973312 177.39 1.4173 180.324 3.90989C182.834 6.03425 184.125 9.01969 184.596 12.2657C185.1 15.7497 182.851 19.1147 178.834 20.2193C174.161 21.5053 169.181 21.2277 165.221 22.5816Z" fill="#F2F9F3"/>
<path d="M253.609 283.19C258.869 282.918 263.929 284.384 269.441 283.43C289.721 279.917 299.41 257.016 291.207 239.959C289.41 238.904 288.557 237.148 288.075 235.28C287.693 233.824 288.306 233.051 289.892 233.995C306.116 247.739 304.57 271.905 286.75 283.461C286.067 283.902 285.475 284.505 284.842 285.027C277.493 286.764 270.034 285.438 262.644 285.84C260.827 285.94 259.01 285.92 257.193 285.96C255.737 285.358 253.619 285.639 253.609 283.19Z" fill="#F68B5D"/>
<path d="M256.119 243.854C260.687 254.517 256.068 263.592 251.018 272.518C249.884 274.516 248.187 276.202 246.752 278.029C245.085 279.304 243.358 280.519 241.752 281.875C234.744 287.758 226.471 285.73 218.51 285.67C218.751 285.148 218.982 284.626 219.223 284.114C220.689 282.778 222.586 282.728 224.373 282.587C238.278 281.473 254.211 267.468 254.653 249.406C254.693 247.479 254.291 245.34 256.119 243.854Z" fill="#21977B"/>
<path d="M253.609 283.19C254.804 284.113 255.998 285.037 257.183 285.961C256.179 286.011 255.175 285.991 254.181 286.121C250.095 286.694 248.117 285.238 249.051 280.901C250.617 281.583 251.741 283.13 253.609 283.19Z" fill="#E0D3E0"/>
<path d="M76.2976 148.558C76.3177 163.607 76.6088 178.667 76.2976 193.706C75.8057 217.601 77.6931 241.445 77.3718 265.329C77.3016 270.67 80.1528 275.158 82.6126 279.696C85.2329 284.525 84.9518 285.037 79.6508 285.047C67.2719 285.077 54.903 285.077 42.5241 285.027C40.8475 285.017 38.6287 285.8 38.1468 283.029C45.2449 266.895 42.233 249.748 42.7249 233.052C43.498 206.487 43.0662 179.881 43.1666 153.296C43.1968 146.56 43.2168 146.63 49.2306 148.969C52.4634 150.224 55.8066 151.178 59.0996 152.262C64.7218 150.465 70.073 147.483 76.2976 148.558Z" fill="#2CA043"/>
<path d="M254.894 111.531C254.804 108.539 256.309 107.455 259.221 107.465C276.409 107.536 293.597 107.536 310.785 107.465C313.997 107.455 315.263 108.73 315.252 111.923C315.182 128.94 315.182 145.967 315.262 162.985C315.283 166.328 314.108 167.964 310.604 167.804C307.271 167.663 303.837 168.286 300.605 167.693C290.234 165.786 283.587 171.037 277.995 178.687C277.493 179.56 277.152 180.524 276.58 181.337C275.295 183.195 273.658 184.861 271.239 184.309C268.498 183.687 268.799 181.086 268.548 178.988C268.447 178.165 268.498 177.321 268.478 176.488C268.307 169.651 268.297 169.641 261.4 169.249C255.376 168.908 253.187 167.593 253.619 162.503C255.085 145.506 253.88 128.498 254.894 111.531Z" fill="#ADD9B5"/>
<path d="M199.776 153.668C201.844 149.612 205.739 150.937 209.052 150.515C215.046 147.785 221.361 149.622 227.515 149.21C229.674 149.24 231.863 148.999 233.991 149.491C238.79 150.596 240.667 155.184 237.073 158.437C231.893 163.125 233.599 168.798 233.569 174.269C233.549 176.98 235.919 177.01 237.906 177.392C244.442 178.627 249.934 184.068 250.205 190.644C250.737 203.123 250.546 215.633 250.275 228.132C250.255 228.966 249.984 229.769 249.593 230.512C249.281 230.893 248.91 231.506 248.458 231.365C243.418 229.749 238.047 229.066 233.439 226.195C233.198 223.885 234.372 222.299 236.109 221.014C238.669 220.281 238.549 218.183 238.509 216.175C238.238 203.063 239.714 204.398 227.194 204.338C219.524 204.298 211.863 204.408 204.193 204.298C200.539 204.248 199.173 205.744 199.213 209.368C199.344 221.727 198.37 220.331 209.695 220.442C212.014 220.462 214.373 220.261 216.612 221.165C220.006 223.574 220.769 226.777 219.413 230.592C217.767 232.379 215.99 231.395 214.383 230.642C206.994 227.199 199.916 227.138 193.149 232.188C191.965 233.072 190.579 233.815 188.953 233.182C187.035 231.546 187.296 229.277 187.286 227.148C187.226 215.974 187.176 204.81 187.286 193.636C187.377 184.701 191.222 179.661 199.926 177.502C203.159 176.699 204.414 175.073 204.304 171.96C204.133 167.282 205.559 162.252 200.288 158.969C198.531 157.885 198.22 155.616 199.776 153.668Z" fill="#FFFFFE"/>
<path d="M248.83 231.204C248.87 218.052 248.97 204.9 248.92 191.748C248.9 184.56 243.328 178.847 236.13 178.827C232.887 178.817 231.572 177.833 231.853 174.54C232.064 172.06 231.993 169.54 231.873 167.05C231.682 163.366 231.441 159.892 235.859 158.095C237.555 157.402 238.429 155.394 237.606 153.386C236.853 151.539 235.357 150.595 233.268 150.646C231.441 150.686 229.604 150.615 227.777 150.595C226.19 147.855 226.14 144.752 225.698 141.74C226.984 141.64 228.5 142.072 228.479 143.266C228.379 148.236 231.752 147.333 234.885 147.754C239.965 148.437 245.035 149.471 249.954 150.917C253.368 151.921 254.04 150.897 254.01 147.794C253.92 136.951 253.97 126.109 253.98 115.266C253.98 113.961 253.709 112.565 254.894 111.531C254.914 128.378 255.054 145.214 254.884 162.061C254.844 166.418 256.249 167.954 260.637 167.854C271.098 167.623 270.024 166.789 270.074 177.652C270.084 179.55 268.959 182.21 270.927 183.214C273.417 184.489 274.341 181.307 276.027 180.182C276.71 179.721 277.353 179.188 278.005 178.676C278.116 179.831 277.915 181.116 278.367 182.12C282.744 191.688 282.222 201.838 282.031 211.948C279.21 214.137 278.337 217.078 278.407 220.542C278.447 222.741 278.899 225.16 276.911 226.937C267.223 224.789 258.619 227.198 250.868 233.162C249.482 233.242 248.82 232.569 248.83 231.204Z" fill="#2CA043"/>
<path d="M42.1429 120.737C37.5447 110.276 44.7532 99.7945 55.2246 98.911C57.8952 98.6801 59.2706 97.9773 60.2244 95.2666C62.4431 88.9918 68.5673 85.257 75.4445 85.3675C81.8197 85.4679 87.8536 89.5942 89.7812 95.7987C90.7249 98.8407 92.01 100.357 95.2829 101.039C104.178 102.887 110.885 115.145 104.77 122.243C102.642 119.814 104.891 117.183 104.258 114.934C101.407 119.984 97.6924 124.352 91.0361 124.934C88.9981 125.115 87.3014 125.908 85.9862 127.705C77.9645 138.668 71.7901 140.184 59.5617 134.381C59.13 134.2 58.7284 133.97 58.3469 133.688C57.7144 129.231 53.1665 130.727 50.8774 128.789C51.279 127.323 54.1604 127.936 53.558 125.858C53.0962 124.291 51.3995 123.9 49.9236 123.719C47.0724 123.348 44.8134 121.51 42.1429 120.737Z" fill="#099276"/>
<path d="M199.776 153.668C199.565 156.629 201.061 158.005 203.471 159.882C208.671 163.948 204.906 170.233 205.649 175.514C206.121 178.918 203.079 178.616 200.71 178.787C194.586 179.229 188.923 184.429 188.823 190.333C188.592 203.706 188.752 217.088 188.752 230.461C188.752 231.505 188.973 232.449 189.907 233.082C189.174 237.278 187.809 241.093 183.853 243.392C183.743 218.484 183.703 193.576 183.492 168.667C183.421 159.993 182.919 151.318 182.608 142.644C185.349 147.001 189.275 149.823 194.304 150.535C196.764 150.887 197.858 152.834 199.776 153.668Z" fill="#2CA043"/>
<path d="M125.583 125.326C126.837 117.916 125.994 110.085 131.114 103.509C135.923 97.3249 143.674 95.1764 153.714 98.0679C160.752 100.096 165.561 106.049 165.771 113.429C165.952 119.924 164.757 126.309 163.633 132.685C160.671 134.803 157.398 133.96 154.186 133.709C152.8 133.317 151.706 132.604 151.354 131.098C151.385 129.703 153.935 129.572 153.182 127.996C152.539 126.671 150.903 126.912 149.607 126.801C148.463 126.711 147.298 126.731 146.164 126.45C140.371 123.87 134.518 122.836 128.414 125.446C127.51 125.848 126.486 126.048 125.583 125.326Z" fill="#F9A97C"/>
<path d="M130.17 143.709C123.484 149.732 123.233 150.154 114.639 144.974C109.439 141.841 105.774 140.938 100.704 145.405C95.393 150.074 94.891 149.511 89.058 143.97C88.0138 141.811 88.6865 139.994 90.1523 138.317C91.8791 136.711 93.8168 135.376 95.6741 133.93C97.6519 132.344 98.3246 129.874 99.7101 127.896C101.437 126.541 102.25 124.071 104.79 123.699C112.119 119.613 118.043 121.852 123.153 127.766C128.293 131.852 130 137.444 130.17 143.709Z" fill="#F58A5B"/>
<path d="M130.171 143.709C127.942 138.347 126.657 132.575 123.173 127.766C123.976 126.952 124.779 126.139 125.582 125.326C132.64 121.571 139.668 121.601 146.656 125.517C148.965 126.591 151.625 127.314 151.806 130.567C152.408 131.31 153.011 132.063 153.623 132.805C156.645 136.46 157.76 140.436 155.641 144.943C148.925 149.783 148.804 149.953 140.612 144.01C136.927 141.339 133.755 140.416 130.171 143.709Z" fill="#0B9276"/>
<path d="M104.8 123.699C103.345 125.346 101.899 126.992 100.443 128.639C98.7062 129.512 97.7524 131.54 95.6742 131.932C94.0377 132.544 92.3109 132.785 90.6042 133.136C87.3413 135.877 85.3333 139.873 81.2371 141.841C74.6511 145.013 68.3964 144.672 62.4027 140.686C60.0333 139.11 57.9752 137.032 59.18 133.659C60.9168 132.484 61.8003 134.211 63.0352 134.783C71.5087 138.678 79.42 135.998 84.3695 127.514C85.6245 125.366 87.1103 124.292 89.2187 123.79C99.4491 121.36 101.748 119.332 104.298 109.834C106.336 114.222 105.242 118.248 104.74 122.233C104.78 122.725 104.79 123.207 104.8 123.699Z" fill="#0D7E68"/>
<path d="M59.19 133.658C59.5515 140.465 70.0228 144.29 77.0908 142.313C81.6086 141.048 84.992 138.357 87.4015 134.361C88.1244 133.156 88.4256 131.41 90.4636 131.651C91.8993 133.799 92.6322 136.048 91.4475 138.568C89.8813 140.034 89.5701 142.042 89.0782 143.979C85.243 140.686 82.201 141.349 79.6107 145.646C78.8879 146.851 77.4321 147.614 76.3077 148.567C70.4746 149.3 65.254 152.915 59.1197 152.272C58.8587 146.078 58.5977 139.883 58.3367 133.689C58.6178 133.628 58.8989 133.618 59.19 133.658Z" fill="#1EB695"/>
<path d="M155.641 144.933C155.732 140.757 154.537 136.801 153.623 132.795C156.956 132.755 160.29 132.725 163.623 132.685C168.843 135.988 174.596 138.779 176.202 145.606C174.365 148.829 172.126 149.18 169.436 146.58C168.964 146.118 168.231 145.907 167.819 145.415C163.914 140.767 159.858 141.038 155.641 144.933Z" fill="#20B796"/>
<path d="M276.901 226.937C276.539 223.102 276.7 219.287 277.292 215.472C277.724 212.651 279.089 211.296 282.031 211.948C284.29 214.599 286.659 217.169 288.778 219.92C290.545 222.219 290.896 224.739 288.758 227.138C287.693 232.098 284.189 230.572 281.067 230.02C278.828 230.13 278.326 227.911 276.901 226.937Z" fill="#196C79"/>
<path d="M225.698 141.741C228.851 144.12 228.218 147.383 227.777 150.596C221.532 150.576 215.287 150.546 209.043 150.525C208.36 142.343 208.822 141.821 216.733 141.811C219.725 141.801 222.707 141.761 225.698 141.741Z" fill="#2CA043"/>
<path d="M281.057 230.019C283.989 230.019 286.9 229.979 288.758 227.138C291.197 229.266 292.964 224.598 295.464 226.556C293.807 229.256 290.103 229.487 288.507 232.238C288.376 233.222 287.874 234.096 287.462 234.939C286.478 236.917 286.167 238.222 289.099 238.433C290.514 238.533 290.836 239.708 290.263 241.003C282.121 241.816 279.16 240.25 278.196 234.437C280.013 234.316 281.71 238.493 283.647 234.537C285.193 231.395 282.884 230.963 281.057 230.019Z" fill="#53886D"/>
<path d="M42.1428 120.737C42.2232 120.416 42.2934 120.095 42.3738 119.774C46.1989 121.902 50.9276 121.761 54.4716 124.482C55.2547 125.085 56.0378 126.791 55.7265 127.494C54.7828 129.623 52.4536 128.076 50.8673 128.779C46.6908 127.474 43.6789 124.904 42.1428 120.737Z" fill="#15806A"/>
<path d="M290.263 240.993C290.143 240.531 290.173 239.848 289.872 239.638C288.306 238.543 285.213 240.712 284.782 238.202C284.37 235.792 287.021 234.106 288.506 232.228C289.249 232.6 289.882 233.052 289.882 233.995C288.798 234.106 288.386 234.527 289.159 235.531C290.173 236.857 290.936 238.292 291.207 239.959C290.886 240.3 290.575 240.652 290.263 240.993Z" fill="#EF9E74"/>
<path d="M183.853 243.402C185.871 239.969 187.889 236.525 189.907 233.092C198.17 225.371 207.205 225.16 216.833 230.25C217.526 230.612 218.369 230.692 219.142 230.903C219.634 230.742 220.016 230.873 220.267 231.335C220.347 233.614 220.919 236.324 216.873 235.12C216.763 235.18 216.883 235.32 217.345 235.381C220.779 235.883 220.769 235.883 220.377 232.77C220.297 232.118 220.377 231.445 220.598 230.813C222.034 229.497 223.941 229.126 225.628 228.293C228.399 228.132 230.718 226.325 233.479 226.104C238.82 227.138 244.342 227.63 248.84 231.204C249.512 231.857 250.185 232.509 250.868 233.162C253.237 236.415 255.446 239.758 256.129 243.844C256.38 255.4 253.579 265.63 244.744 273.943C237.445 280.81 229.182 284.354 219.233 284.103C220.638 277.517 219.665 275.77 213.691 272.688C203.812 267.578 194.073 262.197 183.763 257.97L183.401 257.679L183.512 257.227C183.612 252.619 183.732 248.011 183.853 243.402Z" fill="#1AB795"/>
<path d="M131.044 183.757C141.556 183.757 152.077 183.987 162.579 183.646C167.117 183.495 168.573 185.483 168.603 189.399C168.653 196.577 168.643 203.746 168.623 210.924C168.613 215.442 165.36 215.813 162.047 215.833C149.367 215.884 136.687 215.863 124.006 215.863C115.995 215.863 107.983 215.653 99.9815 215.954C95.4837 216.124 94.1485 214.418 94.3191 210.131C94.5902 203.304 94.6304 196.437 94.3091 189.62C94.0983 185.202 95.1825 183.465 100.022 183.646C110.342 184.028 120.693 183.757 131.044 183.757Z" fill="#2CA043"/>
<path d="M112.129 267.237C107.592 265.791 102.421 265.108 101.317 259.165C100.654 255.611 100.855 251.946 103.776 249.476C107.622 246.224 112.049 245.621 116.637 248.191C121.406 248.201 124.8 251.525 128.815 253.332C131.365 254.476 133.655 256.173 136.275 257.227C138.243 258.02 139.608 259.355 139.668 261.665C139.397 264.255 139.357 266.935 137.058 268.783C128.605 270.52 120.342 269.325 112.129 267.237Z" fill="#1AB694"/>
<path d="M138.714 261.293C136.676 256.885 131.636 257.046 128.273 254.546C124.759 251.926 120.533 250.269 116.627 248.191C116.918 247.117 117.209 246.043 117.491 244.968C121.938 238.784 125.854 238.392 131.175 243.653C134.909 247.358 138.905 250.811 142.078 255.058C142.299 257.859 141.636 260.178 138.714 261.293Z" fill="#0B9176"/>
<path d="M112.13 267.236C120.663 266.423 129.097 269.003 137.641 267.929C138.223 268.652 138.263 269.445 137.982 270.298C136.767 272.598 134.528 273.17 132.259 273.722C128.093 274.746 123.836 275.338 119.69 276.423C116.035 277.386 113.184 276.573 111.357 273.089C111.076 271.072 111.176 269.094 112.13 267.236Z" fill="#099176"/>
<path d="M111.346 273.09C114.318 275.841 117.601 275.971 121.326 274.716C126.697 272.909 132.751 273.451 137.69 270.048C139.718 270.399 139.377 271.684 138.875 273.04C138.684 273.009 138.544 273.08 138.453 273.26C132.53 275.298 126.677 277.537 120.673 279.304C115.252 280.891 112.32 278.732 111.346 273.09Z" fill="#0D7E6A"/>
<path d="M138.875 273.039C138.483 272.045 138.092 271.041 137.69 270.047C137.67 269.345 137.65 268.642 137.63 267.929C137.992 265.71 138.353 263.502 138.714 261.293C139.698 259.225 140.692 257.167 141.676 255.098C141.746 254.386 142.098 253.934 142.841 253.843C143.072 253.823 143.303 253.833 143.533 253.884C146.455 260.711 144.317 269.465 138.875 273.039Z" fill="#EB8B5D"/>
<path d="M142.851 253.844C142.459 254.265 142.078 254.677 141.686 255.099C138.564 252.157 135.392 249.286 132.339 246.274C125.563 239.587 125.442 239.547 117.501 244.979C116.878 241.414 119.137 239.929 121.908 238.694C125.412 237.148 128.253 238.724 130.532 240.912C134.829 245.019 138.765 249.506 142.851 253.844Z" fill="#12806E"/>
<path d="M183.491 257.227C183.572 257.478 183.662 257.729 183.742 257.98C183.793 261.675 183.03 265.239 181.825 268.703C181.303 270.209 180.249 271.433 178.411 270.771C176.795 270.188 176.835 268.883 177.397 267.458C178.783 263.904 176.675 258.874 181.855 256.926C182.407 257.016 182.949 257.127 183.491 257.227Z" fill="#F58C5E"/>
<path d="M158.674 276.021C159.156 278.561 156.866 280.84 156.445 283.661C156.174 285.458 154.447 285.117 153.162 284.946C151.566 284.735 151.425 283.38 151.696 282.256C152.308 279.675 153.102 277.125 153.945 274.605C154.437 273.13 155.25 271.754 157.178 272.226C158.965 272.678 158.553 274.254 158.674 276.021Z" fill="#F68C5E"/>
<path d="M158.653 251.997C161.595 251.876 164.075 252.83 166.494 254.015C167.348 254.436 167.81 255.249 167.378 256.063C166.866 257.037 166.053 256.545 165.27 256.133C160.902 253.874 156.495 253.161 152.077 256.053C151.365 256.514 150.521 257.117 149.969 256.113C149.347 254.998 150.14 254.245 151.144 253.804C153.583 252.719 156.063 251.746 158.653 251.997Z" fill="#FBBF9A"/>
<path d="M196.674 282.788C196.874 280.75 196.513 278.33 199.404 278.29C201.262 278.26 201.904 279.786 201.693 281.433C201.463 283.3 200.86 284.967 198.461 285.077C196.533 285.167 196.152 284.304 196.674 282.788Z" fill="#F68C5D"/>
<path d="M270.736 232.77C270.445 233.965 269.351 233.945 268.387 233.925C264.903 233.854 261.831 234.688 259.612 237.609C259.07 238.332 258.347 238.764 257.594 237.83C257.143 237.268 257.243 236.666 257.554 235.993C258.99 232.891 265.917 229.939 269.301 231.003C270.174 231.274 270.847 231.606 270.736 232.77Z" fill="#FBBE99"/>
<path d="M291.157 133.668C295.193 129.894 300.454 130.295 305.313 130.024C307.994 129.873 309.931 132.052 308.716 135.275C305.905 142.734 301.167 145.867 293.295 145.074C291.117 144.853 291.147 145.917 290.946 147.242C290.494 150.244 290.063 153.256 289.169 156.268C287.272 152.643 288.366 148.618 287.292 144.873C286.529 142.212 286.468 140.947 283.276 142.694C277.101 146.078 272.232 144.481 268.407 138.528C266.439 135.466 264.512 132.353 262.333 129.442C260.968 127.615 260.576 125.747 261.51 123.85C262.544 121.761 264.692 120.326 266.841 120.778C271.268 121.711 275.786 121.209 280.224 122.304C284.42 123.338 287.131 125.356 288.175 129.542C289.28 131.671 289.33 133.94 289.119 136.188C288.747 136.831 289.952 136.57 289.3 136.419C289.179 136.389 289.249 136.249 289.35 135.937C289.681 134.964 290.324 134.241 291.157 133.668Z" fill="#E9E8F4"/>
<path d="M291.157 133.669C290.615 136.159 290.063 138.638 289.521 141.128C287.392 137.383 288.517 133.398 288.195 129.552C290.173 130.215 289.651 132.665 291.157 133.669Z" fill="#2CA043"/>
<path d="M216.964 222.289C211.793 222.259 206.613 222.118 201.442 222.249C198.741 222.319 197.687 221.586 197.567 218.635C196.884 202.993 196.804 202.993 212.406 202.993C220.247 202.993 228.098 203.093 235.939 202.943C238.86 202.882 240.246 203.605 240.055 206.818C239.824 210.643 239.804 214.508 240.055 218.323C240.256 221.496 239.021 222.62 236.029 222.209C235.467 221.767 235.246 221.165 235.306 220.482C235.939 214.217 235.999 214.528 230.065 215.733C225.698 216.617 223.168 219.117 221.331 222.801C219.915 223.675 218.801 222.912 218.178 221.817C216.572 219.046 217.737 223.233 216.964 222.289Z" fill="#2CA043"/>
<path d="M220.939 222.901C222.244 217.359 230.728 211.807 235.848 213.213C237.846 213.765 238.248 215.281 237.686 217.118C237.163 218.835 236.571 220.522 236.009 222.228C235.166 223.524 234.322 224.809 233.469 226.104C231.411 228.172 229.061 229.437 226.029 228.744C224.423 228.734 223.048 228.062 221.712 227.248C221.401 226.917 221.16 226.536 220.969 226.124C220.698 225.05 220.056 223.985 220.939 222.901Z" fill="#076775"/>
<path d="M220.939 222.902C221.241 223.906 221.552 224.899 221.853 225.903C220.427 227.299 221.582 229.688 219.885 230.973C219.634 230.953 219.383 230.933 219.132 230.913C219.383 227.791 218.68 224.909 216.954 222.299C216.652 221.074 216.351 219.839 215.97 218.253C218.5 219.247 218.56 222.339 220.939 222.902Z" fill="#489490"/>
<path d="M151.374 117.756C147.358 117.033 143.162 116.3 138.975 115.487C137.771 115.256 136.636 114.583 136.987 113.148C137.299 111.873 138.544 111.411 139.758 111.561C143.985 112.094 148.212 112.686 152.429 113.328C153.814 113.539 155.701 113.429 155.491 115.668C155.23 118.318 153.011 117.164 151.374 117.756Z" fill="#FBBD9A"/>
<path d="M151.806 130.566C150.09 128.88 148.373 127.203 146.656 125.516C148.473 125.557 150.311 125.436 152.098 125.687C153.714 125.918 155.551 126.39 155.501 128.559C155.441 131.189 153.322 130.406 151.806 130.566Z" fill="#F2BB98"/>
<path d="M91.4376 138.558C90.7348 136.309 90.1224 134.04 90.4537 131.641C92.1304 131.299 93.807 130.958 95.4836 130.617C96.598 131.842 96.598 133.257 96.1864 134.743C94.6101 136.018 93.0239 137.293 91.4376 138.558Z" fill="#77C3A7"/>
<path d="M96.1866 134.743C95.2027 133.498 95.3633 132.052 95.4838 130.617C97.1403 129.954 98.7868 129.291 100.443 128.629C99.0077 130.667 98.817 133.548 96.1866 134.743Z" fill="#D2D4D6"/>
<path d="M200.288 234.627C199.866 234.969 199.415 235.631 198.913 235.682C194.455 236.083 193.21 239.657 191.634 242.9C191.182 243.834 190.61 244.928 189.516 244.426C188.411 243.914 188.943 242.76 189.305 241.816C190.881 237.71 193.642 234.848 197.838 233.423C198.933 233.051 199.776 233.152 200.288 234.627Z" fill="#80CBAE"/>
<path d="M219.885 230.973C220.538 229.276 218.55 226.566 221.853 225.903C221.883 226.254 221.913 226.616 221.944 226.967C223.048 228.624 221.984 229.758 220.98 230.893C219.644 236.455 224.383 233.292 226.301 234.336C220.94 237.921 216.572 237.328 213.139 232.539C215.227 231.174 219.755 239.386 219.885 230.973Z" fill="#148871"/>
<path d="M220.98 230.893C221.301 229.588 221.622 228.272 221.943 226.967C223.64 226.787 224.895 227.63 226.03 228.744C224.795 230.511 223.088 231.154 220.98 230.893Z" fill="#B0D3D1"/>
<path d="M130.763 211.908C121.075 211.908 111.377 211.807 101.688 211.968C98.4756 212.018 97.2006 211.074 97.3311 207.721C97.552 202.049 97.4817 196.356 97.3512 190.684C97.2909 188.033 97.9837 186.728 100.965 186.738C121.015 186.829 141.064 186.829 161.123 186.728C164.145 186.718 164.758 188.084 164.707 190.704C164.587 196.386 164.507 202.069 164.738 207.741C164.878 211.145 163.513 211.988 160.34 211.938C150.481 211.777 140.622 211.878 130.763 211.878C130.763 211.888 130.763 211.898 130.763 211.908Z" fill="white"/>
<path d="M277.965 141.62C275.525 142.052 273.748 140.847 271.891 139.19C268.718 136.359 267.383 132.283 264.612 129.181C263.417 127.845 263.467 125.657 264.471 123.98C265.505 122.243 267.373 122.615 268.999 122.846C272.764 123.388 276.589 123.769 280.264 124.713C284.119 125.707 286.338 128.588 286.98 132.524C287.131 133.468 287.261 134.652 286.308 135.265C285.334 135.897 284.491 135.144 283.607 134.632C280.053 132.544 276.449 130.526 272.844 128.528C272.031 128.076 270.927 127.283 270.365 128.669C269.883 129.863 270.917 130.335 271.931 130.717C274.762 131.761 277.172 133.508 279.661 135.174C281.368 136.309 284.35 136.459 283.577 139.281C282.914 141.66 280.344 141.811 277.965 141.62Z" fill="#2CA043"/>
<path d="M300.946 136.269C298.406 136.319 296.729 137.413 294.942 138.227C294.169 138.588 293.305 138.879 292.703 138.046C292.131 137.253 292.713 136.48 293.085 135.767C294.299 133.428 303.586 130.647 305.704 132.042C306.196 132.363 306.658 133.026 306.759 133.598C307.2 136.138 300.614 143.588 298.054 143.548C297.01 143.528 295.996 143.307 295.524 142.303C294.882 140.937 296.177 140.646 296.95 140.174C298.456 139.241 300.333 138.749 300.946 136.269Z" fill="#2CA043"/>
</svg>
