<svg width="372" height="300" viewBox="0 0 372 300" fill="none" xmlns="http://www.w3.org/2000/svg">
<path d="M41.814 298.948C41.0194 299.849 39.9481 299.715 38.9125 299.715C29.6901 299.715 20.4767 299.653 11.2543 299.76C8.85273 299.787 7.35287 299.037 6.45117 296.751C4.55849 291.948 3.65678 286.913 2.51403 281.905C0.192814 271.807 0.273163 261.567 0.978456 251.452C1.57662 242.944 3.24611 234.507 5.50483 226.106C8.40635 215.321 13.3345 205.358 16.3788 194.627C20.0392 181.735 19.6017 168.915 17.2895 156.47C14.4594 141.239 14.2094 126.151 16.3878 111.17C17.3252 104.707 20.5659 98.1982 23.5925 91.9042C28.6723 81.3605 35.7164 72.647 44.2156 65.0763C52.6255 57.5948 62.5264 52.8095 73.5075 49.5777C83.703 46.569 93.8807 46.1494 104.21 46.4083C110.183 46.5601 116.084 47.6404 122.012 48.6938C131.261 50.3276 139.841 53.7648 148.554 56.702C156.473 59.3714 164.374 61.898 172.472 63.8889C179.373 65.5851 186.104 65.5137 193.041 63.6568C205.433 60.3446 216.182 53.497 227.69 48.2921C235.841 44.596 244.197 41.6588 253.08 40.0161C260.571 38.6323 268.025 37.8555 275.578 38.3376C291.711 39.3822 306.334 44.6317 318.753 55.1397C329.636 64.3531 337.269 76.102 342.804 89.0562C346.679 98.1179 348.938 107.751 350.723 117.536C352.491 127.249 352.544 136.936 352.348 146.676C352.143 156.586 349.527 166.13 347.715 175.825C346.152 184.146 343.661 192.288 343.322 200.921C342.902 211.866 342.447 222.883 344.608 233.543C347.259 246.649 347.09 259.746 346.974 272.897C346.893 281.467 344.447 289.609 340.885 297.43C340.153 299.046 339.242 299.76 337.564 299.742C327.163 299.626 316.762 299.528 306.37 299.421C306.201 297.841 306.04 296.26 305.87 294.689C305.986 293.823 305.906 293.046 304.995 292.618C304.96 292.198 304.924 291.788 304.888 291.368C305.817 284.645 309.727 278.762 310.182 271.852C310.539 266.424 312.387 260.987 312.03 255.657C311.548 248.399 310.236 241.105 307.299 234.248C305.692 230.499 304.549 226.544 303.192 222.678C302.763 219.669 302.826 216.652 303.147 213.643C302.781 210.724 301.549 210.75 299.764 212.643C299.165 212.822 298.567 213.009 297.969 213.188C297.594 212.456 297.219 211.724 296.844 210.991C296.898 209.081 296.916 207.17 297.023 205.269C297.514 196.529 294.291 189.833 286.345 185.699C286.479 179.923 287.095 174.12 288.809 168.683C293.845 152.711 293.246 137.677 283.033 123.767C274.462 112.099 263.294 105.189 248.858 102.171C233.975 99.0642 220.503 102.769 206.995 107.537C196.639 111.197 187.702 117.705 178.221 123.098C177.882 122.151 177.793 120.66 177.15 120.348C172.213 117.991 171.579 112.938 169.57 108.751C169.231 108.474 168.892 108.197 168.561 107.912C168.124 107.662 167.695 107.421 167.258 107.171C166.794 106.876 166.356 106.376 165.865 106.322C161.321 105.787 159.214 107.688 157.143 114.072C155.196 113.822 153.125 112.59 151.509 114.813C147.885 115.884 149.001 118.803 148.974 121.285C146.733 121.312 145.465 118.83 143.394 118.875C139.93 118.946 138.832 117.143 137.796 114.125C135.493 107.394 129.743 103.537 123.119 103.519C116.12 103.501 110.656 107.037 108.147 113.768C107.254 116.17 105.969 116.866 103.648 117.063C96.8447 117.616 92.1487 121.107 89.7918 127.588C89.6221 127.919 89.4436 128.24 89.2739 128.57L89.3364 128.669C88.1848 128.919 87.5598 129.981 86.2921 130.294C77.9893 132.329 70.6953 136.454 64.3834 142.123C48.5277 156.336 42.3407 175.147 41.2605 195.511C40.7605 204.974 42.5372 214.786 46.2332 223.892C46.2511 241.132 45.9922 258.38 46.3939 275.619C46.5814 283.824 44.5548 291.395 41.814 298.948Z" fill="#F2F9F3"/>
<path d="M215.825 299.019C214.361 299.153 212.897 299.412 211.432 299.403C189.792 299.349 168.16 299.26 146.519 299.18C146.519 264.745 146.519 230.302 146.519 195.519C143.064 196.519 141.76 199.573 139.546 199.939C136.921 200.367 134.904 198.162 133.931 195.502C134.359 189.324 134.859 183.146 135.181 176.959C135.341 173.95 133.002 171.325 130.779 171.968C126.297 173.272 120.334 171.754 117.843 178.003C116.468 181.467 112.076 182.306 110.924 179.61C109.558 176.387 107.629 177.307 105.478 177.593C105.826 171.745 104.067 165.745 106.701 160.05C111.245 161.79 115.807 163.46 120.316 165.299C121.932 165.96 123.566 166.094 125.092 165.665C129.833 164.344 134.511 162.799 139.207 161.344C141.626 159.898 143.724 158.13 145.064 155.577C149.385 154.621 151.277 158.344 153.822 160.442C156.339 162.523 158.303 162.764 160.759 160.755C163.16 158.791 165.633 156.916 168.07 155.005C172.365 155.47 175.65 158.139 179.105 160.299C182.694 162.54 185.488 162.308 189.006 159.692C197.389 153.452 194.72 153.702 203.058 158.407C203.442 158.621 203.871 158.782 204.246 159.005C210.95 163.049 210.95 163.058 216.744 158.318C218.566 157.728 219.78 156.309 221.155 155.112C223.324 154.711 224.967 155.764 226.529 157.05C226.877 157.309 227.217 157.568 227.565 157.818C229.029 159.094 230.127 160.844 232.181 161.353C233.663 163.067 234.752 161.674 235.823 160.826C237.859 159.219 239.832 157.532 241.831 155.871C244.197 156.737 244.09 158.907 244.099 160.737C244.144 168.906 244.01 177.075 243.938 185.253C240.341 186.038 236.823 186.913 233.877 189.377C231.332 191.511 231.386 195.002 229.342 197.35C228.342 196.671 227.288 196.225 226.029 196.225C203.897 196.243 181.766 196.252 159.634 196.225C157.241 196.225 156.054 197.162 156.063 199.635C156.098 208.099 156.08 216.562 156.08 225.026C156.08 226.936 156.812 228.275 158.893 228.231C171.793 227.972 184.694 228.829 197.594 227.758C203.612 227.258 209.7 226.695 215.7 228.204C215.771 230.427 215.905 232.641 215.914 234.864C215.968 255.916 215.995 276.976 216.03 298.028C215.977 298.367 215.905 298.689 215.825 299.019Z" fill="#2CA043"/>
<path d="M133.939 195.502C134.912 198.162 136.93 200.367 139.555 199.939C141.76 199.573 143.072 196.52 146.527 195.52C146.527 230.302 146.527 264.745 146.527 299.18C145.206 299.314 143.885 299.582 142.564 299.582C121.449 299.608 100.326 299.608 79.2122 299.59C78.0338 299.59 76.8553 299.367 75.6858 299.251C75.6768 295.903 74.4984 292.895 72.8378 290.074C71.9183 288.502 71.3112 286.949 71.2665 285.074C71.0344 274.718 71.0701 264.371 70.6237 254.005C69.8559 236.221 70.4273 218.384 70.4273 200.573C71.2665 198.966 73.7217 198.582 73.6592 196.296C74.3912 195.886 75.1233 195.475 75.8643 195.055C77.4624 195.243 78.4802 196.404 79.4086 197.466C82.7387 201.278 86.0866 200.234 88.9167 197.225C90.8719 195.145 92.8985 195.189 95.2465 195.484C96.9963 198.698 100.541 198.957 103.362 200.403C105.022 200.76 105.772 199.269 106.656 198.484C110.388 195.163 114.039 194.689 117.932 198.073C118.262 198.359 118.789 198.421 119.093 198.725C121.789 201.421 124.547 200.439 126.074 197.894C128.181 194.368 130.877 194.841 133.939 195.502Z" fill="#FBC09F"/>
<path d="M216.048 298.037C216.012 276.986 215.985 255.925 215.932 234.873C215.923 232.65 215.798 230.436 215.718 228.213C215.735 226.794 215.753 225.365 215.771 223.946C215.851 220.268 215.896 216.589 216.021 212.911C216.057 211.947 215.521 210.652 216.646 210.099C217.664 209.599 218.753 210.376 219.351 211.09C222.029 214.295 224.092 212.866 226.1 210.376C228.136 208.519 230.091 208.287 232.171 210.42C235.082 213.42 238.251 213.857 241.313 210.679C244.715 207.153 247.938 209.902 251.25 210.715C252.098 210.92 251.25 213.215 253.053 212.117C254.089 212.286 255.142 212.5 255.928 211.509C260.356 209.197 264.704 207.59 268.811 212.197C270.007 213.536 271.096 212.581 272.266 211.742C277.382 208.099 277.408 208.144 281.97 212.956C281.953 234.891 281.899 256.827 281.926 278.753C281.935 283.949 282.131 289.056 278.837 293.627C277.792 295.082 277.23 297.118 277.444 299.126C266.222 299.957 254.982 299.439 243.751 299.448C234.743 299.457 225.726 300.028 216.735 299.091C216.512 298.743 216.28 298.394 216.048 298.037Z" fill="#1FB795"/>
<path d="M70.4273 200.572C70.4183 218.383 69.8559 236.221 70.6237 254.005C71.0701 264.37 71.0344 274.726 71.2665 285.074C71.3111 286.939 71.9093 288.502 72.8378 290.073C74.4983 292.894 75.6768 295.903 75.6857 299.251C74.2394 299.67 72.7931 299.626 71.3558 299.197C70.9451 298.813 70.5344 298.09 70.1237 298.09C63.169 298.028 56.2054 298.037 49.2506 298.117C48.8489 298.126 48.4471 298.858 48.0454 299.26C45.9295 299.983 43.9029 298.921 41.8228 298.938C44.5636 291.386 46.5812 283.824 46.3938 275.566C45.992 258.335 46.2509 241.087 46.2331 223.838C46.2866 217.241 46.3402 210.643 46.3848 204.045C46.4205 198.448 46.4205 198.448 51.6076 199.903C52.5271 200.358 53.4378 200.822 54.3573 201.287C57.3838 202.903 60.4728 203.081 63.66 201.742C65.8116 200.84 68.115 200.644 70.4273 200.572Z" fill="#F9AD8B"/>
<path d="M277.453 299.135C277.23 297.126 277.792 295.091 278.846 293.636C282.14 289.065 281.944 283.958 281.935 278.762C281.908 256.826 281.961 234.891 281.979 212.964C284.015 213.027 285.791 214.5 287.916 214.045C288.675 214.821 289.639 215.027 290.684 215C290.737 215.205 290.764 215.42 290.782 215.634C290.809 238.48 290.898 261.326 290.791 284.172C290.773 288.538 293.193 290.475 296.576 292.529C296.871 290.814 296.112 290.189 295.442 289.698C292.246 287.341 291.612 284.199 291.648 280.369C291.809 260.639 291.755 240.908 291.675 221.178C291.666 219.008 292.094 217.16 293.407 215.482C294.237 214.991 295.067 214.491 295.907 214C296.728 214.036 297.523 214.018 297.987 213.161C298.585 212.982 299.183 212.795 299.781 212.616C301.058 212.438 302.192 212.75 303.165 213.616C302.843 216.634 302.781 219.642 303.21 222.66C303.013 223.365 302.638 224.071 302.647 224.767C302.799 245.542 302.977 266.308 303.21 287.083C303.227 288.645 303.049 290.448 304.906 291.35C304.942 291.77 304.977 292.18 305.013 292.6C304.897 293.466 305.165 294.162 305.888 294.671C306.058 296.251 306.227 297.832 306.388 299.403C296.737 299.305 287.095 299.224 277.453 299.135Z" fill="#31A790"/>
<path d="M109.638 25.9103C102.835 25.0532 96.0679 24.7407 89.6042 22.4909C84.7029 20.7768 82.3371 14.9738 85.0511 10.1617C91.6933 -1.62293 105.005 -3.97986 113.459 7.46552C116.941 12.1794 117.289 18.1431 114.923 23.9015C113.798 26.6334 111.415 25.4103 109.638 25.9103Z" fill="#F2F9F3"/>
<path d="M371.159 216.009C371.15 222.25 367.748 227.24 362.463 228.981C359.508 229.954 357.196 228.454 356.366 225.963C355.107 222.196 352.866 218.857 352.152 214.831C351.562 211.5 350.723 208.483 353.866 205.947C357.482 203.028 361.481 203.965 364.704 205.814C368.463 207.974 372.159 210.974 371.159 216.009Z" fill="#F2F9F3"/>
<path d="M48.0366 299.26C48.4384 298.858 48.8312 298.126 49.2419 298.117C56.1966 298.037 63.1602 298.028 70.115 298.09C70.5256 298.09 70.9363 298.814 71.347 299.197C63.5798 299.84 55.8038 299.814 48.0366 299.26Z" fill="#FBC09F"/>
<path d="M234.716 24.9103C237.216 24.6961 238.349 26.0174 238.171 28.6243C238.073 30.0974 238.108 32.0882 236.001 31.624C233.68 31.1062 231.439 29.6688 231.252 27.0083C231.127 25.1335 232.957 24.8925 234.716 24.9103Z" fill="#F2F9F3"/>
<path d="M216.048 298.037C216.28 298.386 216.512 298.743 216.744 299.091C216.441 299.064 216.137 299.046 215.833 299.019C215.905 298.689 215.976 298.368 216.048 298.037Z" fill="#31A790"/>
<path d="M243.956 185.261C244.028 177.092 244.162 168.923 244.117 160.745C244.108 158.924 244.215 156.746 241.849 155.889C243.537 147.041 240.894 139.39 235.403 132.525C234.814 129.427 233.716 126.525 231.957 123.901C230.341 120.945 228.377 123.811 226.574 123.642C225.101 123.499 223.36 124.159 223.485 126.025C223.592 127.748 224.306 129.927 226.315 129.989C229.047 130.07 229.404 131.587 229.547 133.623L229.225 133.801C224.226 134.65 222.583 138.908 220.342 142.551C218.842 144.381 217.351 146.211 215.852 148.041C211.807 141.979 207.433 136.462 198.934 137.649C199.585 135.694 200.353 133.775 200.853 131.784C201.299 130.016 200.299 128.373 198.603 129.15C195.925 130.373 192.264 130.195 190.899 133.685C190.033 137.051 187.827 132.596 186.676 134.391C190.122 139.417 190.122 140.194 186.685 141.381C181.123 138.39 176.659 141.131 172.24 144.14C170.999 141.149 170.088 137.98 167.758 135.542C171.186 131.337 175.891 128.213 178.212 123.07C187.693 117.669 196.621 111.17 206.986 107.509C220.494 102.733 233.966 99.0278 248.849 102.144C263.285 105.161 274.462 112.071 283.024 123.74C293.237 137.649 293.836 152.684 288.8 168.655C287.086 174.092 286.47 179.895 286.336 185.672C285.729 185.645 285.122 185.609 284.515 185.582C275.623 181.547 271.222 183.44 266.651 190.207C262.696 196.072 258.928 202.063 255.08 208C253.455 205.786 254.768 203.474 255.687 201.84C257.401 198.795 256.75 196.064 255.643 193.385C253.536 188.261 249.375 185.77 243.956 185.261Z" fill="#ADD9B5"/>
<path d="M51.5985 199.912C46.4115 198.447 46.4115 198.447 46.3758 204.054C46.3312 210.652 46.2687 217.249 46.224 223.847C42.528 214.741 40.7513 204.929 41.2513 195.466C42.3226 175.101 48.5095 156.291 64.3742 142.078C70.695 136.417 77.9801 132.284 86.2829 130.248C87.5506 129.936 88.1756 128.882 89.3272 128.623C89.4612 131.239 88.3898 133.962 90.0325 136.444C91.3092 142.944 96.398 146.684 105.21 147.613C105.611 148.952 106.013 150.291 106.415 151.639C106.263 154.451 106.156 157.264 106.701 160.058C104.058 165.745 105.817 171.745 105.469 177.601C105.067 178.306 104.665 179.003 104.263 179.708C100.21 183.368 98.9603 188.832 95.6749 192.975C95.3624 187.922 95.5856 182.806 91.6752 178.664C89.6129 176.476 88.0863 173.78 86.3097 171.307C85.8008 168.879 88.0506 165.87 84.7652 164.031C79.1228 164.004 73.4805 163.968 67.8471 163.951C61.3298 163.942 61.3298 163.951 61.4548 170.361C58.4818 174.834 55.5 179.315 52.527 183.788C50.679 189.073 52.1342 194.555 51.5985 199.912Z" fill="#ADD9B5"/>
<path d="M106.424 151.64C106.022 150.301 105.621 148.962 105.219 147.623C104.835 144.596 103.237 140.543 101.148 140.471C96.7376 140.32 93.9075 137.186 90.0418 136.445C88.3901 133.963 89.4704 131.24 89.3365 128.624C89.3365 128.624 89.2829 128.526 89.274 128.526C89.8454 128.41 89.8364 127.99 89.7918 127.544C92.1487 121.063 96.8447 117.572 103.648 117.018C105.969 116.831 107.254 116.126 108.147 113.724C110.656 106.992 116.129 103.448 123.119 103.475C129.752 103.493 135.493 107.358 137.796 114.081C138.832 117.099 139.93 118.902 143.394 118.831C145.474 118.786 146.733 121.277 148.974 121.241C150.634 125.616 153.152 129.964 149.152 134.436C148.92 134.695 149.045 135.284 149.001 135.722C148.09 136.838 147.179 137.954 146.269 139.079C142.742 140.114 139.394 141.864 135.582 141.811C134.252 141.793 133.475 142.507 132.913 143.748C128.636 153.051 117.129 156.434 108.692 150.176C106.255 148.364 107.308 150.747 106.987 151.506C106.808 151.542 106.612 151.578 106.424 151.64Z" fill="#109278"/>
<path d="M304.897 291.332C303.031 290.43 303.219 288.618 303.201 287.065C302.969 266.29 302.799 245.524 302.639 224.749C302.63 224.052 303.005 223.347 303.201 222.642C304.558 226.508 305.692 230.463 307.308 234.212C310.254 241.069 311.557 248.363 312.04 255.621C312.397 260.951 310.549 266.388 310.191 271.816C309.736 278.726 305.826 284.609 304.897 291.332Z" fill="#2CA043"/>
<path d="M157.152 114.045C159.223 107.652 161.321 105.76 165.874 106.295C166.365 106.349 166.803 106.849 167.267 107.144C165.49 107.17 163.562 106.635 162.124 108.438C169.865 111.643 170.838 114.134 167.669 121.419C166.017 125.204 163.705 128.713 162.865 132.829C162.419 132.766 161.973 132.695 161.526 132.632C161.169 132.516 160.821 132.4 160.473 132.293C159.767 132.222 159.053 132.159 158.348 132.088L158.169 132.213C157.25 126.178 158.651 120.035 157.152 114.045Z" fill="#1FB795"/>
<path d="M162.856 132.829C163.696 128.704 166.017 125.196 167.66 121.419C170.829 114.134 169.856 111.643 162.115 108.438C163.553 106.626 165.481 107.171 167.258 107.144C167.695 107.394 168.124 107.635 168.561 107.885C168.901 108.162 169.24 108.438 169.57 108.724C171.579 112.911 172.213 117.964 177.15 120.321C177.793 120.634 177.882 122.125 178.221 123.071C175.909 128.204 171.195 131.338 167.767 135.543C166.133 134.623 164.499 133.722 162.856 132.829Z" fill="#109278"/>
<path d="M284.533 185.565C285.14 185.592 285.747 185.628 286.363 185.655C294.309 189.788 297.523 196.484 297.041 205.224C296.934 207.126 296.916 209.036 296.862 210.947C295.898 211.759 295.987 212.893 295.907 213.982C295.077 214.473 294.246 214.973 293.416 215.464C292.541 215.518 291.666 215.571 290.791 215.625C290.773 215.411 290.738 215.205 290.693 214.991C291.318 210.509 292.452 206.037 292.443 201.555C292.425 195.136 289.434 189.779 284.533 185.565Z" fill="#BA7472"/>
<path d="M157.151 114.045C158.651 120.035 157.25 126.178 158.16 132.204C157.276 132.302 156.393 132.409 155.518 132.508C155.125 126.392 151.491 121 151.518 114.786C153.143 112.563 155.214 113.795 157.151 114.045Z" fill="#109278"/>
<path d="M151.518 114.786C151.492 120.999 155.125 126.383 155.509 132.507C153.34 133.587 151.179 134.659 149.01 135.739C149.054 135.302 148.92 134.712 149.161 134.453C153.161 129.981 150.643 125.633 148.983 121.258C149.01 118.776 147.903 115.848 151.518 114.786Z" fill="#128069"/>
<path d="M303.156 213.599C302.183 212.742 301.049 212.42 299.772 212.599C301.558 210.706 302.79 210.688 303.156 213.599Z" fill="#DCD9EB"/>
<path d="M295.906 213.982C295.987 212.893 295.898 211.759 296.862 210.947C297.237 211.679 297.612 212.411 297.987 213.143C297.522 214 296.728 214.027 295.906 213.982Z" fill="#DCD9EB"/>
<path d="M305.87 294.654C305.156 294.145 304.879 293.439 304.995 292.582C305.906 293.011 305.995 293.788 305.87 294.654Z" fill="#DCD9EB"/>
<path d="M169.579 108.715C169.24 108.438 168.901 108.161 168.57 107.876C168.901 108.152 169.24 108.429 169.579 108.715Z" fill="#1FB795"/>
<path d="M89.7917 127.552C89.8364 127.99 89.8453 128.418 89.2739 128.535C89.4436 128.204 89.6221 127.883 89.7917 127.552Z" fill="#DCD9EB"/>
<path d="M198.942 137.632C207.442 136.444 211.816 141.962 215.861 148.024C216.164 151.461 216.468 154.898 216.771 158.335C210.977 163.067 210.977 163.067 204.272 159.023C203.897 158.79 203.469 158.639 203.085 158.424C194.746 153.72 197.416 153.47 189.033 159.71C185.515 162.326 182.721 162.549 179.132 160.317C175.668 158.166 172.391 155.496 168.088 155.032C168.043 154.211 168.008 153.389 167.963 152.577C169.258 151.318 169.302 149.506 170.043 147.997C170.784 146.711 171.525 145.417 172.257 144.131C176.677 141.131 181.14 138.391 186.702 141.372C187.836 141.837 188.979 142.301 190.122 142.774C189.095 143.979 187.685 143.417 186.274 143.515C186.22 143.488 186.328 143.542 186.435 143.587C186.39 143.479 186.372 143.354 186.301 143.274C186.256 143.22 186.149 143.229 186.06 143.212C186.078 143.292 186.095 143.372 186.274 143.524C189.354 147.05 192.211 146.979 194.925 143.292C193.979 142.471 192.559 144.22 191.773 142.747C191.782 141.355 192.532 140.471 193.72 139.881C196.041 140.515 197.63 139.408 198.942 137.632ZM172.07 152.273C173.891 151.764 173.614 149.889 174.463 148.845C175.391 147.702 176.373 146.595 177.257 145.568C173.561 146.345 171.945 148.336 172.07 152.273Z" fill="#1FB795"/>
<path d="M104.273 179.699C104.674 178.994 105.076 178.298 105.478 177.592C107.629 177.307 109.549 176.387 110.924 179.61C112.075 182.306 116.468 181.467 117.843 178.003C120.334 171.754 126.297 173.262 130.779 171.968C133.011 171.325 135.341 173.95 135.181 176.958C134.859 183.145 134.359 189.314 133.931 195.501C130.877 194.841 128.172 194.368 126.056 197.903C124.53 200.447 121.771 201.429 119.075 198.733C118.771 198.43 118.245 198.367 117.914 198.081C114.013 194.698 110.37 195.162 106.638 198.492C105.764 199.278 105.005 200.769 103.344 200.412C103.255 193.493 104.871 186.645 104.273 179.699ZM123.003 188.181C122.021 186.511 121.003 185.234 119.093 185.565C116.379 186.038 115.04 187.779 115.057 190.538C115.066 192.725 116.638 192.653 118.164 192.662C121.271 192.707 121.539 189.921 123.003 188.181Z" fill="#F8DB7A"/>
<path d="M243.956 185.262C249.375 185.771 253.536 188.261 255.66 193.368C256.776 196.046 257.419 198.787 255.705 201.823C254.785 203.456 253.473 205.769 255.098 207.983C254.794 209.554 251.286 209.527 253.045 212.125C251.241 213.223 252.089 210.938 251.241 210.724C247.929 209.92 244.706 207.17 241.305 210.688C238.242 213.866 235.073 213.429 232.163 210.429C230.082 208.286 228.127 208.519 226.092 210.384C226.002 210.152 225.976 209.911 226.02 209.661C226.815 205.474 229.029 201.68 229.35 197.359C231.395 195.011 231.341 191.511 233.886 189.386C236.841 186.922 240.367 186.047 243.956 185.262Z" fill="#BA7472"/>
<path d="M172.257 144.122C171.516 145.408 170.775 146.702 170.043 147.988C168.999 146.693 169.856 145.033 169.284 143.711C168.668 142.283 167.865 139.873 166.356 140.355C163.785 141.167 166.803 142.479 166.722 143.703C166.624 145.318 166.731 146.952 166.82 148.577C166.901 149.979 166.294 151.613 167.963 152.568C168.008 153.389 168.043 154.21 168.088 155.023C165.651 156.933 163.169 158.808 160.776 160.772C158.321 162.781 156.357 162.54 153.839 160.46C151.295 158.362 149.402 154.639 145.081 155.585C143.867 152.961 144.474 150.184 144.376 147.47C145.019 144.676 145.653 141.881 146.295 139.087C147.206 137.971 148.117 136.855 149.027 135.73C151.197 134.65 153.357 133.578 155.527 132.498C156.411 132.4 157.286 132.293 158.169 132.195C158.169 132.195 158.357 132.07 158.357 132.079C158.991 132.659 159.714 132.668 160.491 132.436C160.839 132.498 161.187 132.561 161.544 132.623C161.99 132.686 162.437 132.757 162.883 132.82C164.517 133.721 166.16 134.623 167.794 135.525C170.106 137.953 171.007 141.122 172.257 144.122Z" fill="#F9AD8B"/>
<path d="M229.359 197.359C229.038 201.671 226.824 205.474 226.029 209.661C225.922 207.893 225.547 206.081 225.77 204.349C226.306 200.171 224.931 198.724 220.494 198.823C201.371 199.251 182.23 198.412 163.115 199.671C160.767 199.823 159.768 200.456 159.312 202.822C158.268 208.286 159.214 213.786 158.741 219.232C158.366 223.454 159.821 224.936 164.214 224.874C181.408 224.606 198.612 225.026 215.789 223.945C215.771 225.365 215.753 226.793 215.736 228.213C209.736 226.704 203.647 227.267 197.63 227.766C184.73 228.838 171.829 227.981 158.928 228.24C156.848 228.284 156.116 226.945 156.116 225.035C156.125 216.571 156.134 208.108 156.098 199.644C156.089 197.171 157.277 196.234 159.669 196.234C181.801 196.26 203.933 196.251 226.065 196.234C227.306 196.234 228.359 196.689 229.359 197.359Z" fill="#F2F9F3"/>
<path d="M106.424 151.64C106.612 151.577 106.808 151.542 107.004 151.524C108.12 152.881 108.495 154.631 109.861 155.943C117.521 163.308 128.163 161.103 134.252 153.568C135.502 152.015 135.314 148.899 138.448 149.078C139.493 153.122 139.109 157.255 139.225 161.362C134.52 162.817 129.851 164.362 125.11 165.683C123.583 166.112 121.941 165.978 120.334 165.317C115.834 163.478 111.263 161.809 106.719 160.068C106.165 157.264 106.263 154.452 106.424 151.64Z" fill="#1FB795"/>
<path d="M226.547 157.058C224.985 155.782 223.342 154.719 221.172 155.121C221.476 153.88 221.779 152.639 222.083 151.398C223.253 145.033 225.172 138.971 229.234 133.784L229.556 133.605C229.806 133.623 230.047 133.578 230.279 133.48C230.805 133.614 231.332 133.748 231.859 133.882C231.93 135.828 232.814 137.515 233.466 139.292C236.216 146.809 237.019 154.255 232.198 161.361C230.145 160.853 229.047 159.103 227.582 157.826C231.716 153.951 231.975 148.898 231.814 143.738C231.787 142.979 231.234 142.265 230.448 142.194C229.502 142.104 229.19 142.944 229.279 143.702C229.85 148.47 227.181 152.559 226.547 157.058Z" fill="#F8DB7A"/>
<path d="M232.198 161.371C237.019 154.264 236.216 146.827 233.466 139.301C232.814 137.525 231.93 135.828 231.859 133.891C233.037 133.436 234.216 132.98 235.403 132.525C240.894 139.39 243.536 147.042 241.849 155.889C239.849 157.541 237.876 159.228 235.841 160.844C234.769 161.692 233.68 163.085 232.198 161.371Z" fill="#FAC551"/>
<path d="M139.216 161.353C139.1 157.246 139.484 153.113 138.439 149.068C140.644 149.39 142.394 148.024 144.367 147.47C144.474 150.184 143.867 152.961 145.072 155.585C143.733 158.139 141.635 159.907 139.216 161.353Z" fill="#75C4CA"/>
<path d="M222.074 151.398C221.771 152.639 221.467 153.88 221.163 155.121C219.789 156.326 218.574 157.746 216.753 158.326C216.45 154.889 216.146 151.452 215.843 148.015C217.333 146.185 218.833 144.354 220.333 142.524C220.556 144.47 220.181 146.31 219.673 148.193C219.19 150.023 219.119 151.97 222.074 151.398Z" fill="#FAC551"/>
<path d="M226.547 157.059C227.181 152.551 229.85 148.471 229.27 143.703C229.181 142.944 229.484 142.114 230.439 142.195C231.225 142.266 231.787 142.98 231.805 143.739C231.966 148.89 231.707 153.943 227.574 157.827C227.234 157.577 226.895 157.318 226.547 157.059Z" fill="#FAC551"/>
<path d="M86.3191 171.307C88.0868 173.771 89.6135 176.467 91.6847 178.655C95.5951 182.797 95.3719 187.913 95.6844 192.966C95.5326 193.805 95.3897 194.644 95.2469 195.483C92.8989 195.189 90.8812 195.144 88.9171 197.224C86.087 200.233 82.7302 201.278 79.4091 197.465C78.4895 196.403 77.4628 195.242 75.8647 195.055C76.0076 191.368 76.1504 187.672 76.3022 183.985C76.6861 183.369 76.9807 182.663 77.4807 182.145C80.7214 178.78 81.9713 173.78 86.3191 171.307Z" fill="#75C4CA"/>
<path d="M76.293 183.994C76.1501 187.681 76.0073 191.378 75.8555 195.065C75.1234 195.475 74.3914 195.886 73.6593 196.297C70.9274 196.252 67.8741 195.493 67.0974 199.85C65.3029 196.475 59.9106 195.02 55.777 196.565C53.5718 197.386 54.5718 199.618 54.3396 201.287C53.4201 200.823 52.5094 200.368 51.5899 199.904C52.1255 194.547 50.6703 189.065 52.5184 183.78C60.4551 183.86 68.3741 183.923 76.293 183.994Z" fill="#E9E9F4"/>
<path d="M95.2378 195.493C95.3806 194.654 95.5324 193.814 95.6753 192.975C98.9696 188.833 100.219 183.36 104.273 179.709C104.88 186.654 103.255 193.502 103.353 200.421C100.532 198.966 96.9876 198.707 95.2378 195.493Z" fill="#FAC551"/>
<path d="M54.3488 201.296C54.5809 199.635 53.5721 197.403 55.7862 196.573C59.9197 195.028 65.3121 196.484 67.1066 199.858C67.8833 195.502 70.9277 196.26 73.6685 196.305C73.731 198.591 71.2669 198.974 70.4366 200.581C68.1243 200.653 65.821 200.84 63.6605 201.751C60.4643 203.09 57.3753 202.903 54.3488 201.296Z" fill="#A6D8DB"/>
<path d="M215.78 223.954C198.603 225.034 181.399 224.615 164.204 224.882C159.812 224.954 158.357 223.472 158.732 219.24C159.214 213.794 158.267 208.295 159.303 202.831C159.758 200.465 160.749 199.831 163.106 199.679C182.229 198.421 201.37 199.26 220.485 198.831C224.922 198.733 226.297 200.17 225.761 204.358C225.538 206.09 225.913 207.893 226.02 209.67C225.984 209.92 226.002 210.152 226.1 210.393C224.092 212.884 222.038 214.312 219.351 211.107C218.753 210.393 217.664 209.616 216.646 210.116C215.521 210.669 216.057 211.964 216.021 212.928C215.905 216.589 215.851 220.276 215.78 223.954Z" fill="#ADD9B5"/>
<path d="M287.916 214.045C285.792 214.5 284.015 213.027 281.98 212.964C277.417 208.152 277.391 208.108 272.275 211.75C271.105 212.58 270.007 213.545 268.82 212.206C264.713 207.599 260.356 209.215 255.937 211.518C257.794 206.161 261.892 202.135 264.481 197.207C265.124 195.993 266.338 194.377 267.865 194.618C270.445 195.02 270.106 193.52 270.472 191.913C271.891 185.762 277.587 183.476 282.765 187.029C285.104 188.636 286.693 190.993 287.336 193.886C288.809 200.573 288.943 207.286 287.916 214.045Z" fill="#BA7472"/>
<path d="M287.916 214.044C288.943 207.286 288.809 200.572 287.327 193.886C286.684 190.993 285.095 188.636 282.756 187.029C277.578 183.476 271.882 185.761 270.463 191.913C270.088 193.52 270.436 195.019 267.856 194.618C266.329 194.377 265.115 195.993 264.472 197.207C261.874 202.135 257.785 206.161 255.928 211.518C255.134 212.509 254.089 212.295 253.045 212.125C251.286 209.536 254.795 209.554 255.098 207.983C258.946 202.046 262.704 196.055 266.668 190.19C271.239 183.422 275.641 181.53 284.533 185.565C289.434 189.779 292.416 195.135 292.434 201.563C292.443 206.036 291.309 210.518 290.684 215C289.64 215.027 288.684 214.821 287.916 214.044Z" fill="#F9AD8B"/>
<path d="M290.782 215.625C291.657 215.572 292.532 215.518 293.407 215.464C292.095 217.143 291.666 218.991 291.675 221.16C291.755 240.891 291.809 260.621 291.648 280.351C291.613 284.181 292.246 287.324 295.443 289.681C296.112 290.172 296.871 290.797 296.576 292.511C293.193 290.466 290.773 288.529 290.791 284.155C290.898 261.326 290.809 238.471 290.782 215.625Z" fill="#109278"/>
<path d="M198.942 137.632C197.639 139.4 196.05 140.516 193.711 139.864C192.015 138.141 190.318 136.427 190.907 133.677C192.273 130.186 195.934 130.374 198.612 129.142C200.308 128.365 201.299 129.999 200.862 131.775C200.362 133.757 199.585 135.686 198.942 137.632Z" fill="#128069"/>
<path d="M222.074 151.399C219.11 151.961 219.182 150.024 219.682 148.203C220.191 146.319 220.565 144.471 220.342 142.534C222.583 138.891 224.226 134.633 229.225 133.784C225.163 138.98 223.244 145.033 222.074 151.399Z" fill="#F9AD8B"/>
<path d="M230.279 133.481C230.047 133.579 229.806 133.623 229.556 133.606C229.413 131.579 229.056 130.052 226.324 129.972C224.306 129.91 223.601 127.731 223.494 126.008C223.378 124.151 225.11 123.491 226.583 123.624C228.377 123.794 230.35 120.928 231.966 123.883C230.859 124.142 228.725 123.642 229.806 125.847C231.038 128.428 230.065 130.954 230.279 133.481Z" fill="#31A790"/>
<path d="M230.279 133.481C230.074 130.954 231.038 128.428 229.797 125.857C228.725 123.651 230.859 124.151 231.957 123.892C233.716 126.526 234.814 129.419 235.403 132.517C234.225 132.972 233.046 133.427 231.859 133.874C231.332 133.758 230.806 133.624 230.279 133.481Z" fill="#128069"/>
<path d="M190.907 133.669C190.318 136.418 192.014 138.141 193.711 139.855C192.523 140.445 191.773 141.329 191.764 142.721C191.211 142.73 190.666 142.748 190.113 142.757C188.97 142.293 187.836 141.82 186.693 141.355C190.131 140.168 190.131 139.4 186.685 134.365C187.827 132.588 190.041 137.034 190.907 133.669Z" fill="#31A790"/>
<path d="M76.293 183.994C68.3741 183.922 60.4552 183.86 52.5273 183.789C55.5003 179.316 58.4822 174.834 61.4551 170.361C67.0528 170.361 72.6416 170.361 78.2393 170.361C84.5423 170.361 84.5423 170.361 84.7655 164.031C88.0509 165.871 85.8011 168.879 86.31 171.308C81.9621 173.781 80.7123 178.78 77.4626 182.155C76.9715 182.673 76.6769 183.378 76.293 183.994Z" fill="#A6D8DB"/>
<path d="M84.7742 164.031C84.5421 170.361 84.5421 170.361 78.248 170.361C72.6503 170.361 67.0615 170.361 61.4638 170.361C61.3299 163.951 61.3299 163.942 67.8561 163.951C73.4895 163.969 79.1319 164.004 84.7742 164.031Z" fill="#75C4CA"/>
<path d="M90.0415 136.444C93.9072 137.185 96.7462 140.319 101.148 140.471C103.228 140.542 104.835 144.595 105.219 147.622C96.407 146.684 91.3182 142.944 90.0415 136.444Z" fill="#128069"/>
<path d="M144.367 147.47C142.394 148.024 140.644 149.39 138.439 149.068C135.306 148.89 135.502 152.006 134.243 153.559C128.163 161.094 117.513 163.299 109.852 155.934C108.495 154.622 108.112 152.881 106.996 151.515C107.317 150.756 106.264 148.372 108.701 150.184C117.129 156.434 128.645 153.059 132.922 143.756C133.493 142.515 134.261 141.81 135.591 141.819C139.403 141.864 142.742 140.114 146.278 139.087C145.644 141.882 145.001 144.676 144.367 147.47Z" fill="#128069"/>
<path d="M160.481 132.436C159.714 132.668 158.982 132.659 158.348 132.079C159.053 132.15 159.758 132.213 160.472 132.284L160.481 132.436Z" fill="#128069"/>
<path d="M160.482 132.436L160.473 132.275C160.821 132.391 161.178 132.508 161.526 132.624C161.178 132.57 160.83 132.508 160.482 132.436Z" fill="#109278"/>
<path d="M167.954 152.559C166.285 151.604 166.892 149.97 166.811 148.568C166.722 146.944 166.615 145.31 166.713 143.694C166.793 142.471 163.776 141.158 166.347 140.346C167.847 139.873 168.65 142.283 169.275 143.703C169.847 145.024 168.99 146.676 170.034 147.979C169.302 149.488 169.249 151.309 167.954 152.559Z" fill="#FBC09F"/>
<path d="M190.113 142.765C190.666 142.756 191.211 142.738 191.764 142.729C192.55 144.203 193.969 142.453 194.916 143.274C192.202 146.961 189.345 147.042 186.426 143.578C187.675 143.408 189.086 143.962 190.113 142.765Z" fill="#109278"/>
<path d="M172.07 152.274C171.954 148.345 173.57 146.346 177.257 145.569C176.373 146.604 175.391 147.703 174.462 148.845C173.605 149.89 173.891 151.765 172.07 152.274Z" fill="#75C4CA"/>
<path d="M186.105 143.435C186.087 143.355 186.069 143.274 186.051 143.194C186.131 143.212 186.247 143.212 186.292 143.257C186.364 143.337 186.381 143.462 186.426 143.569C186.319 143.524 186.212 143.48 186.105 143.435Z" fill="#109278"/>
<path d="M123.003 188.181C121.548 189.913 121.28 192.698 118.164 192.663C116.638 192.645 115.075 192.716 115.057 190.538C115.048 187.788 116.379 186.038 119.093 185.565C121.003 185.244 122.021 186.52 123.003 188.181Z" fill="#FAC551"/>
</svg>
