<svg width="13" height="13" viewBox="0 0 13 13" fill="none" xmlns="http://www.w3.org/2000/svg">
<mask id="path-1-inside-1_26_2672" fill="white">
<path d="M12.434 6.20518C12.436 7.37904 12.1056 8.52948 11.4811 9.52344C10.8567 10.5174 9.96354 11.3143 8.9051 11.8218C7.84666 12.3294 6.66615 12.527 5.50011 12.3917C4.33408 12.2564 3.23017 11.7938 2.31608 11.0573C2.25059 11.0042 2.19699 10.938 2.15877 10.8628C2.12056 10.7877 2.09857 10.7054 2.09424 10.6212C2.08991 10.537 2.10334 10.4528 2.13365 10.3742C2.16396 10.2955 2.21048 10.2241 2.27018 10.1646L2.55004 9.88472C2.65389 9.77907 2.79302 9.71536 2.94086 9.70576C3.0887 9.69616 3.23489 9.74133 3.35154 9.83266C4.04408 10.3813 4.87962 10.7195 5.7588 10.8071C6.63798 10.8946 7.52381 10.7278 8.31094 10.3265C9.09806 9.92518 9.75337 9.30624 10.1989 8.54329C10.6445 7.78033 10.8616 6.90547 10.8243 6.02272C10.7871 5.13998 10.4971 4.28651 9.98881 3.5638C9.48056 2.8411 8.77543 2.27957 7.95729 1.94599C7.13915 1.61242 6.24243 1.52084 5.37375 1.68214C4.50507 1.84344 3.70099 2.25084 3.05714 2.85588L4.33104 4.1281C4.38726 4.18432 4.42552 4.25599 4.44095 4.33399C4.45639 4.412 4.4483 4.49283 4.41771 4.56623C4.38713 4.63963 4.33543 4.70229 4.26918 4.74625C4.20292 4.79022 4.1251 4.81352 4.04558 4.81318H0.401312C0.348611 4.81318 0.296426 4.8028 0.247737 4.78264C0.199047 4.76247 0.154807 4.73291 0.117542 4.69564C0.0802763 4.65838 0.0507159 4.61414 0.0305481 4.56545C0.0103803 4.51676 0 4.46457 0 4.41187V0.7676C0.000109269 0.688342 0.0236851 0.610892 0.0677542 0.545015C0.111823 0.479138 0.174412 0.427786 0.247628 0.397434C0.320844 0.367082 0.401408 0.35909 0.479161 0.374465C0.556913 0.38984 0.628372 0.427894 0.684525 0.483827L1.92428 1.72191C2.80385 0.881504 3.91066 0.317631 5.10757 0.100151C6.30449 -0.117328 7.53891 0.0211439 8.6579 0.49841C9.77688 0.975677 10.7313 1.77076 11.4028 2.78516C12.0743 3.79955 12.4334 4.98867 12.4356 6.20518H12.434ZM7.90031 8.1804L8.14658 7.8636C8.24443 7.73763 8.28825 7.57796 8.26841 7.41968C8.24858 7.26141 8.16671 7.11749 8.04079 7.01956L7.01764 6.22589V3.60981C7.01764 3.45023 6.95425 3.29719 6.84141 3.18435C6.72857 3.07151 6.57553 3.00812 6.41596 3.00812H6.01464C5.85507 3.00812 5.70202 3.07151 5.58919 3.18435C5.47635 3.29719 5.41295 3.45023 5.41295 3.60981V7.01061L7.05291 8.28618C7.17888 8.38403 7.33855 8.42786 7.49683 8.40802C7.6551 8.38818 7.79902 8.30631 7.89695 8.1804H7.90031Z"/>
</mask>
<path d="M12.434 6.20518C12.436 7.37904 12.1056 8.52948 11.4811 9.52344C10.8567 10.5174 9.96354 11.3143 8.9051 11.8218C7.84666 12.3294 6.66615 12.527 5.50011 12.3917C4.33408 12.2564 3.23017 11.7938 2.31608 11.0573C2.25059 11.0042 2.19699 10.938 2.15877 10.8628C2.12056 10.7877 2.09857 10.7054 2.09424 10.6212C2.08991 10.537 2.10334 10.4528 2.13365 10.3742C2.16396 10.2955 2.21048 10.2241 2.27018 10.1646L2.55004 9.88472C2.65389 9.77907 2.79302 9.71536 2.94086 9.70576C3.0887 9.69616 3.23489 9.74133 3.35154 9.83266C4.04408 10.3813 4.87962 10.7195 5.7588 10.8071C6.63798 10.8946 7.52381 10.7278 8.31094 10.3265C9.09806 9.92518 9.75337 9.30624 10.1989 8.54329C10.6445 7.78033 10.8616 6.90547 10.8243 6.02272C10.7871 5.13998 10.4971 4.28651 9.98881 3.5638C9.48056 2.8411 8.77543 2.27957 7.95729 1.94599C7.13915 1.61242 6.24243 1.52084 5.37375 1.68214C4.50507 1.84344 3.70099 2.25084 3.05714 2.85588L4.33104 4.1281C4.38726 4.18432 4.42552 4.25599 4.44095 4.33399C4.45639 4.412 4.4483 4.49283 4.41771 4.56623C4.38713 4.63963 4.33543 4.70229 4.26918 4.74625C4.20292 4.79022 4.1251 4.81352 4.04558 4.81318H0.401312C0.348611 4.81318 0.296426 4.8028 0.247737 4.78264C0.199047 4.76247 0.154807 4.73291 0.117542 4.69564C0.0802763 4.65838 0.0507159 4.61414 0.0305481 4.56545C0.0103803 4.51676 0 4.46457 0 4.41187V0.7676C0.000109269 0.688342 0.0236851 0.610892 0.0677542 0.545015C0.111823 0.479138 0.174412 0.427786 0.247628 0.397434C0.320844 0.367082 0.401408 0.35909 0.479161 0.374465C0.556913 0.38984 0.628372 0.427894 0.684525 0.483827L1.92428 1.72191C2.80385 0.881504 3.91066 0.317631 5.10757 0.100151C6.30449 -0.117328 7.53891 0.0211439 8.6579 0.49841C9.77688 0.975677 10.7313 1.77076 11.4028 2.78516C12.0743 3.79955 12.4334 4.98867 12.4356 6.20518H12.434ZM7.90031 8.1804L8.14658 7.8636C8.24443 7.73763 8.28825 7.57796 8.26841 7.41968C8.24858 7.26141 8.16671 7.11749 8.04079 7.01956L7.01764 6.22589V3.60981C7.01764 3.45023 6.95425 3.29719 6.84141 3.18435C6.72857 3.07151 6.57553 3.00812 6.41596 3.00812H6.01464C5.85507 3.00812 5.70202 3.07151 5.58919 3.18435C5.47635 3.29719 5.41295 3.45023 5.41295 3.60981V7.01061L7.05291 8.28618C7.17888 8.38403 7.33855 8.42786 7.49683 8.40802C7.6551 8.38818 7.79902 8.30631 7.89695 8.1804H7.90031Z" fill="#FEFEFE"/>
<path d="M12.434 6.20518V-95.5928H-89.5394L-89.3639 6.38038L12.434 6.20518ZM2.31608 11.0573L-61.7804 90.1425L-61.6656 90.2355L-61.5507 90.3282L2.31608 11.0573ZM2.27018 10.1646L74.1389 82.2598L74.1956 82.2032L74.2522 82.1466L2.27018 10.1646ZM2.55004 9.88472L74.5321 81.8668L74.8405 81.5583L75.1463 81.2472L2.55004 9.88472ZM3.35154 9.83266L66.5656 -69.9597L66.3372 -70.1406L66.1078 -70.3202L3.35154 9.83266ZM3.05714 2.85588L-66.6544 -71.3272L-143.229 0.631695L-68.8774 74.8854L3.05714 2.85588ZM4.33104 4.1281L76.3115 -67.8555L76.2886 -67.8784L76.2656 -67.9014L4.33104 4.1281ZM4.04558 4.81318L4.47368 -96.9839L4.25963 -96.9848H4.04558V4.81318ZM0 0.7676L-101.798 0.627256L-101.798 0.697428V0.7676H0ZM0.684525 0.483827L72.6178 -71.547L72.5716 -71.5931L72.5253 -71.6392L0.684525 0.483827ZM1.92428 1.72191L-70.009 73.7527L0.352703 144.019L72.2491 75.3239L1.92428 1.72191ZM12.4356 6.20518V108.003H114.422L114.233 6.01656L12.4356 6.20518ZM7.90031 8.1804V109.978H57.7035L88.2701 70.6586L7.90031 8.1804ZM8.14658 7.8636L88.5164 70.3418L88.5288 70.3258L88.5412 70.3098L8.14658 7.8636ZM8.04079 7.01956L70.5379 -73.3355L70.4865 -73.3755L70.4351 -73.4154L8.04079 7.01956ZM7.01764 6.22589H-94.7803V56.095L-55.3767 86.6608L7.01764 6.22589ZM7.01764 3.60981H-94.7803H7.01764ZM6.01464 3.00812V-98.7899V3.00812ZM5.41295 7.01061H-96.385V56.7969L-57.0868 87.3636L5.41295 7.01061ZM7.05291 8.28618L-55.4469 88.6392L-55.4201 88.66L-55.3933 88.6808L7.05291 8.28618ZM7.89695 8.1804V-93.6176H-41.8914L-72.4581 -54.3167L7.89695 8.1804ZM-89.3639 6.38038C-89.3949 -11.6659 -84.3165 -29.3522 -74.7159 -44.6327L97.6782 63.6796C108.528 46.4111 114.267 26.4239 114.232 6.02999L-89.3639 6.38038ZM-74.7159 -44.6327C-65.1154 -59.9133 -51.3851 -72.1638 -35.1132 -79.9671L52.9234 103.611C71.3122 94.7923 86.8287 80.9481 97.6782 63.6796L-74.7159 -44.6327ZM-35.1132 -79.9671C-18.8413 -87.7705 -0.692753 -90.8078 17.2332 -88.7278L-6.23301 113.511C14.025 115.862 34.5346 112.429 52.9234 103.611L-35.1132 -79.9671ZM17.2332 -88.7278C35.1592 -86.6478 52.1301 -79.5355 66.1828 -68.2135L-61.5507 90.3282C-45.6697 103.123 -26.491 111.161 -6.23301 113.511L17.2332 -88.7278ZM66.4125 -68.0279C77.4378 -59.0922 86.4602 -47.9376 92.894 -35.2885L-88.5765 57.0142C-82.0662 69.8135 -72.9367 81.1007 -61.7804 90.1425L66.4125 -68.0279ZM92.894 -35.2885C99.3279 -22.6392 103.029 -8.77816 103.758 5.39457L-99.5695 15.8478C-98.8322 30.1889 -95.0868 44.2146 -88.5765 57.0142L92.894 -35.2885ZM103.758 5.39457C104.487 19.5674 102.226 33.7349 97.1233 46.9773L-92.856 -26.2289C-98.0194 -12.8293 -100.307 1.5066 -99.5695 15.8478L103.758 5.39457ZM97.1233 46.9773C92.0206 60.2196 84.1896 72.2406 74.1389 82.2598L-69.5985 -61.9306C-79.7686 -51.7925 -87.6926 -39.6286 -92.856 -26.2289L97.1233 46.9773ZM74.2522 82.1466L74.5321 81.8668L-69.432 -62.0973L-69.7119 -61.8175L74.2522 82.1466ZM75.1463 81.2472C57.7117 98.9833 34.3562 109.678 9.53814 111.29L-3.65642 -91.8782C-28.7702 -90.2472 -52.4039 -79.4252 -70.0463 -61.4778L75.1463 81.2472ZM9.53814 111.29C-15.2798 112.902 -39.8224 105.318 -59.4047 89.9855L66.1078 -70.3202C46.2922 -85.835 21.4572 -93.5092 -3.65642 -91.8782L9.53814 111.29ZM-59.8625 89.625C-43.8859 102.282 -24.6103 110.084 -4.32779 112.104L15.8454 -90.49C34.3695 -88.6454 51.9741 -81.5195 66.5656 -69.9597L-59.8625 89.625ZM-4.32779 112.104C15.9547 114.124 36.3904 110.276 54.5492 101.017L-37.9273 -80.3645C-21.3428 -88.82 -2.67871 -92.3345 15.8454 -90.49L-4.32779 112.104ZM54.5492 101.017C72.708 91.7593 87.8257 77.4807 98.1047 59.8795L-77.7068 -42.7929C-68.319 -58.8682 -54.5118 -71.909 -37.9273 -80.3645L54.5492 101.017ZM98.1047 59.8795C108.384 42.2784 113.391 22.0954 112.532 1.73086L-90.8832 10.3146C-91.668 -8.28451 -87.0946 -26.7177 -77.7068 -42.7929L98.1047 59.8795ZM112.532 1.73086C111.672 -18.6337 104.982 -38.3231 93.2571 -54.9957L-73.2795 62.1233C-83.9882 46.8961 -90.0983 28.9137 -90.8832 10.3146L112.532 1.73086ZM93.2571 -54.9957C81.5319 -71.6683 65.265 -84.6226 46.3908 -92.318L-30.4762 96.21C-47.7141 89.1817 -62.5708 77.3505 -73.2795 62.1233L93.2571 -54.9957ZM46.3908 -92.318C27.5166 -100.013 6.82929 -102.126 -13.2109 -98.405L23.9584 101.769C5.65556 105.168 -13.2383 103.238 -30.4762 96.21L46.3908 -92.318ZM-13.2109 -98.405C-33.2511 -94.6839 -51.8009 -85.2854 -66.6544 -71.3272L72.7686 77.039C59.2029 89.787 42.2612 98.3707 23.9584 101.769L-13.2109 -98.405ZM-68.8774 74.8854L-67.6035 76.1576L76.2656 -67.9014L74.9917 -69.1736L-68.8774 74.8854ZM-67.6495 76.1117C-81.8562 61.9055 -91.5224 43.7992 -95.4215 24.0904L104.303 -15.4224C100.373 -35.2873 90.6307 -53.5369 76.3115 -67.8555L-67.6495 76.1117ZM-95.4215 24.0904C-99.3206 4.38164 -97.2769 -16.0413 -89.5497 -34.5868L98.3851 43.7193C106.174 25.027 108.233 4.44235 104.303 -15.4224L-95.4215 24.0904ZM-89.5497 -34.5868C-81.8223 -53.1324 -68.7598 -68.9642 -52.02 -80.0733L60.5583 89.5658C77.4307 78.3688 90.5966 62.4117 98.3851 43.7193L-89.5497 -34.5868ZM-52.02 -80.0733C-35.2799 -91.1826 -15.6169 -97.0684 4.47368 -96.9839L3.61749 106.61C23.8671 106.695 43.6857 100.763 60.5583 89.5658L-52.02 -80.0733ZM4.04558 -96.9848H0.401312V106.611H4.04558V-96.9848ZM0.401312 -96.9848C13.7165 -96.9848 26.9018 -94.3622 39.2041 -89.2664L-38.7087 98.8317C-26.3089 103.968 -13.0193 106.611 0.401312 106.611V-96.9848ZM39.2041 -89.2664C51.5061 -84.1708 62.684 -76.702 72.0996 -67.2864L-71.8645 76.6777C-62.3744 86.1678 -51.108 93.6957 -38.7087 98.8317L39.2041 -89.2664ZM72.0996 -67.2864C81.5152 -57.8708 88.984 -46.6929 94.0796 -34.3909L-94.0185 43.5218C-88.8826 55.9212 -81.3546 67.1875 -71.8645 76.6777L72.0996 -67.2864ZM94.0796 -34.3909C99.1753 -22.089 101.798 -8.90376 101.798 4.41187H-101.798C-101.798 17.8329 -99.1545 31.1225 -94.0185 43.5218L94.0796 -34.3909ZM101.798 4.41187V0.7676H-101.798V4.41187H101.798ZM101.798 0.907944C101.77 20.9335 95.8135 40.5024 84.6789 57.147L-84.5434 -56.0569C-95.7662 -39.2806 -101.77 -19.5568 -101.798 0.627256L101.798 0.907944ZM84.6789 57.147C73.5443 73.7915 57.7303 86.7663 39.2314 94.4352L-38.7361 -93.6403C-57.3815 -85.9108 -73.3206 -72.8332 -84.5434 -56.0569L84.6789 57.147ZM39.2314 94.4352C20.7324 102.104 0.376895 104.123 -19.2682 100.239L20.2266 -99.4898C0.425922 -103.405 -20.0907 -101.37 -38.7361 -93.6403L39.2314 94.4352ZM-19.2682 100.239C-38.9134 96.354 -56.9684 86.7392 -71.1563 72.6068L72.5253 -71.6392C58.2251 -85.8834 40.0273 -95.5743 20.2266 -99.4898L-19.2682 100.239ZM-71.2487 72.5146L-70.009 73.7527L73.8575 -70.3089L72.6178 -71.547L-71.2487 72.5146ZM72.2491 75.3239C58.7259 88.245 41.7088 96.9145 23.3062 100.258L-13.0911 -100.058C-33.8875 -96.2792 -53.1182 -86.482 -68.4005 -71.88L72.2491 75.3239ZM23.3062 100.258C4.90372 103.602 -14.0755 101.473 -31.2798 94.135L48.5956 -93.1382C29.1533 -101.431 7.70526 -103.837 -13.0911 -100.058L23.3062 100.258ZM-31.2798 94.135C-48.4841 86.7971 -63.1574 74.5727 -73.4817 58.9765L96.2872 -53.4061C84.6199 -71.0312 68.0378 -84.8457 48.5956 -93.1382L-31.2798 94.135ZM-73.4817 58.9765C-83.8059 43.3803 -89.3275 25.0976 -89.3622 6.39381L114.233 6.01656C114.194 -15.1203 107.954 -35.7812 96.2872 -53.4061L-73.4817 58.9765ZM12.4356 -95.5928H12.434V108.003H12.4356V-95.5928ZM88.2701 70.6586L88.5164 70.3418L-72.2232 -54.6146L-72.4695 -54.2978L88.2701 70.6586ZM88.5412 70.3098C105.194 48.8707 112.652 21.6963 109.276 -5.23977L-92.7393 20.0791C-96.0756 -6.54039 -88.7051 -33.3954 -72.2481 -54.5826L88.5412 70.3098ZM109.276 -5.23977C105.9 -32.1757 91.9666 -56.669 70.5379 -73.3355L-54.4564 87.3746C-75.6332 70.904 -89.4031 46.6985 -92.7393 20.0791L109.276 -5.23977ZM70.4351 -73.4154L69.4119 -74.209L-55.3767 86.6608L-54.3535 87.4545L70.4351 -73.4154ZM108.816 6.22589V3.60981H-94.7803V6.22589H108.816ZM108.816 3.60981C108.816 -23.5483 98.0271 -49.594 78.8235 -68.7977L-65.1406 75.1664C-84.1186 56.1884 -94.7803 30.4487 -94.7803 3.60981H108.816ZM78.8235 -68.7977C59.6198 -88.0014 33.574 -98.7899 6.41596 -98.7899V104.806C-20.4229 104.806 -46.1626 94.1444 -65.1406 75.1664L78.8235 -68.7977ZM6.41596 -98.7899H6.01464V104.806H6.41596V-98.7899ZM6.01464 -98.7899C-21.1435 -98.7899 -47.1892 -88.0013 -66.3929 -68.7977L77.5712 75.1664C58.5933 94.1443 32.8536 104.806 6.01464 104.806V-98.7899ZM-66.3929 -68.7977C-85.5965 -49.594 -96.385 -23.5483 -96.385 3.60981H107.211C107.211 30.4487 96.5492 56.1884 77.5712 75.1664L-66.3929 -68.7977ZM-96.385 3.60981V7.01061H107.211V3.60981H-96.385ZM-57.0868 87.3636L-55.4469 88.6392L69.5527 -72.0668L67.9128 -73.3424L-57.0868 87.3636ZM-55.3933 88.6808C-33.9542 105.334 -6.77987 112.792 20.1563 109.416L-5.16264 -92.5997C21.457 -95.936 48.312 -88.5655 69.4991 -72.1085L-55.3933 88.6808ZM20.1563 109.416C47.0922 106.04 71.5856 92.1062 88.252 70.6775L-72.4581 -54.3167C-55.9875 -75.4936 -31.782 -89.2635 -5.16264 -92.5997L20.1563 109.416ZM7.89695 109.978H7.90031V-93.6176H7.89695V109.978Z" fill="white" mask="url(#path-1-inside-1_26_2672)"/>
</svg>
