<svg width="13" height="13" viewBox="0 0 13 13" fill="none" xmlns="http://www.w3.org/2000/svg">
<path d="M8.64574 12.2143H3.56927C2.99518 12.2356 2.43587 12.0295 2.01287 11.6408C1.58986 11.2521 1.33733 10.7121 1.31015 10.1383V7.41679C1.31015 7.30112 1.3561 7.19019 1.43789 7.1084C1.51968 7.02661 1.63061 6.98066 1.74628 6.98066C1.86194 6.98066 1.97287 7.02661 2.05466 7.1084C2.13645 7.19019 2.1824 7.30112 2.1824 7.41679V10.1383C2.2092 10.4808 2.36969 10.7991 2.62918 11.0243C2.88868 11.2495 3.22635 11.3637 3.56927 11.342H8.64574C8.98866 11.3637 9.32634 11.2495 9.58583 11.0243C9.84533 10.7991 10.0058 10.4808 10.0326 10.1383V7.41679C10.0326 7.30112 10.0786 7.19019 10.1604 7.1084C10.2421 7.02661 10.3531 6.98066 10.4687 6.98066C10.5844 6.98066 10.6953 7.02661 10.7771 7.1084C10.8589 7.19019 10.9049 7.30112 10.9049 7.41679V10.1383C10.8777 10.7121 10.6252 11.2521 10.2021 11.6408C9.77914 12.0295 9.21983 12.2356 8.64574 12.2143ZM12.0868 6.41805C12.1276 6.3775 12.1601 6.32926 12.1822 6.27612C12.2044 6.22297 12.2158 6.16597 12.2158 6.10839C12.2158 6.05082 12.2044 5.99381 12.1822 5.94066C12.1601 5.88752 12.1276 5.83928 12.0868 5.79874L6.41715 0.129007C6.37661 0.0881293 6.32837 0.0556835 6.27523 0.0335416C6.22208 0.0113997 6.16508 0 6.10751 0C6.04993 0 5.99293 0.0113997 5.93978 0.0335416C5.88664 0.0556835 5.8384 0.0881293 5.79786 0.129007L0.12826 5.79874C0.0461365 5.88086 0 5.99225 0 6.10839C0 6.22453 0.0461365 6.33592 0.12826 6.41805C0.210384 6.50017 0.321767 6.54631 0.437907 6.54631C0.554048 6.54631 0.665431 6.50017 0.747555 6.41805L6.10751 1.05361L11.4675 6.41805C11.508 6.45892 11.5562 6.49137 11.6094 6.51351C11.6625 6.53565 11.7195 6.54705 11.7771 6.54705C11.8347 6.54705 11.8917 6.53565 11.9448 6.51351C11.998 6.49137 12.0462 6.45892 12.0868 6.41805Z" fill="#FDFDFD"/>
</svg>
