<svg width="13" height="14" viewBox="0 0 13 14" fill="none" xmlns="http://www.w3.org/2000/svg">
<path fill-rule="evenodd" clip-rule="evenodd" d="M0 2.71479C0 1.71192 0.699549 0.898926 1.56248 0.898926C2.42541 0.898926 3.12497 1.71191 3.12497 2.71479C3.12497 3.71765 2.42541 4.53065 1.56248 4.53065C0.699544 4.53065 0 3.71765 0 2.71479ZM1.56248 1.8894C1.17024 1.8894 0.852264 2.25893 0.852264 2.71479C0.852264 3.17063 1.17024 3.54018 1.56248 3.54018C1.95472 3.54018 2.2727 3.17063 2.2727 2.71479C2.2727 2.25894 1.95472 1.8894 1.56248 1.8894Z" fill="#FDFDFD"/>
<path fill-rule="evenodd" clip-rule="evenodd" d="M0.568237 7.3367C0.568237 6.69851 1.01341 6.18115 1.56255 6.18115C2.11168 6.18115 2.55685 6.69851 2.55685 7.3367C2.55685 7.9749 2.11168 8.49225 1.56255 8.49225C1.01341 8.49225 0.568237 7.9749 0.568237 7.3367ZM1.56255 7.17162C1.48409 7.17162 1.4205 7.24551 1.4205 7.3367C1.4205 7.42789 1.48409 7.50178 1.56255 7.50178C1.641 7.50178 1.70459 7.42789 1.70459 7.3367C1.70459 7.24551 1.641 7.17162 1.56255 7.17162Z" fill="#FDFDFD"/>
<path fill-rule="evenodd" clip-rule="evenodd" d="M0.568237 11.9593C0.568237 11.3211 1.01341 10.8037 1.56255 10.8037C2.11168 10.8037 2.55685 11.3211 2.55685 11.9593C2.55685 12.5975 2.11168 13.1148 1.56255 13.1148C1.01341 13.1148 0.568237 12.5975 0.568237 11.9593ZM1.56255 11.7942C1.48409 11.7942 1.4205 11.8681 1.4205 11.9593C1.4205 12.0505 1.48409 12.1243 1.56255 12.1243C1.641 12.1243 1.70459 12.0505 1.70459 11.9593C1.70459 11.8681 1.641 11.7942 1.56255 11.7942Z" fill="#FDFDFD"/>
<path fill-rule="evenodd" clip-rule="evenodd" d="M4.54517 7.33679C4.54517 7.06329 4.73595 6.84155 4.9713 6.84155H11.7894C12.0247 6.84155 12.2155 7.06329 12.2155 7.33679C12.2155 7.61029 12.0247 7.83202 11.7894 7.83202H4.9713C4.73595 7.83202 4.54517 7.61029 4.54517 7.33679Z" fill="#FDFDFD"/>
<path fill-rule="evenodd" clip-rule="evenodd" d="M4.54517 11.9596C4.54517 11.6861 4.73595 11.4644 4.9713 11.4644H11.7894C12.0247 11.4644 12.2155 11.6861 12.2155 11.9596C12.2155 12.2331 12.0247 12.4548 11.7894 12.4548H4.9713C4.73595 12.4548 4.54517 12.2331 4.54517 11.9596Z" fill="#FDFDFD"/>
<path fill-rule="evenodd" clip-rule="evenodd" d="M4.54517 2.71496C4.54517 2.44145 4.73595 2.21973 4.9713 2.21973H11.7894C12.0247 2.21973 12.2155 2.44145 12.2155 2.71496C12.2155 2.98847 12.0247 3.2102 11.7894 3.2102H4.9713C4.73595 3.2102 4.54517 2.98847 4.54517 2.71496Z" fill="#FDFDFD"/>
</svg>
