<svg width="374" height="309" viewBox="0 0 374 309" fill="none" xmlns="http://www.w3.org/2000/svg">
<path d="M32.7374 154.885C33.0569 151.404 33.5781 147.923 33.6666 144.437C33.9173 134.418 33.0471 124.491 29.0304 115.185C26.1052 108.415 21.5674 102.614 16.8624 96.9597C12.9489 92.2547 9.21739 87.4121 6.36589 81.9549C3.07191 75.6619 1.07586 68.9658 0.343317 61.9354C-0.438388 54.4231 0.0729157 46.965 2.30987 39.7182C4.54683 32.4715 8.11612 25.9327 12.9588 20.0478C16.7296 15.4657 21.2281 11.7391 26.1593 8.57783C34.3254 3.33696 43.2535 0.328136 53.0519 0.0380688C61.8916 -0.227416 70.451 0.859106 78.622 4.45298C84.5118 7.04392 89.6691 10.6722 94.5167 14.8561C100.992 20.446 106.793 26.8619 114.084 31.4636C120.903 35.7654 128.228 38.8333 136.316 39.9149C140.278 40.4459 144.241 41.2521 148.238 40.8047C156.64 39.8657 165.037 38.9316 173.351 37.2305C181.787 35.5049 190.234 33.8776 198.911 33.3564C208.42 32.7861 217.687 33.7841 226.625 36.6012C234.398 39.0496 241.163 43.4006 246.163 50.2344C250.651 56.37 254.388 62.899 258.085 69.5164C263.601 79.3885 271.462 86.4681 282.741 89.7031C289.446 91.6254 296.206 92.24 302.996 92.3629C314.112 92.5645 325.238 92.1957 336.354 91.9499C344.834 91.7582 352.77 93.6117 359.839 98.3166C364.353 101.321 367.961 105.263 370.419 110.249C374.495 118.503 375.006 127.092 372.386 135.681C368.979 146.836 361.496 154.393 350.41 158.341C345.887 159.953 341.167 160.081 336.506 160.671C329.957 161.507 323.846 163.724 317.868 166.389C312.883 168.611 308.586 171.738 305.218 176.079C304.658 176.802 304.166 177.534 304.058 178.468C303.438 178.636 302.824 178.896 302.19 178.96C296.221 179.54 290.916 181.581 286.03 185.189C278.866 190.484 275.096 197.746 273.173 206.089C271.983 211.246 271.413 216.541 270.504 222.16C267.824 217.505 264.171 215.641 259.162 215.735C255.514 215.804 253.075 217.716 250.568 219.81C250.538 207.972 250.396 196.138 248.729 184.383C252.869 184.176 254.432 181.418 252.451 177.761C252.17 177.239 251.969 176.748 251.969 176.158C251.964 173.233 251.733 170.322 251.556 167.402C251.158 160.828 251.128 154.231 250.951 147.643C252.559 147.471 253.193 146.694 252.883 145.012C251.993 140.224 251.251 135.411 250.337 130.627C250.027 129.005 249.196 127.486 247.726 126.64C244.511 124.786 241.477 122.51 237.687 121.846C237.584 120.273 238.105 118.641 237.244 117.141C240.637 115.612 242.446 112.741 243.316 109.349C244.589 104.383 242.824 100.967 237.579 97.412C236.998 89.9244 234.993 82.7563 231.364 76.2568C226.792 68.0661 220.642 61.1979 212.525 56.1439C204.01 50.8391 194.895 47.8106 184.85 47.7516C176.586 47.7024 168.321 47.7467 160.052 47.7516C155.072 47.7221 150.028 47.3534 145.151 48.435C138.081 50.0033 131.35 52.373 125.151 56.4487C118.16 61.0406 112.481 66.8321 108.101 73.7298C102.811 82.0582 100.161 91.4534 100.126 101.345C100.008 135.74 100.072 170.135 100.067 204.53C93.0123 204.432 87.8157 207.574 84.3349 213.906C84.0841 213.404 83.9219 213.213 83.8973 213.001C82.8894 205.445 82.501 197.805 80.4312 190.396C78.5335 183.611 76.1048 177.112 71.7145 171.487C68.8827 167.864 65.6133 164.747 61.8473 162.067C56.277 158.105 50.0136 156.153 43.4109 154.831C39.8022 154.108 36.2919 155.219 32.7374 154.885Z" fill="url(#paint0_linear_12_877)" fill-opacity="0.2"/>
<path d="M314.447 244.309C314.117 246.069 313.006 247.401 311.934 248.729C306.521 255.435 299.914 260.474 291.462 262.657C284.25 264.52 277.185 263.93 270.214 261.108C261.173 257.45 252.451 252.804 242.741 251.079C234.87 249.677 226.925 249.368 218.887 250.056C212.082 250.636 205.534 252.082 199.123 254.225C193.081 256.246 187.392 259.078 181.945 262.421C177.137 265.371 172.545 268.601 168.214 272.19C163.946 275.724 159.684 279.274 155.583 282.991C148.74 289.195 141.68 295.174 133.627 299.682C125.554 304.2 116.828 307.116 107.472 307.76C104.797 307.941 102.142 308.664 99.4776 308.645C86.4885 308.551 73.8878 306.496 61.9705 300.985C54.4976 297.529 47.7621 293.084 41.6953 287.514C36.0709 282.347 31.248 276.541 27.2165 270.105C21.4054 260.833 17.6296 250.769 16.0121 239.904C14.9354 232.681 14.6503 225.484 16.0072 218.272C18.4506 218.994 19.8272 221.207 21.897 222.475C28.3424 226.428 34.7337 230.41 41.7248 233.424C49.8122 236.91 58.1062 239.559 66.6804 241.482C67.9832 241.777 69.9301 240.966 70.643 242.981C69.7531 243.05 68.8583 243.173 67.9685 243.173C59.5369 243.188 51.1053 243.173 42.6687 243.198C41.8575 243.198 40.9431 242.937 40.1171 243.635C41.1987 244.471 42.3 244.122 43.3177 244.122C132.634 244.142 221.955 244.137 311.271 244.146C312.328 244.151 313.39 244.255 314.447 244.309Z" fill="url(#paint1_linear_12_877)" fill-opacity="0.2"/>
<path d="M70.6422 242.991C69.9244 240.975 67.9775 241.782 66.6747 241.492C58.1005 239.564 49.8065 236.919 41.7191 233.434C34.728 230.42 28.3367 226.433 21.8913 222.485C19.8215 221.216 18.4449 219.004 16.0015 218.281C12.9336 214.702 9.30042 211.615 6.91597 207.436C4.13822 202.569 2.32899 197.529 2.18641 191.797C2.0045 184.56 3.55808 177.913 7.33387 171.753C10.0182 167.377 13.6268 163.901 17.7566 160.937C18.8431 160.16 19.8854 160.081 21.0604 161.114C27.7664 166.984 34.3297 173.016 40.3818 179.555C46.8567 186.551 52.8006 193.989 58.3266 201.782C64.8113 210.926 70.3079 220.617 75.2636 230.636C76.6352 233.404 77.7955 236.28 79.0541 239.102C79.2557 239.55 79.4818 239.987 79.6883 240.43C80.0915 241.29 80.6175 242.185 81.6942 241.752C82.9528 241.241 82.2547 240.267 81.9056 239.481C80.3766 236.059 78.8968 232.613 77.2744 229.235C70.8683 215.892 63.0464 203.399 53.9805 191.733C47.4663 183.35 40.254 175.543 32.5402 168.233C29.7034 165.543 26.6602 163.07 23.7939 160.406C21.9945 158.734 22.1519 158.159 24.5511 157.367C27.2551 156.477 30.0033 155.701 32.7319 154.88C36.2914 155.219 39.8017 154.103 43.4201 154.826C50.0229 156.143 56.2863 158.1 61.8566 162.062C65.6176 164.737 68.8919 167.859 71.7238 171.482C76.1141 177.102 78.5428 183.606 80.4405 190.391C82.5103 197.8 82.8938 205.44 83.9066 212.996C83.9361 213.208 84.0983 213.399 84.3441 213.901C87.8249 207.564 93.0265 204.422 100.077 204.525C100.096 217.352 100.116 230.179 100.136 243.006C91.1238 243.286 82.117 243.306 73.1053 242.991C72.5743 242.209 72.0384 242.219 71.4976 242.976C71.2125 242.976 70.9273 242.981 70.6422 242.991Z" fill="#EBF3FE" fill-opacity="0.47"/>
<path d="M273.591 243.089C275.656 236.959 278.503 231.197 281.772 225.622C287.352 216.113 293.631 207.151 300.976 198.886C305.882 193.365 311.502 188.665 316.836 183.636C317.47 183.036 317.942 182.937 318.729 183.483C324.279 187.338 328.38 192.229 329.614 199.039C330.617 204.565 330.754 210.115 328.193 215.322C326.197 219.378 323.394 222.858 319.801 225.656C317.126 227.48 314.555 229.476 311.767 231.098C302.318 236.595 292.338 240.734 281.453 242.431C280.863 242.431 280.209 242.263 279.953 243.06C277.829 243.301 275.71 243.252 273.591 243.089Z" fill="#EBF3FE" fill-opacity="0.47"/>
<path d="M250.572 219.805C253.079 217.706 255.518 215.794 259.166 215.73C264.176 215.636 267.828 217.495 270.508 222.155C271.417 216.536 271.988 211.241 273.178 206.084C275.1 197.741 278.871 190.479 286.034 185.184C290.921 181.576 296.226 179.535 302.194 178.955C302.828 178.891 303.438 178.631 304.062 178.464C306.668 179.673 309.657 179.334 312.263 180.479C313.325 180.946 315.016 180.956 315.193 182.22C315.365 183.449 313.895 184.201 312.981 184.963C305.031 191.59 298.177 199.235 291.801 207.362C286.093 214.638 281.339 222.519 277.101 230.68C275.065 234.604 272.583 238.478 272.116 243.089C265.729 243.08 259.348 243.07 252.961 243.06C253.02 241.197 251.541 240.213 250.587 238.93C250.39 238.719 250.193 238.507 250.002 238.296C249.264 236.713 249.461 235.135 250.007 233.552C250.198 228.97 250.385 224.387 250.572 219.805Z" fill="#EBF3FE" fill-opacity="0.47"/>
<path d="M252.972 243.055C259.358 243.065 265.74 243.075 272.126 243.085C272.613 243.085 273.104 243.085 273.591 243.085C275.71 243.247 277.834 243.301 279.953 243.05C285.656 243.537 291.369 243.227 297.082 243.232C303.365 243.237 309.653 243.498 315.931 243.07C316.954 243.439 318.148 242.888 319.446 243.675C317.642 244.579 315.956 243.802 314.446 244.304C313.389 244.25 312.332 244.147 311.275 244.147C221.959 244.142 132.638 244.142 43.3223 244.122C42.3096 244.122 41.2034 244.471 40.1218 243.635C40.9526 242.932 41.8622 243.198 42.6734 243.198C51.105 243.173 59.5366 243.188 67.9731 243.173C68.863 243.173 69.7528 243.05 70.6476 242.981C70.9328 242.976 71.2179 242.972 71.5031 242.967C72.0389 243.247 72.5748 243.242 73.1107 242.981C82.1225 243.291 91.1293 243.276 100.141 242.996C100.79 243.04 101.439 243.129 102.088 243.129C136.891 243.134 171.694 243.134 206.497 243.129C207.225 243.129 207.952 243.011 208.68 242.952C210.155 243.129 212.313 243.94 212.908 242.559C214.55 238.739 217.446 238.09 220.991 238.296C222.805 238.281 224.619 238.267 226.428 238.252C228.287 238.793 227.136 240.307 227.392 241.354C227.574 242.106 227.215 243.129 228.478 243.144C230.769 243.168 233.115 243.434 235.327 243.016C236.708 242.755 236.782 240.666 237.78 239.628C239.781 237.795 242.308 238.625 244.604 238.271C246.404 238.276 248.208 238.286 250.007 238.291C250.204 238.503 250.401 238.714 250.597 238.92C250.553 239.638 250.533 240.356 250.45 241.069C250.219 243.119 251.094 243.719 252.972 243.055Z" fill="#333244"/>
<path d="M281.448 242.426C292.328 240.73 302.313 236.595 311.762 231.093C314.55 229.471 317.126 227.475 319.795 225.651C320.454 231.806 318.188 237.298 315.921 242.794C305.046 242.809 294.166 242.829 283.291 242.839C282.657 242.844 281.974 242.971 281.448 242.426Z" fill="#C5D6EE"/>
<path d="M281.447 242.426C281.968 242.972 282.652 242.844 283.296 242.839C294.171 242.829 305.051 242.809 315.926 242.795C315.985 242.888 315.985 242.981 315.926 243.07C309.648 243.498 303.36 243.237 297.076 243.232C291.369 243.227 285.656 243.537 279.948 243.05C280.203 242.259 280.862 242.426 281.447 242.426Z" fill="#C4C4C4"/>
<path d="M208.675 242.952C207.948 243.016 207.22 243.129 206.492 243.129C171.689 243.139 136.886 243.139 102.083 243.129C101.434 243.129 100.785 243.04 100.136 242.996C100.116 230.169 100.097 217.342 100.077 204.516C100.082 170.121 100.013 135.725 100.136 101.33C100.17 91.4436 102.82 82.0435 108.11 73.7151C112.496 66.8174 118.169 61.0259 125.16 56.434C131.365 52.3632 138.095 49.9886 145.16 48.4203C150.037 47.3387 155.077 47.7123 160.062 47.7369C160.421 47.8943 160.78 48.1745 161.144 48.1843C165.622 48.2581 169.796 49.6838 173.902 51.2325C183.606 54.8952 191.645 60.9128 197.884 69.1675C204.732 78.2333 208.719 88.4004 208.729 99.9195C208.739 118.09 208.724 136.266 208.754 154.437C208.754 155.312 208.365 156.34 209.496 157.387C210.676 152.377 213.429 148.189 214.123 143.282C215.942 143.606 217.751 144.01 219.585 144.231C221.728 144.486 222.348 145.544 221.61 147.51C219.968 148.228 220.14 149.968 219.644 151.256C216.6 159.113 211.664 166.232 210.484 174.811C210.44 175.116 210.283 175.509 210.052 175.676C208.533 176.748 208.724 178.306 208.724 179.855C208.719 200.887 208.695 221.92 208.675 242.952ZM144.683 123.98C144.693 123.788 144.708 123.597 144.718 123.405C144.742 112.215 144.767 101.026 144.782 89.8359C144.782 89.0247 144.89 88.0464 143.661 88.0857C139.025 88.2283 134.369 87.6285 129.743 88.4495C128.164 88.7298 127.56 89.4574 127.565 91.0749C127.629 101.857 127.619 112.638 127.629 123.42C127.629 123.916 127.624 124.413 127.624 124.909C127.614 138.154 127.614 151.399 127.57 164.644C127.565 166.015 127.825 166.758 129.438 166.728C133.931 166.645 138.43 166.664 142.928 166.718C144.28 166.733 144.811 166.305 144.806 164.899C144.747 151.576 144.738 138.248 144.718 124.924C144.708 124.732 144.693 124.546 144.683 124.354C144.733 124.226 144.733 124.103 144.683 123.98ZM164.098 123.975C164.054 124.098 164.049 124.226 164.098 124.349C164.084 124.541 164.074 124.728 164.059 124.919C164.034 138.159 164.039 151.399 163.961 164.639C163.951 166.266 164.501 166.753 166.084 166.723C170.578 166.64 175.077 166.64 179.57 166.723C181.158 166.753 181.699 166.261 181.689 164.639C181.615 151.399 181.615 138.159 181.596 124.914C181.596 124.413 181.596 123.911 181.596 123.41C181.615 112.864 181.655 102.314 181.645 91.7681C181.645 89.0887 180.607 88.0906 177.908 88.066C173.985 88.0267 170.057 88.1103 166.134 88.0316C164.614 88.0021 163.946 88.3561 163.956 90.0572C164.039 101.178 164.029 112.294 164.054 123.415C164.074 123.597 164.084 123.788 164.098 123.975ZM145.352 123.415C145.352 123.911 145.347 124.413 145.347 124.909C145.332 138.159 145.342 151.404 145.273 164.653C145.264 166.296 145.834 166.748 147.407 166.723C152.068 166.64 156.734 166.64 161.394 166.723C162.963 166.753 163.538 166.296 163.528 164.653C163.459 151.404 163.469 138.159 163.459 124.909C163.459 124.413 163.454 123.916 163.454 123.415C163.469 112.304 163.459 101.193 163.533 90.0867C163.543 88.4348 162.948 88.0021 161.389 88.0267C156.734 88.1054 152.073 88.1054 147.417 88.0267C145.858 88.0021 145.264 88.4299 145.278 90.0867C145.347 101.198 145.332 112.304 145.352 123.415ZM163.494 185.42C163.494 180.184 163.439 174.948 163.523 169.717C163.548 168.095 162.997 167.598 161.404 167.623C156.743 167.707 152.078 167.702 147.417 167.623C145.863 167.598 145.259 168.021 145.269 169.683C145.332 180.15 145.323 190.622 145.273 201.094C145.269 202.603 145.78 203.08 147.26 203.055C151.92 202.982 156.586 202.937 161.247 203.075C163.194 203.129 163.557 202.372 163.523 200.637C163.43 195.563 163.494 190.489 163.494 185.42ZM163.99 185.406C163.99 190.484 164.054 195.563 163.956 200.641C163.921 202.397 164.32 203.144 166.252 203.07C170.096 202.928 173.951 203.05 177.8 203.021C180.544 202.996 181.65 201.885 181.655 199.108C181.674 189.442 181.62 179.776 181.699 170.111C181.714 168.105 180.912 167.584 179.064 167.623C174.89 167.716 170.706 167.721 166.532 167.623C164.619 167.574 163.921 168.228 163.956 170.175C164.059 175.248 163.99 180.327 163.99 185.406ZM144.792 185.224C144.792 180.071 144.742 174.919 144.821 169.767C144.846 168.203 144.398 167.589 142.751 167.623C138.42 167.716 134.079 167.731 129.747 167.618C127.958 167.569 127.555 168.247 127.565 169.899C127.624 179.712 127.589 189.525 127.599 199.339C127.604 202.013 128.558 202.982 131.306 203.016C134.988 203.06 138.671 202.937 142.348 203.06C144.369 203.129 144.851 202.269 144.821 200.43C144.733 195.361 144.792 190.292 144.792 185.224ZM200.307 168.38C197.446 168.424 195.126 170.278 194.373 173.046C193.715 175.474 194.855 178.233 197.077 179.575C199.536 181.064 202.24 180.848 204.285 178.995C205.086 178.267 205.671 177.569 204.437 176.659C202.358 175.13 202.151 173.129 203.469 171.079C204.231 169.894 203.946 169.383 202.815 168.941C201.979 168.611 201.138 168.301 200.307 168.38Z" fill="url(#paint2_linear_12_877)"/>
<path d="M214.123 143.287C213.425 148.193 210.676 152.382 209.496 157.392C208.366 156.345 208.759 155.317 208.754 154.442C208.725 136.271 208.739 118.095 208.73 99.9243C208.725 88.4052 204.737 78.2381 197.884 69.1723C191.645 60.9177 183.602 54.9 173.902 51.2373C169.797 49.6887 165.623 48.2629 161.144 48.1892C160.78 48.1842 160.421 47.8991 160.062 47.7418C168.327 47.7369 176.596 47.6975 184.86 47.7418C194.905 47.8008 204.015 50.8293 212.535 56.134C220.652 61.1881 226.802 68.0563 231.374 76.247C234.998 82.7464 237.004 89.9145 237.589 97.4022C235.976 96.8466 234.388 96.1731 232.741 95.765C229.231 94.8948 225.873 95.0915 223.267 98.002C221.237 100.268 221.758 102.663 224.423 103.887C224.29 105.898 223.956 107.884 223.921 109.919C223.828 115.691 232.304 120.534 236.709 117.122C236.891 117.127 237.072 117.127 237.249 117.132C238.11 118.636 237.589 120.268 237.692 121.842C233.302 121.227 229.019 121.842 224.968 123.459C222.348 124.506 219.226 124.993 217.972 128.252C216.365 132.436 214.737 136.62 212.835 140.676C211.989 142.481 212.584 142.962 214.123 143.287Z" fill="#EBF3FE"/>
<path d="M250.573 219.805C250.386 224.388 250.199 228.97 250.013 233.552C248.002 234.166 246.055 233.488 244.079 233.281C243.602 231.551 243.09 229.83 242.658 228.09C240.986 221.389 239.344 214.683 237.692 207.977C236.34 201.669 234.939 195.381 232.987 189.206C231.296 200.799 229.855 212.377 228.233 223.93C227.751 227.367 227.791 230.921 226.434 234.211C224.492 233.665 222.491 233.743 220.504 233.689C220.347 233.326 220.082 232.976 220.052 232.603C219.207 221.61 218.1 210.636 217.741 199.614C217.456 190.789 217.392 181.964 219.487 173.292C227.781 172.741 236.08 172.269 244.359 171.566C246.03 171.423 246.035 172.726 246.827 173.336C247.461 177.018 248.095 180.701 248.734 184.383C250.401 196.133 250.544 207.967 250.573 219.805Z" fill="#333244"/>
<path d="M246.826 173.331C246.034 172.721 246.03 171.423 244.358 171.561C236.079 172.259 227.78 172.731 219.486 173.282C219.029 172.76 219.319 172.195 219.378 171.644C220.258 163.611 221.482 155.612 221.605 147.51C222.342 145.543 221.723 144.486 219.579 144.231C217.746 144.009 215.936 143.606 214.117 143.282C212.583 142.957 211.984 142.475 212.829 140.671C214.727 136.615 216.359 132.431 217.967 128.247C219.22 124.993 222.342 124.501 224.963 123.454C229.014 121.837 233.301 121.222 237.686 121.837C241.477 122.5 244.51 124.772 247.726 126.63C249.191 127.476 250.027 128.995 250.336 130.617C251.251 135.401 251.993 140.214 252.883 145.003C253.198 146.684 252.558 147.461 250.951 147.633C249.545 147.618 248.94 148.316 248.856 149.717C248.62 153.788 248.389 157.864 247.996 161.925C247.632 165.73 247.829 169.594 246.826 173.331Z" fill="url(#paint3_linear_12_877)"/>
<path d="M224.412 103.892C221.747 102.668 221.226 100.273 223.257 98.0069C225.862 95.0964 229.22 94.8997 232.73 95.7699C234.382 96.178 235.965 96.8515 237.578 97.4071C242.824 100.962 244.589 104.379 243.315 109.344C242.445 112.736 240.636 115.608 237.244 117.137C237.062 117.132 236.88 117.132 236.703 117.127C234.967 116.517 233.945 115.431 234.186 113.459C234.707 109.147 234.702 109.128 230.518 109.369C229.146 109.447 228.114 109.029 228.281 107.53C228.611 104.492 226.801 103.931 224.412 103.892Z" fill="#333244"/>
<path d="M246.826 173.331C247.829 169.594 247.632 165.73 248.001 161.925C248.394 157.869 248.625 153.793 248.861 149.718C248.945 148.316 249.549 147.618 250.956 147.633C251.133 154.221 251.157 160.819 251.56 167.392C251.737 170.312 251.968 173.223 251.973 176.148C251.973 176.738 252.175 177.23 252.455 177.751C254.436 181.409 252.873 184.167 248.733 184.373C248.099 180.696 247.465 177.013 246.826 173.331Z" fill="#C4C4C4"/>
<path d="M73.1053 242.986C72.5645 243.247 72.0286 243.252 71.4976 242.971C72.0384 242.214 72.5743 242.204 73.1053 242.986Z" fill="#C5D6EE"/>
<path d="M244.083 233.281C246.055 233.488 248.007 234.166 250.012 233.552C249.467 235.135 249.27 236.713 250.007 238.296C248.203 238.291 246.404 238.281 244.599 238.276C244.796 236.575 244.226 234.948 244.083 233.281Z" fill="#C4C4C4"/>
<path d="M252.972 243.055C251.093 243.719 250.218 243.119 250.454 241.074C250.538 240.361 250.553 239.638 250.602 238.925C251.546 240.213 253.031 241.192 252.972 243.055Z" fill="#C4C4C4"/>
<path d="M221.605 147.515C221.483 155.617 220.258 163.616 219.378 171.65C219.319 172.2 219.024 172.766 219.487 173.287C217.392 181.964 217.456 190.789 217.741 199.614C218.1 210.636 219.206 221.615 220.052 232.603C220.081 232.977 220.347 233.326 220.504 233.689C221.094 235.179 221.546 236.684 220.991 238.296C217.446 238.09 214.55 238.739 212.908 242.559C212.314 243.94 210.155 243.129 208.68 242.952C208.7 221.92 208.725 200.887 208.729 179.855C208.729 178.301 208.533 176.743 210.057 175.676C210.293 175.509 210.45 175.121 210.49 174.811C211.669 166.232 216.606 159.113 219.649 151.256C220.14 149.973 219.963 148.233 221.605 147.515Z" fill="#F3F3F3"/>
<path d="M226.438 234.21C227.795 230.916 227.755 227.367 228.237 223.93C229.859 212.377 231.295 200.799 232.991 189.206C234.943 195.381 236.344 201.674 237.696 207.977C237.726 218.527 237.755 229.078 237.785 239.628C236.787 240.661 236.713 242.755 235.331 243.016C233.119 243.429 230.774 243.168 228.483 243.144C227.219 243.129 227.578 242.106 227.396 241.354C227.141 240.307 228.291 238.792 226.433 238.252C226.433 236.905 226.433 235.558 226.438 234.21Z" fill="#F3F3F3"/>
<path d="M237.78 239.633C237.751 229.083 237.721 218.532 237.692 207.982C239.344 214.688 240.991 221.393 242.657 228.095C243.09 229.835 243.601 231.556 244.078 233.286C244.221 234.953 244.791 236.58 244.599 238.281C242.313 238.63 239.781 237.799 237.78 239.633Z" fill="#C5D6EE"/>
<path d="M226.439 234.21C226.439 235.558 226.434 236.905 226.434 238.252C224.619 238.266 222.805 238.281 220.996 238.296C221.552 236.683 221.104 235.179 220.509 233.689C222.491 233.748 224.492 233.67 226.439 234.21Z" fill="#C4C4C4"/>
<path d="M163.449 124.909C163.464 138.159 163.454 151.404 163.523 164.653C163.533 166.296 162.958 166.753 161.389 166.723C156.729 166.645 152.063 166.64 147.402 166.723C145.829 166.753 145.264 166.296 145.269 164.653C145.337 151.404 145.328 138.159 145.342 124.909C151.38 124.909 157.417 124.909 163.449 124.909Z" fill="white"/>
<path d="M181.6 124.919C181.62 138.159 181.62 151.399 181.694 164.639C181.704 166.261 181.158 166.753 179.575 166.723C175.081 166.64 170.583 166.64 166.089 166.723C164.506 166.753 163.955 166.266 163.965 164.639C164.039 151.399 164.039 138.159 164.059 124.914C169.904 124.919 175.75 124.919 181.6 124.919Z" fill="white"/>
<path d="M144.717 124.919C144.742 138.243 144.747 151.571 144.806 164.894C144.811 166.3 144.28 166.733 142.928 166.713C138.429 166.659 133.931 166.64 129.437 166.723C127.825 166.753 127.564 166.01 127.569 164.639C127.613 151.394 127.613 138.149 127.623 124.905C133.326 124.909 139.024 124.914 144.717 124.919Z" fill="white"/>
<path d="M145.352 123.415C145.337 112.304 145.347 101.193 145.273 90.0864C145.263 88.4345 145.858 88.0019 147.412 88.0265C152.068 88.1051 156.728 88.1051 161.384 88.0265C162.938 88.0019 163.538 88.4296 163.528 90.0864C163.454 101.197 163.464 112.309 163.449 123.415C157.412 123.415 151.379 123.415 145.352 123.415Z" fill="white"/>
<path d="M163.493 185.42C163.493 190.494 163.429 195.563 163.528 200.631C163.562 202.367 163.193 203.124 161.252 203.07C156.591 202.937 151.925 202.981 147.264 203.05C145.785 203.075 145.268 202.598 145.278 201.089C145.327 190.617 145.337 180.15 145.273 169.678C145.263 168.021 145.868 167.593 147.422 167.618C152.082 167.697 156.748 167.701 161.409 167.618C163.002 167.588 163.552 168.09 163.528 169.712C163.439 174.948 163.493 180.184 163.493 185.42Z" fill="white"/>
<path d="M164.059 123.41C164.039 112.289 164.044 101.173 163.961 90.0522C163.946 88.3511 164.62 87.9972 166.139 88.0267C170.062 88.1053 173.99 88.0267 177.914 88.0611C180.613 88.0857 181.65 89.0886 181.65 91.7631C181.66 102.309 181.62 112.859 181.601 123.405C175.755 123.41 169.905 123.41 164.059 123.41Z" fill="white"/>
<path d="M163.99 185.405C163.99 180.327 164.054 175.248 163.955 170.17C163.916 168.228 164.614 167.574 166.532 167.618C170.706 167.721 174.889 167.711 179.063 167.618C180.912 167.579 181.713 168.095 181.699 170.106C181.62 179.771 181.674 189.437 181.654 199.103C181.649 201.88 180.543 202.991 177.8 203.016C173.95 203.05 170.096 202.923 166.251 203.065C164.319 203.139 163.921 202.392 163.955 200.636C164.059 195.563 163.99 190.484 163.99 185.405Z" fill="white"/>
<path d="M127.638 123.42C127.624 112.638 127.633 101.857 127.574 91.0749C127.565 89.4574 128.169 88.7298 129.752 88.4495C134.379 87.6334 139.034 88.2283 143.671 88.0857C144.9 88.0464 144.792 89.0297 144.792 89.836C144.772 101.026 144.747 112.215 144.728 123.405C139.03 123.41 133.331 123.415 127.638 123.42Z" fill="white"/>
<path d="M144.791 185.224C144.791 190.292 144.737 195.366 144.821 200.435C144.85 202.274 144.368 203.134 142.348 203.065C138.67 202.942 134.988 203.065 131.305 203.021C128.557 202.987 127.598 202.018 127.598 199.344C127.589 189.53 127.623 179.717 127.564 169.904C127.554 168.252 127.962 167.574 129.747 167.623C134.078 167.736 138.414 167.721 142.751 167.628C144.398 167.593 144.845 168.208 144.821 169.771C144.742 174.919 144.791 180.071 144.791 185.224Z" fill="white"/>
<path d="M200.308 168.38C201.139 168.296 201.979 168.611 202.82 168.941C203.951 169.383 204.236 169.894 203.474 171.079C202.151 173.129 202.363 175.13 204.442 176.659C205.681 177.569 205.096 178.267 204.29 178.995C202.245 180.848 199.541 181.064 197.083 179.575C194.86 178.228 193.72 175.469 194.379 173.046C195.126 170.283 197.446 168.424 200.308 168.38Z" fill="#D8E7FC"/>
<path d="M145.352 123.415C151.384 123.415 157.417 123.415 163.449 123.415C163.449 123.911 163.454 124.408 163.454 124.909C157.417 124.909 151.384 124.909 145.347 124.909C145.347 124.413 145.347 123.916 145.352 123.415Z" fill="#F3F3F3"/>
<path d="M164.059 123.41C169.904 123.41 175.755 123.41 181.6 123.41C181.6 123.911 181.6 124.413 181.6 124.914C175.755 124.914 169.904 124.914 164.059 124.914C164.073 124.727 164.083 124.536 164.098 124.349C164.142 124.314 164.226 124.265 164.221 124.246C164.196 124.152 164.142 124.069 164.103 123.975C164.083 123.788 164.073 123.597 164.059 123.41Z" fill="#F3F3F3"/>
<path d="M127.638 123.42C133.331 123.415 139.029 123.415 144.722 123.41C144.707 123.602 144.698 123.793 144.688 123.98C144.648 124.015 144.565 124.059 144.57 124.083C144.594 124.177 144.643 124.26 144.688 124.349C144.698 124.541 144.712 124.727 144.722 124.919C139.024 124.914 133.326 124.909 127.628 124.904C127.633 124.413 127.633 123.916 127.638 123.42Z" fill="#F3F3F3"/>
<path d="M164.098 123.975C164.142 124.064 164.191 124.152 164.216 124.246C164.221 124.27 164.137 124.314 164.093 124.349C164.049 124.226 164.049 124.103 164.098 123.975Z" fill="white"/>
<path d="M144.683 124.349C144.644 124.261 144.59 124.177 144.565 124.084C144.561 124.059 144.644 124.015 144.683 123.98C144.733 124.103 144.733 124.226 144.683 124.349Z" fill="white"/>
<path d="M224.412 103.892C226.801 103.931 228.61 104.487 228.276 107.53C228.109 109.029 229.141 109.447 230.513 109.369C234.702 109.128 234.707 109.147 234.181 113.459C233.94 115.431 234.962 116.522 236.698 117.127C232.293 120.534 223.812 115.691 223.91 109.924C223.945 107.889 224.279 105.908 224.412 103.892Z" fill="#C4C4C4"/>
<defs>
<linearGradient id="paint0_linear_12_877" x1="187" y1="0" x2="187" y2="222.16" gradientUnits="userSpaceOnUse">
<stop stop-color="#D8E7FC"/>
<stop offset="1" stop-color="#586373"/>
</linearGradient>
<linearGradient id="paint1_linear_12_877" x1="164.77" y1="218.272" x2="164.77" y2="308.645" gradientUnits="userSpaceOnUse">
<stop stop-color="#D8E7FC"/>
<stop offset="1" stop-color="#586373"/>
</linearGradient>
<linearGradient id="paint2_linear_12_877" x1="103.594" y1="77.402" x2="225.804" y2="85.1994" gradientUnits="userSpaceOnUse">
<stop stop-color="#30A94A"/>
<stop offset="1" stop-color="#238832"/>
</linearGradient>
<linearGradient id="paint3_linear_12_877" x1="213.619" y1="129.474" x2="254.161" y2="132.725" gradientUnits="userSpaceOnUse">
<stop stop-color="#30A94A"/>
<stop offset="1" stop-color="#238832"/>
</linearGradient>
</defs>
</svg>
