<svg width="186" height="137" viewBox="0 0 186 137" fill="none" xmlns="http://www.w3.org/2000/svg">
<path d="M180.209 20.7483C180.205 23.7923 178.185 25.8771 175.212 25.9037C172.262 25.9302 170.089 23.6871 170.113 20.6391C170.136 17.5351 172.112 15.5271 175.124 15.5428C178.253 15.5586 180.213 17.5646 180.209 20.7483Z" fill="#F8F8F7"/>
<path d="M97.473 20.7749C97.4573 23.8514 95.4611 25.9234 92.5007 25.9361C89.5354 25.9489 87.4389 23.7392 87.4723 20.6352C87.5068 17.4958 89.4361 15.5114 92.4505 15.5173C95.526 15.5232 97.4898 17.5784 97.473 20.7749Z" fill="#F8F8F7"/>
<path d="M137.625 34.2973C137.625 34.2973 137.614 34.2973 137.615 34.2973C137.616 34.2973 137.623 34.2092 137.623 34.2092L137.625 34.2973Z" fill="url(#paint0_linear_173_3)"/>
<path d="M68.5413 86.9135C72.9272 82.8463 78.2527 81.8989 83.9777 82.6417C92.3138 83.7229 98.1843 89.621 99.7388 98.3083C100.066 100.141 100.142 101.984 100.147 103.839C100.161 109.396 100.178 114.953 100.246 120.509C100.259 121.569 100.001 121.993 98.8504 121.944C96.6653 121.852 94.4703 121.849 92.2862 121.946C91.0102 122.003 90.5655 121.697 90.5871 120.311C90.6767 114.643 90.6294 108.973 90.6294 103.304C90.6294 101.443 90.4799 99.5942 89.8345 97.8351C88.3823 93.8742 85.601 91.5936 81.3321 91.266C76.6373 90.9059 73.001 92.6867 70.5896 96.7499C68.7951 99.7743 68.2795 103.19 68.1792 106.609C68.0424 111.263 68.1625 115.925 68.2491 120.582C68.2697 121.688 67.9618 121.986 66.851 121.983C51.6969 121.943 36.5429 121.938 21.3888 121.975C20.1629 121.978 19.9642 121.726 20.1738 120.498C22.7248 105.573 25.2081 90.6364 27.6982 75.7017C27.8251 74.9412 27.891 74.3243 28.9594 74.3587C31.4269 74.4374 33.8983 74.4355 36.3668 74.3784C37.4214 74.3538 37.3752 74.8133 37.2365 75.6053C35.6554 84.6094 34.101 93.6174 32.5426 102.625C32.0261 105.609 31.5371 108.598 30.994 111.577C30.8218 112.52 30.876 112.989 32.0782 112.984C40.553 112.946 49.0288 112.97 57.5036 113.012C58.4254 113.017 58.756 112.796 58.753 111.811C58.6979 94.0178 58.6655 76.2251 58.6763 58.4333C58.6773 57.2586 58.2375 56.9241 57.2123 57.0579C55.6815 57.2576 55.6353 56.5857 56.0367 55.3539C57.9965 49.3299 59.849 43.2704 61.8452 37.2582C62.2939 35.9054 61.8777 35.6279 60.7119 35.81C59.063 36.0677 58.6763 35.3849 58.6871 33.7862C58.7481 24.5253 58.7137 15.2644 58.6488 6.00357C58.6399 4.78361 58.8918 4.31333 60.2101 4.39401C62.2801 4.51994 64.3668 4.53273 66.4368 4.41664C67.8349 4.33793 68.2136 4.76295 68.2136 6.1659C68.2136 22.8361 68.2786 39.5062 68.3268 56.1754C68.3327 58.3645 68.3907 60.5555 68.3179 62.7416C68.2825 63.7864 68.6032 64.0619 69.6402 64.0491C73.9051 63.996 78.1721 64.0993 82.436 64.0097C83.8242 63.9802 84.143 64.4446 84.0692 65.7236C83.962 67.5703 83.9374 69.4327 84.0544 71.2764C84.139 72.6075 83.6284 72.8456 82.4272 72.8279C78.1622 72.7639 73.8953 72.8466 69.6313 72.7856C68.4793 72.7689 68.0936 73.0473 68.1261 74.2633C68.2274 78.0777 68.192 81.8959 68.2235 85.7122C68.2274 86.0782 68.0887 86.4915 68.5413 86.9135Z" fill="#F8F8F7"/>
<path d="M154.347 118.085C154.347 123.947 154.313 129.537 154.373 135.127C154.386 136.326 154.168 136.821 152.834 136.739C150.767 136.612 148.683 136.632 146.612 136.731C145.311 136.793 144.912 136.432 144.919 135.068C144.98 123.347 144.956 111.627 144.959 99.9061C144.96 94.9151 145.033 89.9221 144.922 84.934C144.887 83.3825 145.375 83.0303 146.811 83.1188C148.822 83.2428 150.851 83.2448 152.863 83.1346C154.137 83.0647 154.612 83.4504 154.426 84.7136C154.365 85.1367 154.47 85.5843 154.514 86.2671C160.168 82.0937 166.308 81.584 172.676 83.3274C176.919 84.4893 180.289 87.0689 182.745 90.7623C187.977 98.63 186.778 110.405 180.035 116.975C173.664 123.18 162.504 124.488 154.347 118.085ZM176.674 102.546C176.705 95.4906 172.726 91.2453 166.015 91.1706C159.631 91.0997 155.101 95.7897 155.095 102.477C155.09 108.941 159.502 113.428 165.923 113.488C172.417 113.55 176.645 109.248 176.674 102.546Z" fill="#F8F8F7"/>
<path d="M143.633 102.38C143.649 113.82 134.464 122.603 122.497 122.594C110.782 122.586 101.712 113.77 101.72 102.398C101.728 90.6806 110.447 82.2462 122.563 82.2353C134.78 82.2235 143.616 90.6718 143.633 102.38ZM122.587 91.2168C115.596 91.2571 111.52 95.528 111.549 102.784C111.575 109.574 115.797 113.644 122.754 113.583C129.477 113.524 133.738 109.183 133.714 102.414C133.687 95.1925 129.696 91.1765 122.587 91.2168Z" fill="#F8F8F7"/>
<path d="M56.9004 37.693C56.1557 40.7213 56.1567 40.736 53.3596 40.8816C47.4212 41.1896 41.4797 41.4483 35.5442 41.8064C34.3449 41.8783 33.8383 41.5595 33.6828 40.3484C33.4703 38.6837 33.003 37.0515 32.7964 35.3859C32.6646 34.3243 32.2395 34.1364 31.2606 34.2663C29.4828 34.5024 27.6863 34.5929 25.8977 34.7484C25.2966 34.8005 24.4682 34.7238 24.8696 35.7184C25.1874 36.5055 24.356 37.9291 26.1122 37.9783C28.9791 38.06 28.9781 38.0885 29.47 40.979C30.626 47.7793 31.8027 54.5757 32.9135 61.3839C33.0561 62.2555 33.245 62.6973 34.2239 62.6127C35.7774 62.4789 37.327 62.7268 38.906 62.3982C41.0626 61.9496 43.2005 63.569 43.654 65.7216C44.1036 67.8565 42.7204 70.0702 40.5756 70.6467C38.3413 71.2468 35.926 70.0446 35.4616 67.7513C35.1379 66.1525 34.4246 65.877 33.0237 65.9872C31.5735 66.1014 30.1046 65.9499 28.6495 66.0236C27.5879 66.0778 27.1186 65.8229 26.8865 64.6453C25.3074 56.6152 23.6772 48.5949 21.9535 40.5953C20.8565 35.505 19.9474 30.3614 18.0781 25.4619C16.2079 20.5594 13.3547 16.4539 8.87925 13.5644C6.47672 12.0128 4.17552 10.3029 1.7474 8.79372C-0.0825387 7.6564 -0.143536 5.96223 0.106359 4.21985C0.36019 2.44304 1.15218 0.895457 2.9713 0.154626C3.71311 -0.147412 4.40278 0.014917 5.04228 0.451742C9.5827 3.54788 14.2923 6.42758 18.4845 9.98809C23.2895 14.0681 25.9902 19.6071 27.157 25.5997C27.9215 29.5262 29.6205 31.3286 33.4014 31.5135C35.1438 31.5991 35.7587 32.5033 35.9978 34.2456C36.5674 38.4053 36.6845 38.3748 40.9426 38.2095C45.7634 38.0216 50.5862 37.8632 55.408 37.696C55.8959 37.6782 56.382 37.693 56.9004 37.693Z" fill="#F8F8F7"/>
<path d="M115.237 73.2116C110.159 73.2401 105.918 71.7889 101.93 69.4307C101.086 68.9319 100.861 68.5167 101.433 67.6017C102.412 66.0354 103.306 64.4062 104.107 62.7415C104.617 61.682 105.074 61.5363 106.117 62.1375C108.976 63.7854 112.063 64.7565 115.407 64.6827C116.072 64.6679 116.757 64.5843 117.393 64.3973C118.604 64.0402 119.452 63.2718 119.64 61.9505C119.832 60.6046 119.162 59.6592 118.081 59.0217C116.48 58.0762 114.679 57.5833 112.947 56.9418C110.789 56.1429 108.685 55.2595 106.69 54.0847C99.8912 50.0835 100.573 38.97 107.551 35.4459C114.128 32.1245 120.581 33.128 126.911 36.3196C127.696 36.7151 127.606 37.1735 127.301 37.7993C126.417 39.6135 125.513 41.4198 124.696 43.2635C124.311 44.1313 123.918 44.2769 123.045 43.8479C120.919 42.804 118.677 42.0986 116.281 41.9757C115.32 41.9265 114.366 41.9442 113.454 42.2639C112.375 42.6417 111.613 43.3353 111.495 44.5445C111.375 45.7605 111.969 46.5702 113.009 47.1143C115.255 48.289 117.743 48.8468 120.047 49.872C121.275 50.418 122.512 50.9493 123.711 51.5543C127.74 53.5879 129.56 56.8759 129.412 61.3878C129.265 65.9312 127.404 69.3608 123.324 71.4839C120.663 72.8682 117.792 73.2549 115.237 73.2116Z" fill="#F8F8F7"/>
<path d="M138.369 34.287C138.683 31.6729 138.489 29.049 138.473 26.432C138.465 25.3035 138.831 24.9976 139.91 25.0271C142.196 25.09 144.49 25.1087 146.772 24.9946C148.096 24.9277 148.35 25.4403 148.326 26.6347C148.276 29.1415 148.377 31.6522 148.414 34.16C148.324 37.2001 148.158 40.2421 148.599 43.2714C148.418 48.3716 148.4 53.4758 148.62 58.5701C148.756 61.7449 150.426 63.4037 153.559 64.0629C156.959 64.7791 160.116 63.9251 163.193 62.5704C163.696 62.349 164.178 62.0775 164.96 61.683C164.96 64.9444 164.967 67.9874 164.953 71.0304C164.951 71.5017 164.539 71.6591 164.164 71.7919C157.634 74.0901 151.158 74.3115 145.002 70.7628C140.106 67.9402 138.621 63.1902 138.53 57.8706C138.446 52.9947 138.446 48.1178 138.409 43.2409C138.58 40.2569 138.6 37.2719 138.369 34.287Z" fill="#F8F8F7"/>
<path d="M98.024 53.3941C98.024 59.3414 97.9826 65.2887 98.0574 71.2341C98.0731 72.52 97.7091 72.8613 96.4656 72.8102C94.1693 72.7157 91.8661 72.758 89.5669 72.8062C88.7021 72.8249 88.2672 72.7079 88.2692 71.6552C88.2898 59.5372 88.2672 47.4193 88.2298 35.3003C88.2269 34.4542 88.4237 34.1059 89.3445 34.1315C91.811 34.1994 94.2824 34.223 96.7489 34.165C97.838 34.1394 98.0289 34.5743 98.022 35.5532C97.9807 41.4995 98.0013 47.4468 98.0013 53.3941C98.0082 53.3941 98.0161 53.3941 98.024 53.3941Z" fill="#F8F8F7"/>
<path d="M179.86 53.5682C179.86 59.3493 179.791 65.1313 179.904 70.9104C179.935 72.5386 179.398 72.8741 177.926 72.7954C175.744 72.6793 173.549 72.7334 171.362 72.7816C170.495 72.8013 170.196 72.5327 170.197 71.6404C170.214 59.5736 170.209 47.5068 170.172 35.44C170.169 34.4601 170.505 34.1945 171.429 34.2151C173.729 34.2663 176.034 34.2968 178.331 34.2122C179.513 34.1689 179.844 34.5437 179.833 35.7204C179.776 41.6687 179.807 47.6189 179.807 53.5682C179.824 53.5682 179.842 53.5682 179.86 53.5682Z" fill="#F8F8F7"/>
<path d="M148.6 43.2724C148.159 40.2431 148.325 37.2011 148.415 34.161C153.297 34.1778 158.178 34.2378 163.058 34.1827C164.334 34.1679 164.706 34.5546 164.643 35.8041C164.543 37.7619 164.548 39.7335 164.655 41.6913C164.722 42.9438 164.354 43.3206 163.074 43.3009C158.25 43.2252 153.425 43.2714 148.6 43.2724Z" fill="#F8F8F7"/>
<path d="M138.369 34.287C138.6 37.271 138.579 40.2559 138.409 43.2419C136.115 43.2409 133.82 43.1907 131.529 43.2616C130.463 43.294 130.032 43.0382 130.079 41.8793C130.166 39.7571 130.15 37.6271 130.068 35.504C130.026 34.4424 130.393 34.1561 131.408 34.2004C133.474 34.2919 135.546 34.2702 137.614 34.2958C137.613 34.2958 137.623 34.2958 137.623 34.2958C137.873 34.2939 138.121 34.2909 138.369 34.287Z" fill="#F8F8F7"/>
<path d="M50.5006 70.6093C48.1708 70.5945 46.3301 68.7744 46.3015 66.4565C46.272 64.113 48.2033 62.0833 50.4858 62.0607C52.8598 62.0361 54.8905 64.055 54.8865 66.4368C54.8826 68.7361 52.8982 70.625 50.5006 70.6093Z" fill="#F8F8F7"/>
<path d="M51.514 55.9403C50.8883 58.5426 50.8883 58.5435 48.3499 58.7069C45.1151 58.9154 41.8704 59.0335 38.6493 59.371C37.2621 59.5166 36.8636 58.9843 36.8115 57.8037C36.8095 57.7486 36.7967 57.6925 36.7869 57.6374C36.4219 55.3894 36.4209 55.41 38.6326 55.4848C42.3761 55.6117 46.1206 55.7071 49.8641 55.8232C50.4091 55.84 50.9532 55.899 51.514 55.9403Z" fill="#F8F8F7"/>
<path d="M52.1112 44.9144C54.8227 44.7363 54.8227 44.7363 54.1231 47.2736C53.9598 47.8669 53.7896 48.4582 53.6243 49.0514C52.7586 52.1427 52.7605 52.1141 49.4952 51.8475C48.7543 51.7865 48.5202 51.5602 48.5979 50.8391C48.7711 49.2256 48.9196 47.6081 49.0269 45.9888C49.0751 45.2578 49.4352 45.0452 50.1012 45.0423C50.7712 45.0403 51.4412 44.9616 52.1112 44.9144Z" fill="#F8F8F7"/>
<path d="M40.7488 48.1503C40.7576 47.984 40.856 47.4203 40.8009 46.8713C40.673 45.614 41.2122 45.2686 42.4302 45.247C45.361 45.1948 45.36 45.1309 44.9517 48.1306C44.9065 48.4622 44.8662 48.7947 44.8297 49.1282C44.5454 51.7482 43.8361 52.2185 41.2073 51.6557C40.5845 51.5219 40.5422 51.1884 40.5737 50.7132C40.6199 49.9891 40.6711 49.265 40.7488 48.1503Z" fill="#F8F8F7"/>
<path d="M35.7873 51.2562C35.4607 49.6752 35.1193 48.0981 34.8172 46.5121C34.7503 46.1629 34.5044 45.6217 34.9746 45.4752C35.4803 45.3168 36.0883 45.3266 36.6147 45.4378C37.1489 45.5499 36.9197 46.0596 36.8705 46.4246C36.6481 48.0626 36.4169 49.6988 36.1887 51.3359C36.0549 51.3093 35.9211 51.2828 35.7873 51.2562Z" fill="#F8F8F7"/>
<defs>
<linearGradient id="paint0_linear_173_3" x1="137.615" y1="34.2226" x2="137.625" y2="34.2227" gradientUnits="userSpaceOnUse">
<stop stop-color="#30A94A"/>
<stop offset="1" stop-color="#238832"/>
</linearGradient>
</defs>
</svg>
