<svg width="244" height="52" viewBox="0 0 244 52" fill="none" xmlns="http://www.w3.org/2000/svg">
<path d="M215.316 14.7573C217.31 14.7573 219.209 14.7573 221.196 14.7573C221.254 15.7355 221.305 16.6081 221.373 17.7499C224.645 14.6209 228.453 13.9222 232.543 14.4471C235.747 14.8595 238.487 16.2843 240.641 18.7281C245.113 23.8 245.117 32.6449 240.669 37.7474C236.043 43.0544 228.637 43.5691 221.52 38.9847C221.52 41.1593 221.52 43.2418 221.52 45.3278C221.52 47.3593 221.52 49.3941 221.52 51.5244C219.359 51.5244 217.399 51.5244 215.316 51.5244C215.316 39.2982 215.316 27.1232 215.316 14.7573ZM237.468 28.1458C237.448 23.1217 234.155 19.6723 229.428 19.7132C224.659 19.7541 221.377 23.2171 221.387 28.1935C221.397 33.2516 224.778 36.8782 229.475 36.8612C234.199 36.8476 237.489 33.2619 237.468 28.1458Z" fill="white"/>
<path d="M130.923 8.87766C130.217 10.6296 129.587 12.1975 128.919 13.8472C127.531 13.2746 126.26 12.6815 124.944 12.2282C121.938 11.1954 118.86 10.9023 115.728 11.5806C115.125 11.7101 114.525 11.9214 113.966 12.1839C112.343 12.944 111.355 14.2221 111.341 16.0354C111.328 17.7772 112.411 18.9224 113.935 19.4848C115.786 20.1699 117.729 20.613 119.62 21.1925C122.108 21.9526 124.651 22.5899 127.058 23.5545C134.348 26.4722 133.564 35.9614 128.615 39.4789C125.343 41.8035 121.662 42.3931 117.797 42.3454C112.875 42.2807 108.26 41.1729 104.006 38.1666C104.742 36.4999 105.465 34.8672 106.031 33.5925C109.31 34.673 112.374 36.067 115.588 36.6192C117.947 37.0248 120.53 36.5238 122.944 36.0568C124.641 35.7262 125.769 34.3798 125.885 32.5086C125.991 30.7532 125.04 29.55 123.506 28.9399C121.365 28.0912 119.16 27.4129 116.975 26.6801C114.562 25.8723 112.057 25.2826 109.746 24.2465C102.793 21.1209 103.757 12.0441 108.601 8.6084C111.508 6.54628 114.77 5.84754 118.236 5.77596C122.671 5.68734 126.908 6.42697 130.923 8.87766Z" fill="white"/>
<path d="M164.782 41.7592C162.908 41.7592 160.893 41.7592 158.671 41.7592C158.671 39.0324 158.674 36.3875 158.671 33.7391C158.668 31.2986 158.702 28.8547 158.651 26.4143C158.569 22.4911 156.599 20.1904 153.139 19.8837C148.919 19.5087 145.647 21.6424 145.01 25.4122C144.69 27.2971 144.72 29.2501 144.686 31.1725C144.632 34.5776 144.652 37.9826 144.632 41.3877C144.632 41.4865 144.54 41.582 144.444 41.7728C142.525 41.7728 140.565 41.7728 138.5 41.7728C138.5 29.2672 138.5 16.8535 138.5 4.29672C140.494 4.29672 142.491 4.29672 144.608 4.29672C144.608 8.6357 144.608 12.9304 144.608 17.4296C145.007 17.2455 145.266 17.1807 145.453 17.0308C149.148 14.0995 153.354 13.6734 157.706 14.8562C161.763 15.9571 164.431 18.8577 164.684 22.982C165.062 29.1785 164.782 35.4229 164.782 41.7592Z" fill="white"/>
<path d="M41.2766 39.7584C42.0469 38.2382 42.7763 36.7965 43.5739 35.2217C47.0983 37.1714 50.7624 38.0337 54.6412 37.6418C55.6774 37.5361 56.7954 37.2396 57.6611 36.6908C59.321 35.641 59.1949 33.4766 57.3782 32.7881C55.5479 32.0962 53.5505 31.8474 51.6247 31.4008C50.0807 31.043 48.5026 30.7873 46.9994 30.2999C44.0784 29.3524 42.3844 27.3243 42.0878 24.2158C41.7674 20.8312 43.2331 18.3566 46.1473 16.7921C50.3329 14.5426 54.7946 14.7539 59.2597 15.6878C60.7867 16.0082 62.2489 16.6285 63.9634 17.1841C63.084 18.8986 62.3444 20.3335 61.5229 21.9355C58.595 20.3165 55.5445 19.8155 52.395 20.1324C51.3009 20.2415 50.1386 20.5721 49.2013 21.1277C47.4868 22.1434 47.5652 24.4714 49.416 25.1804C51.3998 25.9439 53.588 26.1654 55.6433 26.7721C57.7327 27.3891 59.955 27.8765 61.7922 28.974C65.4392 31.152 65.9096 36.5544 62.6988 39.3664C61.223 40.6582 59.2733 41.6944 57.3714 42.1511C52.378 43.3509 47.4459 42.7476 42.7422 40.6037C42.2889 40.3992 41.8765 40.1095 41.2766 39.7584Z" fill="white"/>
<path d="M207.18 18.6293C206.223 18.51 205.561 18.4282 204.818 18.3362C204.784 17.8454 204.733 17.4057 204.73 16.966C204.703 14.1506 204.924 13.9631 207.702 14.4165C210.449 14.8664 212.072 17.467 211.182 20.1359C210.228 22.9853 209.294 25.8485 208.135 28.6127C206.949 31.4384 204.593 32.9108 201.567 32.9585C195.21 33.054 188.85 33.1119 182.496 32.9449C179.378 32.8631 177.056 31.1964 175.87 28.1662C173.447 21.9901 171.006 15.8241 168.569 9.65482C167.704 7.45977 166.817 6.85307 164.469 6.83943C163.051 6.82921 161.63 6.83261 160.212 6.83602C158.818 6.83943 157.812 6.185 157.747 4.79775C157.679 3.3662 158.722 2.67769 160.072 2.63338C161.943 2.57203 163.832 2.46296 165.686 2.6402C169.057 2.96059 171.262 4.87275 172.489 8.02217C174.752 13.8336 177.118 19.6007 179.33 25.4326C180.121 27.5186 181.794 28.9025 184.361 28.8241C189.692 28.6604 195.033 28.7763 200.367 28.7763C202.698 28.7763 203.878 27.9447 204.672 25.7155C205.483 23.4285 206.291 21.1414 207.18 18.6293Z" fill="white"/>
<path d="M24.725 37.0146C24.725 38.6609 24.7216 40.0106 24.725 41.3604C24.7284 42.5499 23.832 42.3284 23.1435 42.3318C17.8604 42.3489 12.5807 42.342 7.29753 42.342C4.91842 42.342 2.5359 42.342 0 42.342C0 30.5487 0 18.8986 0 7.12573C2.04508 7.12573 4.04926 7.12573 6.20341 7.12573C6.20341 7.93013 6.20341 8.6016 6.20341 9.27306C6.20341 17.7363 6.20001 26.1961 6.20001 34.6593C6.20001 37.001 6.2 37.0078 8.47686 37.0078C13.1908 37.0112 17.9047 37.0078 22.6186 37.0112C23.2355 37.0146 23.8525 37.0146 24.725 37.0146Z" fill="white"/>
<path d="M67.0549 15.589C68.4694 15.589 69.7578 15.589 71.2984 15.589C71.2984 13.4996 71.2984 11.5567 71.2984 9.53552C73.4491 9.53552 75.3443 9.53552 77.3859 9.53552C77.3859 11.509 77.3859 13.3666 77.3859 15.4935C79.8094 15.4935 82.0964 15.4935 84.5199 15.4935C84.5199 17.2523 84.5199 18.7384 84.5199 20.4017C82.1919 20.4017 79.9457 20.4017 77.4098 20.4017C77.4098 21.4549 77.4098 22.3343 77.4098 23.2171C77.4098 26.4552 77.4064 29.6898 77.4064 32.9278C77.4098 37.11 80.0377 38.8279 83.9575 37.2123C84.162 37.1271 84.3665 37.0419 84.7891 36.8646C85.2765 38.0371 85.8287 39.1415 86.1593 40.3038C86.2582 40.6514 85.8526 41.4149 85.4913 41.5819C82.1135 43.1532 78.6402 43.2419 75.3102 41.5717C72.2834 40.0549 71.3325 37.2566 71.3564 34.0254C71.3802 30.1636 71.3052 26.3018 71.3973 22.4434C71.4347 20.9232 71.0291 20.2142 69.4203 20.4153C68.7011 20.5074 67.9581 20.429 67.0515 20.429C67.0549 18.8304 67.0549 17.3409 67.0549 15.589Z" fill="white"/>
<path d="M202.872 13.3837C202.872 16.8467 202.882 20.3063 202.865 23.7693C202.855 25.7291 202.269 26.3563 200.357 26.3631C194.852 26.387 189.347 26.3836 183.846 26.3597C181.985 26.3529 181.436 25.7837 181.433 23.892C181.416 16.741 181.416 9.59346 181.429 2.4425C181.433 0.612149 182.05 0.0088418 183.901 0.00543334C189.405 -0.00479207 194.91 -0.00137736 200.411 0.0224819C202.255 0.0292989 202.852 0.629183 202.865 2.4868C202.893 6.12023 202.872 9.75025 202.872 13.3837ZM201.035 24.2431C201.035 19.5939 201.079 15.0129 201.021 10.4319C200.97 6.44744 198.475 2.9674 194.504 2.41522C190.861 1.90736 187.091 2.30615 183.284 2.30615C183.284 9.53551 183.284 16.8296 183.284 24.2396C189.177 24.2431 194.988 24.2431 201.035 24.2431ZM200.929 2.14255C199.348 2.14255 197.92 2.14255 196.604 2.14255C198.042 3.50253 199.491 4.86591 200.929 6.22589C200.929 5.01588 200.929 3.63887 200.929 2.14255Z" fill="white"/>
<path d="M35.7925 42.325C33.9553 42.325 32.3294 42.325 30.7036 42.325C29.514 42.325 29.7458 41.4286 29.7424 40.7434C29.7254 36.3806 29.7322 32.0144 29.7322 27.6515C29.7322 23.6875 29.7322 19.7268 29.7322 15.4628C31.6137 15.4628 33.3963 15.4049 35.1687 15.531C35.4107 15.5481 35.7652 16.4854 35.7686 17.0001C35.8061 24.1408 35.7925 31.2815 35.7925 38.4223C35.7925 39.6561 35.7925 40.8866 35.7925 42.325Z" fill="white"/>
<path d="M97.997 15.439C97.997 24.4271 97.997 33.2551 97.997 42.2125C96.0371 42.2125 94.1522 42.2125 92.0594 42.2125C92.0594 41.5172 92.0594 40.9071 92.0594 40.3004C92.056 32.6927 92.1071 25.0816 92.0151 17.4739C91.9947 15.7901 92.5127 15.2515 94.1352 15.4117C95.3622 15.5344 96.6131 15.439 97.997 15.439Z" fill="white"/>
<path d="M32.7418 3.45481C35.1244 3.4514 36.607 4.80456 36.6139 6.9962C36.6207 9.21853 35.0392 10.6842 32.6396 10.6739C30.4173 10.6637 28.8085 9.12308 28.8085 7.00302C28.8085 4.92385 30.4343 3.45822 32.7418 3.45481Z" fill="white"/>
<path d="M98.9582 6.99622C98.9412 9.23559 97.3221 10.7319 94.9805 10.6774C92.69 10.6228 91.1289 9.1197 91.1596 6.99622C91.1903 4.91024 92.8536 3.4037 95.0998 3.42756C97.496 3.45142 98.9752 4.82503 98.9582 6.99622Z" fill="white"/>
<path d="M181.28 35.5115C183.277 35.5012 184.998 37.1509 185.06 39.1381C185.121 41.1661 183.362 42.9658 181.303 42.9794C179.211 42.993 177.482 41.3093 177.462 39.2403C177.442 37.1646 179.125 35.5251 181.28 35.5115Z" fill="white"/>
<path d="M205.34 42.9624C203.37 42.9487 201.652 41.2172 201.662 39.2574C201.676 37.1237 203.308 35.5183 205.456 35.5319C207.6 35.5455 209.283 37.2191 209.239 39.2949C209.195 41.3774 207.494 42.976 205.34 42.9624Z" fill="white"/>
<path d="M185.772 10.9398C189.998 10.9398 194.221 10.9398 198.7 10.9398C197.565 11.7817 187.599 11.9487 185.772 10.9398Z" fill="white"/>
<path d="M198.819 7.72221C194.249 7.72221 190.043 7.72221 185.775 7.72221C186.675 6.80874 197.061 6.67581 198.819 7.72221Z" fill="white"/>
<path d="M192.122 15.4458C197.061 15.4458 201.066 15.3069 201.066 15.1356C201.066 14.9643 197.061 14.8255 192.122 14.8255C187.182 14.8255 183.178 14.9643 183.178 15.1356C183.178 15.3069 187.182 15.4458 192.122 15.4458Z" fill="white"/>
<path d="M192.135 19.1883C197.071 19.1883 201.072 19.0525 201.072 18.885C201.072 18.7174 197.071 18.5816 192.135 18.5816C187.2 18.5816 183.198 18.7174 183.198 18.885C183.198 19.0525 187.2 19.1883 192.135 19.1883Z" fill="white"/>
</svg>
