<svg width="168" height="75" viewBox="0 0 168 75" fill="none" xmlns="http://www.w3.org/2000/svg">
<path d="M0.0358246 29.8794C0.0358246 20.4114 0.0660213 10.9434 0.000137672 1.47537C-0.00809778 0.215346 0.351517 -0.0481871 1.51821 0.00671589C3.61825 0.105541 5.72927 0.10554 7.82656 0.0122053C8.94109 -0.0372074 9.17717 0.336133 9.17717 1.39027C9.15247 17.3972 9.16619 33.407 9.17717 49.4139C9.17717 51.4069 8.95207 51.1845 10.9121 51.1845C16.9048 51.19 22.8947 51.1736 28.8874 51.1653C30.776 51.1626 32.4313 51.654 33.4114 53.4383C34.2541 54.9729 34.2102 56.5129 33.2659 57.987C32.2447 59.582 30.658 60.0267 28.8764 60.0267C22.5653 60.0239 16.2514 60.0239 9.94033 60.0239C7.10459 60.0239 4.2661 59.9773 1.43311 60.0486C0.359752 60.0761 0.0577858 59.7851 0.0632761 58.6898C0.109944 49.0845 0.0907276 39.4792 0.0907276 29.8739C0.0715116 29.8794 0.0522955 29.8794 0.0358246 29.8794Z" fill="white"/>
<path d="M24.6488 74.6995C16.8718 74.6995 9.09752 74.6803 1.32051 74.7242C0.310292 74.7297 -0.0465779 74.5019 0.0275412 73.4477C0.123621 72.0834 0.129112 70.6999 0.024796 69.3355C-0.0630488 68.2182 0.343233 67.9959 1.38914 68.0014C11.818 68.0425 22.2468 68.0343 32.6756 68.0343C37.3424 68.0343 42.0064 68.0014 46.6731 68.0343C49.2563 68.0535 51.5403 67.2904 53.4839 65.6103C54.258 64.9405 54.3623 65.2398 54.5215 66.0331C55.4439 70.634 52.1497 74.7023 47.4253 74.7105C39.8322 74.727 32.2391 74.7133 24.646 74.7133C24.6488 74.7105 24.6488 74.705 24.6488 74.6995Z" fill="white"/>
<path d="M34.8087 47.1492C33.7134 46.8527 32.6153 45.0848 32.7745 43.9099C32.8843 43.1001 33.5404 43.4075 33.9659 43.4048C38.4488 43.3773 42.9316 43.3883 47.4117 43.3718C47.8482 43.3691 48.3588 43.5475 48.7046 43.1385C49.0231 42.7652 49.0148 42.271 48.9517 41.8263C48.8694 41.2361 48.3395 41.3816 47.9635 41.3816C44.6693 41.3679 41.3778 41.3871 38.0837 41.3651C36.3487 41.3542 34.611 41.2142 32.8789 41.2498C31.7094 41.2745 31.7231 40.4098 31.5173 39.7153C30.9133 37.6729 30.9298 37.6619 33.0738 37.6592C38.3335 37.6482 43.5932 37.651 48.8529 37.6317C49.4047 37.629 50.058 37.8266 50.2886 36.9702C50.6015 35.8144 50.3957 35.4658 49.1905 35.4631C43.4285 35.4548 37.6637 35.4658 31.9016 35.4439C31.3471 35.4411 30.5812 35.7595 30.2819 35.087C29.8976 34.2223 29.6204 33.2779 29.4968 32.3418C29.4227 31.7708 30.0843 31.9108 30.4576 31.9081C32.6977 31.8944 34.9405 31.8999 37.1805 31.9026C41.5261 31.9054 45.8716 31.8806 50.2145 31.9356C51.1506 31.9465 51.5212 31.6061 51.6529 30.7469C51.8341 29.5747 52.0894 28.4135 52.2843 27.2441C52.4216 26.4233 52.7263 25.9511 53.7008 26.0252C54.9746 26.1213 56.2593 26.0527 57.5413 26.0719C57.8076 26.0774 58.2935 26.135 58.3017 26.2092C58.4197 27.3127 57.9201 28.3202 57.7307 29.3798C57.6127 30.0359 57.0828 30.0002 56.6601 29.9124C55.2381 29.6214 54.9471 30.4092 54.7055 31.5952C53.7475 36.2894 52.6604 40.9561 51.6831 45.6476C51.4608 46.7099 50.9831 47.0092 49.9235 46.9845C46.5415 46.9103 43.1539 46.968 39.7692 46.9378C38.877 46.9296 38.6354 47.1217 39.0335 48.0276C39.5935 49.2986 39.2009 50.6136 38.1907 51.3191C37.2299 51.9916 36.2279 52.0932 35.2726 51.341C34.2157 50.5092 33.9632 49.4112 34.3969 48.1539C34.5205 47.819 34.6714 47.4868 34.8087 47.1492Z" fill="white"/>
<path d="M47.763 12.3516C50.7305 12.3599 52.7838 14.3858 52.7893 17.3121C52.7948 20.1451 50.5658 22.4483 47.8206 22.4456C45.0453 22.4428 42.6872 20.1643 42.6597 17.4604C42.6295 14.5752 44.8586 12.3434 47.763 12.3516Z" fill="white"/>
<path d="M50.0937 55.0689C50.1019 58.1874 47.9003 60.3781 44.7434 60.3945C41.4272 60.4138 39.039 58.1106 39.0444 54.8987C39.0472 51.9614 41.4739 49.6857 44.5814 49.7022C47.8097 49.7186 50.0827 51.9312 50.0937 55.0689ZM46.7391 55.2858C46.816 54.023 45.8881 53.0293 44.5759 52.9689C43.3955 52.914 42.4676 53.7458 42.3963 54.9262C42.3249 56.1148 43.272 57.2404 44.3838 57.2843C45.6218 57.3337 46.6677 56.447 46.7391 55.2858Z" fill="white"/>
<mask id="path-6-inside-1_196_55" fill="white">
<path d="M71.5009 60.142C69.2297 60.142 67.1057 59.7425 65.129 58.9433C63.1943 58.1442 61.554 57.0297 60.2081 55.5997L63.8672 50.7419C65.2131 51.9616 66.4538 52.8448 67.5894 53.3916C68.7671 53.8963 69.8185 54.1486 70.7438 54.1486C71.8374 54.1486 72.7416 53.9804 73.4566 53.6439C74.1716 53.3075 74.5291 52.7607 74.5291 52.0036C74.5291 51.2886 74.2347 50.7208 73.6459 50.3002C73.0991 49.8797 72.3841 49.5432 71.5009 49.2908C70.6176 48.9964 69.6713 48.702 68.6619 48.4076C66.1384 47.6085 64.3088 46.4519 63.1732 44.9377C62.0797 43.3816 61.5329 41.6992 61.5329 39.8907C61.5329 38.5027 61.8904 37.1148 62.6054 35.7269C63.3625 34.2969 64.5401 33.1192 66.1384 32.1939C67.7787 31.2266 69.8816 30.7429 72.4472 30.7429C74.7604 30.7429 76.7162 30.9742 78.3144 31.4369C79.9126 31.8995 81.4268 32.6566 82.8568 33.708L79.5131 38.8813C78.714 38.2504 77.8097 37.7247 76.8003 37.3041C75.8329 36.8414 74.9287 36.5891 74.0875 36.547C72.9519 36.505 72.0687 36.7152 71.4378 37.1779C70.8069 37.5985 70.4915 38.1032 70.4915 38.692C70.4494 39.7014 70.9121 40.4375 71.8794 40.9001C72.8888 41.3207 74.0034 41.6992 75.2231 42.0357C75.5175 42.1198 75.7909 42.2039 76.0432 42.288C76.3376 42.3722 76.611 42.4563 76.8634 42.5404C78.8401 43.2133 80.4174 44.1807 81.595 45.4425C82.7726 46.6622 83.3615 48.3025 83.3615 50.3633C83.3615 52.0457 82.9199 53.6439 82.0366 55.158C81.1954 56.6301 79.8916 57.8288 78.1251 58.7541C76.4007 59.6794 74.1926 60.142 71.5009 60.142ZM93.3462 19.8917H102.179V31.8785H108.866V38.7551H102.179V59.5742H93.3462V38.7551H89.0562V31.8785H93.3462V19.8917ZM115.588 32.0047H124.421V59.5742H115.588V32.0047ZM115.399 22.226C115.399 20.9222 115.904 19.8497 116.913 19.0085C117.965 18.1673 119.079 17.7467 120.257 17.7467C121.434 17.7467 122.507 18.1673 123.474 19.0085C124.484 19.8497 124.988 20.9222 124.988 22.226C124.988 23.5298 124.484 24.6023 123.474 25.4435C122.507 26.2426 121.434 26.6422 120.257 26.6422C119.079 26.6422 117.965 26.2426 116.913 25.4435C115.904 24.6023 115.399 23.5298 115.399 22.226ZM145.125 60.3313C142.559 60.3313 140.225 59.8266 138.122 58.8172C136.061 57.7657 134.421 56.1675 133.201 54.0225C131.981 51.8775 131.372 49.1436 131.372 45.821C131.372 42.7086 132.003 40.0169 133.264 37.7457C134.526 35.4745 136.187 33.7291 138.248 32.5094C140.309 31.2476 142.496 30.6167 144.809 30.6167C147.501 30.6167 149.541 31.0583 150.929 31.9416C152.317 32.7827 153.474 33.7501 154.399 34.8436L154.967 32.0047H163.168V59.5742H154.336V56.1675C153.915 56.588 153.284 57.1348 152.443 57.8077C151.644 58.4807 150.635 59.0695 149.415 59.5742C148.195 60.0789 146.765 60.3313 145.125 60.3313ZM147.648 53.1392C150.719 53.1392 152.948 51.7513 154.336 48.9754V42.225C153.831 40.8791 152.948 39.8066 151.686 39.0075C150.466 38.2083 149.015 37.8088 147.333 37.8088C145.44 37.8088 143.8 38.5238 142.412 39.9538C141.024 41.3417 140.33 43.1502 140.33 45.3794C140.33 46.8514 140.667 48.1763 141.34 49.3539C142.013 50.5316 142.896 51.4569 143.989 52.1298C145.125 52.8027 146.345 53.1392 147.648 53.1392Z"/>
</mask>
<path d="M71.5009 60.142C69.2297 60.142 67.1057 59.7425 65.129 58.9433C63.1943 58.1442 61.554 57.0297 60.2081 55.5997L63.8672 50.7419C65.2131 51.9616 66.4538 52.8448 67.5894 53.3916C68.7671 53.8963 69.8185 54.1486 70.7438 54.1486C71.8374 54.1486 72.7416 53.9804 73.4566 53.6439C74.1716 53.3075 74.5291 52.7607 74.5291 52.0036C74.5291 51.2886 74.2347 50.7208 73.6459 50.3002C73.0991 49.8797 72.3841 49.5432 71.5009 49.2908C70.6176 48.9964 69.6713 48.702 68.6619 48.4076C66.1384 47.6085 64.3088 46.4519 63.1732 44.9377C62.0797 43.3816 61.5329 41.6992 61.5329 39.8907C61.5329 38.5027 61.8904 37.1148 62.6054 35.7269C63.3625 34.2969 64.5401 33.1192 66.1384 32.1939C67.7787 31.2266 69.8816 30.7429 72.4472 30.7429C74.7604 30.7429 76.7162 30.9742 78.3144 31.4369C79.9126 31.8995 81.4268 32.6566 82.8568 33.708L79.5131 38.8813C78.714 38.2504 77.8097 37.7247 76.8003 37.3041C75.8329 36.8414 74.9287 36.5891 74.0875 36.547C72.9519 36.505 72.0687 36.7152 71.4378 37.1779C70.8069 37.5985 70.4915 38.1032 70.4915 38.692C70.4494 39.7014 70.9121 40.4375 71.8794 40.9001C72.8888 41.3207 74.0034 41.6992 75.2231 42.0357C75.5175 42.1198 75.7909 42.2039 76.0432 42.288C76.3376 42.3722 76.611 42.4563 76.8634 42.5404C78.8401 43.2133 80.4174 44.1807 81.595 45.4425C82.7726 46.6622 83.3615 48.3025 83.3615 50.3633C83.3615 52.0457 82.9199 53.6439 82.0366 55.158C81.1954 56.6301 79.8916 57.8288 78.1251 58.7541C76.4007 59.6794 74.1926 60.142 71.5009 60.142ZM93.3462 19.8917H102.179V31.8785H108.866V38.7551H102.179V59.5742H93.3462V38.7551H89.0562V31.8785H93.3462V19.8917ZM115.588 32.0047H124.421V59.5742H115.588V32.0047ZM115.399 22.226C115.399 20.9222 115.904 19.8497 116.913 19.0085C117.965 18.1673 119.079 17.7467 120.257 17.7467C121.434 17.7467 122.507 18.1673 123.474 19.0085C124.484 19.8497 124.988 20.9222 124.988 22.226C124.988 23.5298 124.484 24.6023 123.474 25.4435C122.507 26.2426 121.434 26.6422 120.257 26.6422C119.079 26.6422 117.965 26.2426 116.913 25.4435C115.904 24.6023 115.399 23.5298 115.399 22.226ZM145.125 60.3313C142.559 60.3313 140.225 59.8266 138.122 58.8172C136.061 57.7657 134.421 56.1675 133.201 54.0225C131.981 51.8775 131.372 49.1436 131.372 45.821C131.372 42.7086 132.003 40.0169 133.264 37.7457C134.526 35.4745 136.187 33.7291 138.248 32.5094C140.309 31.2476 142.496 30.6167 144.809 30.6167C147.501 30.6167 149.541 31.0583 150.929 31.9416C152.317 32.7827 153.474 33.7501 154.399 34.8436L154.967 32.0047H163.168V59.5742H154.336V56.1675C153.915 56.588 153.284 57.1348 152.443 57.8077C151.644 58.4807 150.635 59.0695 149.415 59.5742C148.195 60.0789 146.765 60.3313 145.125 60.3313ZM147.648 53.1392C150.719 53.1392 152.948 51.7513 154.336 48.9754V42.225C153.831 40.8791 152.948 39.8066 151.686 39.0075C150.466 38.2083 149.015 37.8088 147.333 37.8088C145.44 37.8088 143.8 38.5238 142.412 39.9538C141.024 41.3417 140.33 43.1502 140.33 45.3794C140.33 46.8514 140.667 48.1763 141.34 49.3539C142.013 50.5316 142.896 51.4569 143.989 52.1298C145.125 52.8027 146.345 53.1392 147.648 53.1392Z" fill="white"/>
<path d="M65.129 58.9433L64.7472 59.8676L64.7542 59.8704L65.129 58.9433ZM60.2081 55.5997L59.4093 54.998L58.9022 55.6712L59.4799 56.285L60.2081 55.5997ZM63.8672 50.7419L64.5387 50.0009L63.7273 49.2655L63.0685 50.1402L63.8672 50.7419ZM67.5894 53.3916L67.1556 54.2926L67.1753 54.3021L67.1955 54.3107L67.5894 53.3916ZM73.4566 53.6439L73.0308 52.7391H73.0308L73.4566 53.6439ZM73.6459 50.3002L73.0362 51.0929L73.0502 51.1037L73.0646 51.114L73.6459 50.3002ZM71.5009 49.2908L71.1847 50.2395L71.2053 50.2464L71.2262 50.2524L71.5009 49.2908ZM68.6619 48.4076L68.36 49.3609L68.3709 49.3644L68.3819 49.3676L68.6619 48.4076ZM63.1732 44.9377L62.355 45.5127L62.3639 45.5254L62.3732 45.5377L63.1732 44.9377ZM62.6054 35.7269L61.7216 35.2589L61.7165 35.2689L62.6054 35.7269ZM66.1384 32.1939L66.6394 33.0594L66.6464 33.0553L66.1384 32.1939ZM78.3144 31.4369L78.0364 32.3974H78.0364L78.3144 31.4369ZM82.8568 33.708L83.6966 34.2509L84.2077 33.4601L83.4492 32.9024L82.8568 33.708ZM79.5131 38.8813L78.8934 39.6662L79.7562 40.3473L80.3529 39.4241L79.5131 38.8813ZM76.8003 37.3041L76.3688 38.2062L76.392 38.2173L76.4157 38.2271L76.8003 37.3041ZM74.0875 36.547L74.1374 35.5482L74.1245 35.5477L74.0875 36.547ZM71.4378 37.1779L71.9925 38.0099L72.0111 37.9975L72.0292 37.9843L71.4378 37.1779ZM70.4915 38.692L71.4906 38.7336L71.4915 38.7128V38.692H70.4915ZM71.8794 40.9001L71.448 41.8022L71.4711 41.8133L71.4948 41.8232L71.8794 40.9001ZM75.2231 42.0357L75.4978 41.0741L75.489 41.0717L75.2231 42.0357ZM76.0432 42.288L75.727 43.2367L75.7476 43.2436L75.7685 43.2496L76.0432 42.288ZM76.8634 42.5404L77.1857 41.5937L77.1796 41.5917L76.8634 42.5404ZM81.595 45.4425L80.8639 46.1248L80.8697 46.131L80.8756 46.137L81.595 45.4425ZM82.0366 55.158L81.1728 54.6542L81.1684 54.6619L82.0366 55.158ZM78.1251 58.7541L77.6611 57.8682L77.6523 57.8729L78.1251 58.7541ZM71.5009 59.142C69.3497 59.142 67.3538 58.7641 65.5038 58.0162L64.7542 59.8704C66.8576 60.7208 69.1097 61.142 71.5009 61.142V59.142ZM65.5107 58.0191C63.6983 57.2705 62.1786 56.2343 60.9363 54.9143L59.4799 56.285C60.9293 57.825 62.6902 59.018 64.7472 59.8676L65.5107 58.0191ZM61.0068 56.2013L64.666 51.3435L63.0685 50.1402L59.4093 54.998L61.0068 56.2013ZM63.1957 51.4829C64.5842 52.7412 65.9046 53.6903 67.1556 54.2926L68.0232 52.4906C67.003 51.9994 65.8419 51.1819 64.5387 50.0009L63.1957 51.4829ZM67.1955 54.3107C68.4529 54.8496 69.6417 55.1486 70.7438 55.1486V53.1486C69.9954 53.1486 69.0812 52.943 67.9833 52.4724L67.1955 54.3107ZM70.7438 55.1486C71.9315 55.1486 72.9933 54.9671 73.8824 54.5487L73.0308 52.7391C72.4899 52.9937 71.7432 53.1486 70.7438 53.1486V55.1486ZM73.8824 54.5487C74.3722 54.3183 74.7985 53.9868 75.098 53.5287C75.3992 53.0681 75.5291 52.5449 75.5291 52.0036H73.5291C73.5291 52.2194 73.4803 52.3481 73.424 52.4342C73.366 52.523 73.2561 52.6331 73.0308 52.7391L73.8824 54.5487ZM75.5291 52.0036C75.5291 50.9611 75.075 50.0921 74.2271 49.4865L73.0646 51.114C73.3944 51.3496 73.5291 51.6162 73.5291 52.0036H75.5291ZM74.2556 49.5076C73.5817 48.9892 72.7422 48.6055 71.7756 48.3293L71.2262 50.2524C72.026 50.4809 72.6166 50.7701 73.0362 51.0929L74.2556 49.5076ZM71.8171 48.3422C70.9205 48.0433 69.9619 47.7451 68.9419 47.4476L68.3819 49.3676C69.3807 49.6589 70.3148 49.9496 71.1847 50.2395L71.8171 48.3422ZM68.9638 47.4543C66.5622 46.6937 64.9427 45.6304 63.9732 44.3377L62.3732 45.5377C63.6749 47.2734 65.7146 48.5232 68.36 49.3609L68.9638 47.4543ZM63.9914 44.3628C63.0097 42.9658 62.5329 41.4824 62.5329 39.8907H60.5329C60.5329 41.916 61.1497 43.7974 62.355 45.5127L63.9914 44.3628ZM62.5329 39.8907C62.5329 38.681 62.8432 37.449 63.4944 36.1848L61.7165 35.2689C60.9377 36.7806 60.5329 38.3245 60.5329 39.8907H62.5329ZM63.4892 36.1948C64.1466 34.953 65.18 33.9043 66.6394 33.0594L65.6373 31.3285C63.9003 32.3342 62.5784 33.6407 61.7217 35.259L63.4892 36.1948ZM66.6464 33.0553C68.0883 32.2049 70.0004 31.7429 72.4472 31.7429V29.7429C69.7628 29.7429 67.4691 30.2482 65.6304 31.3326L66.6464 33.0553ZM72.4472 31.7429C74.7001 31.7429 76.556 31.9689 78.0364 32.3974L78.5925 30.4763C76.8764 29.9795 74.8208 29.7429 72.4472 29.7429V31.7429ZM78.0364 32.3974C79.5142 32.8252 80.9228 33.5273 82.2644 34.5137L83.4492 32.9024C81.9307 31.7859 80.3111 30.9738 78.5925 30.4763L78.0364 32.3974ZM82.0169 33.1652L78.6732 38.3385L80.3529 39.4241L83.6966 34.2509L82.0169 33.1652ZM80.1327 38.0964C79.2569 37.4049 78.2724 36.8341 77.1849 36.381L76.4157 38.2271C77.347 38.6152 78.1711 39.0959 78.8934 39.6662L80.1327 38.0964ZM77.2318 36.4019C76.1762 35.8971 75.1417 35.5985 74.1374 35.5483L74.0376 37.5458C74.7156 37.5797 75.4896 37.7857 76.3688 38.2062L77.2318 36.4019ZM74.1245 35.5477C72.8624 35.501 71.7253 35.727 70.8464 36.3715L72.0292 37.9843C72.4121 37.7035 73.0414 37.509 74.0505 37.5463L74.1245 35.5477ZM70.8831 36.3458C70.0638 36.892 69.4915 37.6737 69.4915 38.692H71.4915C71.4915 38.5327 71.55 38.3049 71.9925 38.0099L70.8831 36.3458ZM69.4923 38.6504C69.4643 39.3237 69.6045 39.9673 69.9603 40.5333C70.3134 41.0951 70.8335 41.5084 71.448 41.8022L72.3109 39.998C71.9579 39.8292 71.7631 39.6432 71.6535 39.4689C71.5466 39.2988 71.4766 39.0698 71.4906 38.7336L69.4923 38.6504ZM71.4948 41.8232C72.5483 42.2621 73.7032 42.6538 74.9572 42.9997L75.489 41.0717C74.3036 40.7447 73.2293 40.3792 72.264 39.977L71.4948 41.8232ZM74.9484 42.9972C75.2309 43.0779 75.4903 43.1578 75.727 43.2367L76.3595 41.3394C76.0915 41.25 75.8041 41.1617 75.4978 41.0742L74.9484 42.9972ZM75.7685 43.2496C76.051 43.3303 76.3104 43.4102 76.5472 43.4891L77.1796 41.5917C76.9117 41.5024 76.6243 41.414 76.318 41.3265L75.7685 43.2496ZM76.5411 43.487C78.3944 44.118 79.82 45.0063 80.8639 46.1248L82.3261 44.7601C81.0147 43.3551 79.2859 42.3087 77.1856 41.5937L76.5411 43.487ZM80.8756 46.137C81.8359 47.1317 82.3615 48.5024 82.3615 50.3633H84.3615C84.3615 48.1025 83.7094 46.1926 82.3144 44.7479L80.8756 46.137ZM82.3615 50.3633C82.3615 51.861 81.9708 53.2863 81.1728 54.6542L82.9004 55.6619C83.8689 54.0016 84.3615 52.2303 84.3615 50.3633H82.3615ZM81.1684 54.6619C80.4376 55.9407 79.2887 57.0157 77.6611 57.8682L78.5892 59.6399C80.4945 58.6419 81.9533 57.3195 82.9049 55.6542L81.1684 54.6619ZM77.6523 57.8729C76.1176 58.6964 74.0865 59.142 71.5009 59.142V61.142C74.2988 61.142 76.6839 60.6623 78.598 59.6352L77.6523 57.8729ZM93.3462 19.8917V18.8917H92.3462V19.8917H93.3462ZM102.179 19.8917H103.179V18.8917H102.179V19.8917ZM102.179 31.8785H101.179V32.8785H102.179V31.8785ZM108.866 31.8785H109.866V30.8785H108.866V31.8785ZM108.866 38.7551V39.7551H109.866V38.7551H108.866ZM102.179 38.7551V37.7551H101.179V38.7551H102.179ZM102.179 59.5742V60.5742H103.179V59.5742H102.179ZM93.3462 59.5742H92.3462V60.5742H93.3462V59.5742ZM93.3462 38.7551H94.3462V37.7551H93.3462V38.7551ZM89.0562 38.7551H88.0562V39.7551H89.0562V38.7551ZM89.0562 31.8785V30.8785H88.0562V31.8785H89.0562ZM93.3462 31.8785V32.8785H94.3462V31.8785H93.3462ZM93.3462 20.8917H102.179V18.8917H93.3462V20.8917ZM101.179 19.8917V31.8785H103.179V19.8917H101.179ZM102.179 32.8785H108.866V30.8785H102.179V32.8785ZM107.866 31.8785V38.7551H109.866V31.8785H107.866ZM108.866 37.7551H102.179V39.7551H108.866V37.7551ZM101.179 38.7551V59.5742H103.179V38.7551H101.179ZM102.179 58.5742H93.3462V60.5742H102.179V58.5742ZM94.3462 59.5742V38.7551H92.3462V59.5742H94.3462ZM93.3462 37.7551H89.0562V39.7551H93.3462V37.7551ZM90.0562 38.7551V31.8785H88.0562V38.7551H90.0562ZM89.0562 32.8785H93.3462V30.8785H89.0562V32.8785ZM94.3462 31.8785V19.8917H92.3462V31.8785H94.3462ZM115.588 32.0047V31.0047H114.588V32.0047H115.588ZM124.421 32.0047H125.421V31.0047H124.421V32.0047ZM124.421 59.5742V60.5742H125.421V59.5742H124.421ZM115.588 59.5742H114.588V60.5742H115.588V59.5742ZM116.913 19.0085L116.288 18.2276L116.281 18.2339L116.273 18.2403L116.913 19.0085ZM123.474 19.0085L122.818 19.7631L122.826 19.77L122.834 19.7767L123.474 19.0085ZM123.474 25.4435L124.111 26.2145L124.114 26.2117L123.474 25.4435ZM116.913 25.4435L116.273 26.2117L116.29 26.2261L116.308 26.2396L116.913 25.4435ZM115.588 33.0047H124.421V31.0047H115.588V33.0047ZM123.421 32.0047V59.5742H125.421V32.0047H123.421ZM124.421 58.5742H115.588V60.5742H124.421V58.5742ZM116.588 59.5742V32.0047H114.588V59.5742H116.588ZM116.399 22.226C116.399 21.2216 116.77 20.4296 117.553 19.7767L116.273 18.2403C115.038 19.2697 114.399 20.6227 114.399 22.226H116.399ZM117.538 19.7894C118.439 19.0686 119.338 18.7467 120.257 18.7467V16.7467C118.82 16.7467 117.49 17.266 116.288 18.2276L117.538 19.7894ZM120.257 18.7467C121.171 18.7467 122.015 19.065 122.818 19.7631L124.13 18.2539C122.998 17.2696 121.698 16.7467 120.257 16.7467V18.7467ZM122.834 19.7767C123.618 20.4296 123.988 21.2216 123.988 22.226H125.988C125.988 20.6227 125.35 19.2697 124.114 18.2403L122.834 19.7767ZM123.988 22.226C123.988 23.2304 123.618 24.0224 122.834 24.6753L124.114 26.2117C125.35 25.1822 125.988 23.8293 125.988 22.226H123.988ZM122.837 24.6725C122.037 25.334 121.186 25.6422 120.257 25.6422V27.6422C121.683 27.6422 122.977 27.1512 124.111 26.2144L122.837 24.6725ZM120.257 25.6422C119.324 25.6422 118.418 25.3311 117.518 24.6473L116.308 26.2396C117.511 27.1541 118.834 27.6422 120.257 27.6422V25.6422ZM117.553 24.6753C116.77 24.0224 116.399 23.2304 116.399 22.226H114.399C114.399 23.8293 115.038 25.1822 116.273 26.2117L117.553 24.6753ZM138.122 58.8172L137.668 59.7079L137.678 59.7134L137.689 59.7187L138.122 58.8172ZM138.248 32.5094L138.758 33.3699L138.764 33.3661L138.77 33.3622L138.248 32.5094ZM150.929 31.9416L150.392 32.7852L150.401 32.7911L150.411 32.7968L150.929 31.9416ZM154.399 34.8436L153.635 35.4896L154.973 37.0706L155.379 35.0397L154.399 34.8436ZM154.967 32.0047V31.0047H154.147L153.986 31.8085L154.967 32.0047ZM163.168 32.0047H164.168V31.0047H163.168V32.0047ZM163.168 59.5742V60.5742H164.168V59.5742H163.168ZM154.336 59.5742H153.336V60.5742H154.336V59.5742ZM154.336 56.1675H155.336V53.7532L153.629 55.4603L154.336 56.1675ZM152.443 57.8077L151.818 57.0269L151.809 57.0347L151.799 57.0428L152.443 57.8077ZM149.415 59.5742L149.033 58.6502L149.415 59.5742ZM154.336 48.9754L155.23 49.4226L155.336 49.2115V48.9754H154.336ZM154.336 42.225H155.336V42.0436L155.272 41.8738L154.336 42.225ZM151.686 39.0075L151.138 39.8439L151.144 39.8481L151.151 39.8523L151.686 39.0075ZM142.412 39.9538L143.119 40.6609L143.124 40.6556L143.13 40.6503L142.412 39.9538ZM141.34 49.3539L140.471 49.8501L141.34 49.3539ZM143.989 52.1298L143.465 52.9815L143.472 52.9858L143.479 52.9901L143.989 52.1298ZM145.125 59.3313C142.694 59.3313 140.51 58.854 138.555 57.9156L137.689 59.7187C139.94 60.7992 142.425 61.3313 145.125 61.3313V59.3313ZM138.577 57.9264C136.701 56.9697 135.2 55.5152 134.07 53.5282L132.332 54.5168C133.641 56.8197 135.421 58.5617 137.668 59.7079L138.577 57.9264ZM134.07 53.5282C132.961 51.5771 132.372 49.0281 132.372 45.821H130.372C130.372 49.2591 131.002 52.1778 132.332 54.5168L134.07 53.5282ZM132.372 45.821C132.372 42.845 132.974 40.3271 134.138 38.2313L132.39 37.26C131.031 39.7066 130.372 42.5723 130.372 45.821H132.372ZM134.138 38.2313C135.322 36.1017 136.862 34.4916 138.758 33.3699L137.739 31.6488C135.512 32.9665 133.731 34.8473 132.39 37.26L134.138 38.2313ZM138.77 33.3622C140.681 32.1922 142.689 31.6167 144.809 31.6167V29.6167C142.303 29.6167 139.937 30.303 137.726 31.6565L138.77 33.3622ZM144.809 31.6167C147.42 31.6167 149.237 32.0501 150.392 32.7852L151.466 31.0979C149.845 30.0666 147.582 29.6167 144.809 29.6167V31.6167ZM150.411 32.7968C151.718 33.5893 152.789 34.4888 153.635 35.4896L155.162 34.1977C154.158 33.0114 152.916 31.9762 151.447 31.0864L150.411 32.7968ZM155.379 35.0397L155.947 32.2008L153.986 31.8085L153.418 34.6475L155.379 35.0397ZM154.967 33.0047H163.168V31.0047H154.967V33.0047ZM162.168 32.0047V59.5742H164.168V32.0047H162.168ZM163.168 58.5742H154.336V60.5742H163.168V58.5742ZM155.336 59.5742V56.1675H153.336V59.5742H155.336ZM153.629 55.4603C153.247 55.8419 152.65 56.3617 151.818 57.0269L153.068 58.5886C153.919 57.9079 154.583 57.3341 155.043 56.8746L153.629 55.4603ZM151.799 57.0428C151.096 57.6348 150.181 58.1749 149.033 58.6502L149.797 60.4982C151.088 59.9641 152.192 59.3265 153.087 58.5727L151.799 57.0428ZM149.033 58.6502C147.96 59.0942 146.665 59.3313 145.125 59.3313V61.3313C146.866 61.3313 148.431 61.0637 149.797 60.4982L149.033 58.6502ZM147.648 54.1392C149.338 54.1392 150.853 53.7556 152.152 52.9472C153.449 52.1391 154.469 50.9453 155.23 49.4226L153.441 48.5282C152.815 49.7814 152.026 50.6695 151.094 51.2494C150.164 51.8289 149.029 52.1392 147.648 52.1392V54.1392ZM155.336 48.9754V42.225H153.336V48.9754H155.336ZM155.272 41.8738C154.688 40.3157 153.659 39.0734 152.221 38.1626L151.151 39.8523C152.237 40.5398 152.974 41.4424 153.399 42.5761L155.272 41.8738ZM152.234 38.171C150.828 37.2495 149.179 36.8088 147.333 36.8088V38.8088C148.851 38.8088 150.105 39.1672 151.138 39.8439L152.234 38.171ZM147.333 36.8088C145.154 36.8088 143.26 37.6447 141.694 39.2573L143.13 40.6503C144.34 39.4028 145.726 38.8088 147.333 38.8088V36.8088ZM141.705 39.2467C140.103 40.8481 139.33 42.9242 139.33 45.3794H141.33C141.33 43.3763 141.945 41.8353 143.119 40.6609L141.705 39.2467ZM139.33 45.3794C139.33 47.0102 139.705 48.5086 140.471 49.8501L142.208 48.8578C141.628 47.844 141.33 46.6927 141.33 45.3794H139.33ZM140.471 49.8501C141.223 51.1647 142.221 52.2157 143.465 52.9815L144.513 51.2781C143.571 50.698 142.802 49.8984 142.208 48.8578L140.471 49.8501ZM143.479 52.9901C144.767 53.7533 146.163 54.1392 147.648 54.1392V52.1392C146.526 52.1392 145.482 51.8522 144.499 51.2695L143.479 52.9901Z" fill="white" mask="url(#path-6-inside-1_196_55)"/>
</svg>
