<svg width="19" height="20" viewBox="0 0 19 20" fill="none" xmlns="http://www.w3.org/2000/svg">
<path d="M9.69279 0.390242C7.79099 0.390242 5.96709 1.14573 4.62231 2.4905C3.27754 3.83527 2.52206 5.65918 2.52206 7.56097V11.175C2.5222 11.3339 2.48538 11.4907 2.4145 11.6329L0.655617 15.1497C0.569698 15.3215 0.529128 15.5124 0.537759 15.7043C0.546391 15.8962 0.603939 16.0827 0.704936 16.2461C0.805934 16.4095 0.947028 16.5444 1.11482 16.6379C1.28261 16.7314 1.47152 16.7805 1.66362 16.7805H17.722C17.9141 16.7805 18.103 16.7314 18.2708 16.6379C18.4385 16.5444 18.5796 16.4095 18.6806 16.2461C18.7816 16.0827 18.8392 15.8962 18.8478 15.7043C18.8564 15.5124 18.8159 15.3215 18.73 15.1497L16.9721 11.6329C16.9009 11.4908 16.8637 11.334 16.8635 11.175V7.56097C16.8635 5.65918 16.108 3.83527 14.7633 2.4905C13.4185 1.14573 11.5946 0.390242 9.69279 0.390242ZM9.69279 19.8537C9.05703 19.8538 8.43686 19.6569 7.91767 19.29C7.39848 18.9231 7.00582 18.4042 6.79376 17.8049H12.5918C12.3798 18.4042 11.9871 18.9231 11.4679 19.29C10.9487 19.6569 10.3285 19.8538 9.69279 19.8537Z" fill="#FEFEFE"/>
</svg>
