<svg width="19" height="22" viewBox="0 0 19 22" fill="none" xmlns="http://www.w3.org/2000/svg">
<path d="M9.69279 2.39024C7.79099 2.39024 5.96709 3.14573 4.62231 4.4905C3.27754 5.83527 2.52206 7.65918 2.52206 9.56097V13.175C2.5222 13.3339 2.48538 13.4907 2.4145 13.6329L0.655617 17.1497C0.569698 17.3215 0.529128 17.5124 0.537759 17.7043C0.546391 17.8962 0.603939 18.0827 0.704936 18.2461C0.805934 18.4095 0.947028 18.5444 1.11482 18.6379C1.28261 18.7314 1.47152 18.7805 1.66362 18.7805H17.722C17.9141 18.7805 18.103 18.7314 18.2708 18.6379C18.4385 18.5444 18.5796 18.4095 18.6806 18.2461C18.7816 18.0827 18.8392 17.8962 18.8478 17.7043C18.8564 17.5124 18.8159 17.3215 18.73 17.1497L16.9721 13.6329C16.9009 13.4908 16.8637 13.334 16.8635 13.175V9.56097C16.8635 7.65918 16.108 5.83527 14.7633 4.4905C13.4185 3.14573 11.5946 2.39024 9.69279 2.39024ZM9.69279 21.8537C9.05703 21.8538 8.43686 21.6569 7.91767 21.29C7.39848 20.9231 7.00582 20.4042 6.79376 19.8049H12.5918C12.3798 20.4042 11.9871 20.9231 11.4679 21.29C10.9487 21.6569 10.3285 21.8538 9.69279 21.8537Z" fill="#FEFEFE"/>
<circle cx="17.4392" cy="1.87805" r="1.53659" fill="#FEFEFE"/>
</svg>
