<svg width="142" height="139" viewBox="0 0 142 139" fill="none" xmlns="http://www.w3.org/2000/svg">
<path d="M77.9907 45.4253H73.9731V50.7924H77.9907V45.4253Z" fill="#28953C"/>
<path d="M77.9907 58.7041H73.9731V64.0712H77.9907V58.7041Z" fill="#28953C"/>
<path d="M71 138.791C110.212 138.791 142 107.722 142 69.3955C142 31.0694 110.212 0 71 0C31.7878 0 0 31.0694 0 69.3955C0 107.722 31.7878 138.791 71 138.791Z" fill="#28973D" fill-opacity="0.09"/>
<path d="M71 126.757C102.68 126.757 128.362 101.255 128.362 69.7966C128.362 38.3382 102.68 12.8362 71 12.8362C39.3201 12.8362 13.6384 38.3382 13.6384 69.7966C13.6384 101.255 39.3201 126.757 71 126.757Z" fill="#28953C" fill-opacity="0.34"/>
<path d="M70.4 118.547C98.8341 118.547 121.884 96.858 121.884 70.1038C121.884 43.3497 98.8341 21.6611 70.4 21.6611C41.9659 21.6611 18.9155 43.3497 18.9155 70.1038C18.9155 96.858 41.9659 118.547 70.4 118.547Z" fill="#29973D"/>
<path d="M46.0558 62.849C46.5287 61.3298 46.8075 59.7226 47.5169 58.308C48.9603 55.4373 52.1118 54.3082 55.1099 55.424C55.491 55.5651 55.9039 56.0051 56.0081 56.3787C56.5568 58.3478 57.0227 60.3369 57.4903 62.3243C57.665 63.0698 57.418 63.7456 56.7068 64.1125C55.9198 64.521 55.0658 64.8231 54.2223 65.1286C52.8512 65.6267 52.7065 65.8791 53.033 67.219C53.9135 70.8169 55.6022 74.0015 58.3285 76.6945C58.9179 77.2773 59.4419 77.3055 60.0895 76.9319C60.7636 76.5418 61.4024 76.0968 62.0923 75.7365C63.4334 75.0358 64.1604 75.1753 65.1874 76.2396C66.3715 77.4682 67.5537 78.7002 68.7554 79.9139C69.4824 80.6494 69.5707 81.4763 69.2107 82.3679C68.4396 84.2822 66.4932 85.5059 64.3387 85.6171C60.2289 85.8297 57.0492 84.1727 54.3176 81.4514C50.3561 77.5064 47.7021 72.9206 46.4828 67.6125C46.2975 66.8072 46.197 65.987 46.0558 65.1735C46.0558 64.3981 46.0558 63.6227 46.0558 62.849Z" fill="white"/>
<path d="M93.876 81.1159C93.3643 82.3761 92.3514 82.7779 90.9751 82.7712C85.1537 82.7413 79.3323 82.7579 73.5109 82.7579C73.2198 82.7579 72.9286 82.7579 72.5845 82.7579C72.6428 82.2001 72.6957 81.6986 72.7539 81.1408C78.7994 81.1408 84.8184 81.1408 91.0898 81.1408C87.003 77.1095 83.0644 73.226 79.0712 69.286C77.8236 70.2772 76.5796 71.2336 75.3779 72.2348C74.8167 72.7013 74.3562 72.7495 73.765 72.2812C72.5087 71.285 71.2117 70.3303 69.9747 69.3906C68.7342 70.5678 67.5043 71.7367 66.3061 72.8756C65.5721 72.5735 65.048 72.356 64.471 72.1169C65.8438 70.8484 67.1761 69.6164 68.5719 68.328C66.7402 66.9217 65.0233 65.5984 63.301 64.2801C62.6182 63.7571 61.9035 63.2656 61.2559 62.7044C61.0018 62.4836 60.8342 62.13 60.7318 61.8079C60.5554 61.26 60.4618 60.6888 60.2907 59.9433C65.1256 63.6359 69.8124 67.2156 74.5291 70.8152C79.9552 66.48 85.346 62.1731 90.8921 57.7434C80.4158 57.7434 70.1247 57.7434 59.7507 57.7434C59.6272 57.1772 59.5178 56.6824 59.3837 56.0698C59.8089 56.0698 60.123 56.0698 60.4354 56.0698C70.5782 56.0698 80.7228 56.0797 90.8656 56.0581C92.2597 56.0548 93.329 56.4134 93.8813 57.7002C93.876 65.5054 93.876 73.3106 93.876 81.1159ZM92.0726 79.7627C92.0726 72.7378 92.0726 65.874 92.0726 58.884C88.1111 62.0553 84.2573 65.1401 80.3646 68.2566C84.2873 72.1119 88.1252 75.8825 92.0726 79.7627Z" fill="white"/>
</svg>
