<svg width="209" height="210" viewBox="0 0 209 210" fill="none" xmlns="http://www.w3.org/2000/svg">
<path d="M41.3963 164.177C41.3963 115.908 41.3903 67.639 41.4115 19.3699C41.4145 13.5635 43.0324 8.35584 47.6715 4.4758C50.8167 1.84173 54.3096 0 58.5616 0C81.5878 0.00604838 104.614 0 127.64 0.00604838C134.112 0.00604838 141.198 5.14717 143.369 11.2863C144.352 14.0685 144.818 16.8931 144.809 19.8357C144.778 29.2076 144.796 38.5796 144.802 47.9516C144.802 48.6653 144.554 49.4848 145.683 49.7147C146.148 49.8114 146 50.3951 146 50.7761C146.006 57.4263 146.006 64.0765 146.003 70.7298C146.003 71.2741 146.112 71.8759 145.298 71.9939C144.851 72.0574 144.805 72.4354 144.802 72.8043C144.796 73.258 144.796 73.7116 144.796 74.1652C144.796 112.911 144.805 151.657 144.79 190.406C144.787 198.723 140 205.872 132.046 208.394C131.626 208.527 130.973 208.476 130.897 209.177C129.491 209.183 128.085 209.195 126.682 209.195C104.396 209.195 82.111 209.195 59.8258 209.195C58.4195 209.195 57.0133 209.186 55.607 209.183C55.5405 208.518 54.9659 208.672 54.5697 208.545C50.2633 207.169 46.8459 204.638 44.2996 200.879C42.1857 197.758 41.475 194.235 41.4326 190.606C41.3268 181.796 41.3963 172.987 41.3963 164.177ZM46.5344 104.561C46.5344 133.578 46.5375 162.596 46.5223 191.616C46.5223 192.786 46.6252 193.95 47.0274 195.018C49.3469 201.199 54.0737 204.638 60.6907 204.662C82.4013 204.744 104.115 204.692 125.829 204.689C126.881 204.689 127.921 204.553 128.968 204.45C135.96 203.764 140.889 197.398 140.886 190.621C140.85 133.391 140.865 76.1612 140.877 18.9314C140.877 17.7187 140.82 16.5212 140.544 15.3447C139.304 10.0433 136.026 6.65624 130.837 5.07762C127.329 4.0131 123.733 4.78729 120.189 4.51814C119.006 4.43044 118.734 4.90826 118.77 5.99697C118.819 7.43043 118.988 8.88507 118.126 10.2369C116.584 12.6502 114.273 13.5695 111.6 13.5786C99.4578 13.627 87.3187 13.627 75.1765 13.5847C70.5586 13.5695 66.9598 10.3881 68.0969 5.30443C68.2179 4.76612 68.112 4.51209 67.5677 4.54233C63.8691 4.751 60.1463 4.0887 56.4598 5.07459C50.856 6.57761 46.5375 12.006 46.5375 17.8004C46.5314 46.7268 46.5344 75.6441 46.5344 104.561Z" fill="white"/>
<path d="M41.3964 164.177C41.3964 172.984 41.3268 181.793 41.4296 190.6C41.472 194.232 42.1827 197.752 44.2966 200.873C46.8429 204.632 50.2603 207.166 54.5667 208.539C54.9629 208.666 55.5375 208.512 55.604 209.177C49.356 209.171 43.1081 209.168 36.8601 209.162C36.9629 208.482 36.479 208.349 35.9831 208.17C29.9559 205.99 24.6968 202.557 19.8218 198.435C18.1222 196.999 16.6313 195.375 15.0164 193.866C14.7291 193.6 14.2603 193.346 14.3329 192.928C14.4267 192.387 14.9952 192.626 15.3551 192.559C16.4831 192.345 17.6172 192.172 18.7482 191.985C19.0264 191.939 19.4256 192.057 19.4619 191.637C19.4922 191.277 19.1656 191.156 18.8541 191.105C17.0335 190.793 15.219 190.403 13.3833 190.206C12.2674 190.086 11.4841 189.623 10.9004 188.737C6.53654 182.108 3.22203 174.983 0.869212 167.407C0.660543 166.739 0.403487 166.083 0.146431 165.429C-0.228568 164.48 0.128286 164.005 1.08393 164.198C2.84703 164.549 4.61014 164.942 6.32788 165.469C7.27445 165.759 7.00227 166.929 7.57687 167.948C7.86114 165.453 9.20993 166.282 10.4287 166.687C12.6121 167.416 14.7472 168.263 16.8914 169.095C17.8621 169.47 18.1827 170.081 18.3944 170.93C18.7482 172.358 19.1051 173.788 19.595 175.203C20.1152 174.136 20.3057 173.041 20.2331 171.904C20.1635 170.818 20.6051 170.725 21.5002 171.136C23.5476 172.073 23.5658 172.046 23.5597 169.739C23.5416 162.783 24.8662 156.012 26.3692 149.268C26.7351 147.629 27.0526 147.577 28.2381 148.748C28.8127 149.313 29.3994 149.867 29.9438 150.46C31.0325 151.645 33.0194 152.477 31.3651 154.89C32.8561 153.411 33.6151 154.309 34.4105 155.211C36.104 157.128 37.7371 159.088 39.1887 161.198C39.7754 162.051 39.2553 162.828 39.0798 163.606C38.8954 164.428 38.5234 165.209 38.224 166.004C38.097 166.343 37.9307 166.778 38.2482 166.981C38.7109 167.274 38.9135 166.745 39.1796 166.476C39.9206 165.72 40.1353 164.443 41.3964 164.177Z" fill="#8B9199"/>
<path d="M186.742 157.802C186.953 164.204 188.417 170.44 189.334 176.746C190.498 184.748 191.81 192.726 193.087 200.709C193.226 201.589 192.947 202.167 192.225 202.596C190.915 202.811 189.603 203.026 188.293 203.241C187.162 203.31 186.745 202.618 186.451 201.65C185.1 197.177 183.696 192.719 182.32 188.253C181.474 185.504 180.645 182.749 179.807 179.994C179.496 180.502 179.49 180.98 179.496 181.454C179.593 188.05 179.686 194.643 179.792 201.239C179.807 202.116 179.853 202.974 178.939 203.483C177.633 203.613 176.326 203.74 175.02 203.87C173.871 203.909 173.438 203.201 173.263 202.2C171.231 190.757 169.165 179.316 167.169 167.864C166.619 164.697 165.742 161.576 165.666 158.337C165.654 157.851 165.512 157.327 165.854 156.877C168.376 159.68 171.754 160.367 175.537 158.776C177.612 157.905 179.626 156.889 181.71 156.036C183.367 155.359 184.951 155.519 186.24 156.931C186.406 157.222 186.575 157.512 186.742 157.802Z" fill="#323143"/>
<path d="M168.27 148.143C169.087 144.862 169.903 141.58 170.717 138.299C171.497 136.424 171.406 134.44 171.433 132.472C171.799 128.879 171.842 125.256 172.879 121.742C173.877 118.349 175.087 117.275 178.571 117.036C183.319 116.71 187.226 118.394 190.38 121.905C191.248 122.87 191.617 124.082 191.937 125.301C192.576 127.739 192.824 130.243 193.144 132.735C193.28 133.796 192.948 134.074 191.98 133.73C189.814 133.412 187.688 133.167 186.4 135.568C186.258 135.834 185.838 135.968 185.529 136.125C182.024 137.882 178.519 139.636 175.011 141.384C174.615 141.58 174.255 141.762 173.741 141.689C170.411 141.224 168.987 143.156 170.29 146.307C168.954 146.192 169.02 147.617 168.27 148.143Z" fill="url(#paint0_linear_22_70)"/>
<path d="M168.27 148.143C169.02 147.617 168.954 146.192 170.287 146.304C170.877 146.864 171.585 147.205 172.365 147.405C172.646 147.605 172.921 147.608 173.178 147.363C174.01 147.087 174.76 146.691 175.217 145.902C175.444 145.509 175.625 145.11 176.118 144.952C178.459 144.208 180.796 143.443 183.134 142.687C183.246 142.627 183.361 142.566 183.473 142.506C183.672 142.47 183.869 142.43 184.069 142.394C184.168 142.343 184.268 142.294 184.365 142.243C185.357 141.822 186.355 141.417 187.431 141.257C187.516 141.335 187.601 141.414 187.682 141.493C187.773 142.612 187.682 143.716 187.447 144.813C186.993 145.194 186.999 145.597 187.383 146.02C187.431 146.939 187.45 147.859 187.199 148.757C186.567 149.304 186.73 149.918 187.05 150.544C187.12 151.267 187.126 151.984 186.893 152.682C185.726 153.208 186.512 153.865 186.775 154.485C186.748 155.295 186.721 156.106 186.694 156.913C186.539 156.919 186.385 156.922 186.234 156.928C184.943 155.516 183.361 155.356 181.704 156.033C179.62 156.883 177.606 157.899 175.531 158.773C171.748 160.364 168.37 159.677 165.848 156.874C166.658 153.968 167.463 151.055 168.27 148.143Z" fill="url(#paint1_linear_22_70)"/>
<path d="M172.365 147.405C171.585 147.205 170.877 146.867 170.287 146.304C168.984 143.153 170.408 141.221 173.738 141.686C174.252 141.759 174.612 141.577 175.008 141.381C178.516 139.633 182.024 137.879 185.526 136.122C185.838 135.964 186.255 135.831 186.397 135.565C187.685 133.164 189.815 133.409 191.977 133.727C191.95 135.23 191.959 136.727 192.225 138.214C192.4 139.203 192.046 139.76 191 140.059C189.905 140.374 188.744 140.558 187.749 141.181C187.643 141.208 187.54 141.233 187.434 141.26C186.358 141.423 185.36 141.825 184.368 142.246C184.268 142.294 184.168 142.346 184.069 142.397C183.869 142.433 183.672 142.473 183.473 142.509C183.361 142.569 183.246 142.63 183.134 142.693C180.796 143.449 178.459 144.214 176.118 144.958C175.625 145.116 175.444 145.512 175.217 145.908C174.76 146.697 174.01 147.09 173.178 147.366C172.909 147.378 172.637 147.393 172.365 147.405Z" fill="#F3B4BA"/>
<path d="M36.8572 209.168C43.1051 209.174 49.3531 209.177 55.6011 209.183C57.0073 209.186 58.4136 209.195 59.8198 209.195C82.1051 209.195 104.39 209.195 126.676 209.195C128.082 209.195 129.488 209.183 130.891 209.177C136.864 209.198 142.834 209.225 148.807 209.235C155.433 209.247 162.059 209.241 168.685 209.241C168.682 209.443 168.679 209.643 168.679 209.845C168.128 209.873 167.578 209.924 167.027 209.924C114.001 209.927 60.9751 209.927 7.94893 209.927C7.31082 209.927 6.67272 209.927 5.86829 209.927C6.40054 208.917 7.13845 209.256 7.70699 209.253C16.8733 209.229 26.0366 209.238 35.2029 209.232C35.7533 209.232 36.3068 209.189 36.8572 209.168Z" fill="#59576C"/>
<path d="M186.455 109.693C185.659 113.056 182.517 115.255 179.036 114.886C175.822 114.547 173.049 111.638 172.931 108.447C172.9 107.649 172.982 106.845 173.012 106.043C174.291 103.869 174.53 103.775 176.989 104.174C177.827 104.31 178.689 104.274 179.535 104.365C180.76 104.498 182.375 103.709 183.107 104.589C183.79 105.405 183.573 106.975 183.745 108.215C183.881 109.188 183.539 110.667 185.423 109.681C185.696 109.539 186.11 109.681 186.455 109.693Z" fill="#F5B5B7"/>
<path d="M186.455 109.693C186.11 109.681 185.696 109.542 185.426 109.681C183.542 110.667 183.881 109.185 183.748 108.215C183.576 106.975 183.79 105.405 183.11 104.589C182.378 103.709 180.763 104.498 179.538 104.365C178.692 104.274 177.83 104.307 176.992 104.174C174.533 103.775 174.294 103.866 173.015 106.043C172.631 101.685 173.278 100.651 177.319 99.1662C181.223 97.7327 182.475 98.3557 185.203 101.534C187.447 104.153 187.253 106.79 186.455 109.693Z" fill="#353346"/>
<path d="M171.434 132.472C171.406 134.44 171.497 136.424 170.717 138.299C167.418 139.158 164.121 140.032 160.81 140.855C160.235 140.997 160.014 141.39 159.703 141.78C158.678 143.062 157.238 143.389 155.953 142.666C154.707 141.965 154.141 140.477 154.619 139.158C155.136 137.731 156.546 136.951 158.167 137.386C158.929 137.592 159.509 137.434 160.181 137.168C163.964 135.677 167.578 133.787 171.434 132.472Z" fill="#F5B5B7"/>
<path d="M168.682 209.843C168.685 209.64 168.688 209.44 168.688 209.238C169.54 206.071 171.878 205.346 174.775 205.539C176.17 205.533 177.564 205.527 178.958 205.524C179.632 205.636 179.59 206.144 179.59 206.643C179.59 207.475 179.608 208.309 179.617 209.141C179.599 209.374 179.584 209.61 179.566 209.843C175.937 209.846 172.308 209.846 168.682 209.843Z" fill="#353346"/>
<path d="M186.512 209.836C185.203 209.839 183.896 209.839 182.587 209.842C182.572 209.613 182.554 209.383 182.538 209.153C182.986 206.61 184.214 205.439 186.712 205.158C187.262 205.098 187.81 205.013 188.357 204.94C189.845 204.843 191.336 204.75 192.824 204.653C192.954 205.975 193.438 207.275 193.041 208.624C191.015 208.436 189.065 208.962 187.09 209.247C186.736 209.304 186.573 209.51 186.512 209.836Z" fill="#353346"/>
<path d="M186.512 209.836C186.573 209.51 186.733 209.301 187.09 209.25C189.068 208.965 191.015 208.439 193.041 208.627C193.283 209.495 194.009 209.198 194.551 209.201C198.827 209.225 203.103 209.21 207.379 209.222C207.936 209.225 208.556 209.056 209 209.501C208.955 209.903 208.716 209.903 208.537 209.903C201.198 209.888 193.855 209.861 186.512 209.836Z" fill="#59576C"/>
<path d="M192.827 204.659C191.339 204.756 189.848 204.85 188.36 204.946C188.339 204.378 188.318 203.809 188.296 203.241C189.606 203.026 190.918 202.811 192.228 202.597C192.264 203.328 191.992 204.154 192.827 204.659Z" fill="#E6B2B5"/>
<path d="M178.958 205.524C177.563 205.53 176.169 205.536 174.775 205.539C175.153 205.025 175.078 204.444 175.017 203.87C176.324 203.74 177.63 203.613 178.936 203.483C178.946 204.163 178.952 204.844 178.958 205.524Z" fill="#E6B2B5"/>
<path d="M182.538 209.156C182.553 209.386 182.571 209.616 182.587 209.845C181.58 209.982 180.572 209.979 179.565 209.849C179.584 209.616 179.599 209.38 179.617 209.147C180.591 209.298 181.564 209.292 182.538 209.156Z" fill="#59576C"/>
<path d="M186.781 154.488C186.521 153.868 185.732 153.212 186.899 152.685C187.038 153.299 187.008 153.901 186.781 154.488Z" fill="url(#paint2_linear_22_70)"/>
<path d="M187.056 150.547C186.736 149.921 186.573 149.307 187.205 148.76C187.332 149.371 187.332 149.97 187.056 150.547Z" fill="url(#paint3_linear_22_70)"/>
<path d="M187.389 146.026C187.002 145.603 186.999 145.197 187.453 144.819C187.613 145.228 187.595 145.633 187.389 146.026Z" fill="url(#paint4_linear_22_70)"/>
<path d="M186.24 156.934C186.394 156.928 186.548 156.925 186.699 156.919C186.715 157.212 186.727 157.509 186.742 157.802C186.575 157.512 186.406 157.222 186.24 156.934Z" fill="url(#paint5_linear_22_70)"/>
<path d="M187.435 141.263C187.54 141.239 187.643 141.212 187.749 141.184C187.728 141.29 187.707 141.393 187.689 141.499C187.604 141.42 187.519 141.342 187.435 141.263Z" fill="url(#paint6_linear_22_70)"/>
<path d="M46.5344 104.561C46.5344 75.644 46.5314 46.7267 46.5344 17.8094C46.5344 12.015 50.853 6.58661 56.4568 5.08359C60.1433 4.09468 63.866 4.76 67.5646 4.55133C68.109 4.52109 68.2148 4.77512 68.0939 5.31343C66.9568 10.3971 70.5555 13.5785 75.1735 13.5937C87.3156 13.633 99.4547 13.633 111.597 13.5876C114.27 13.5785 116.581 12.6592 118.123 10.2459C118.988 8.89407 118.819 7.44246 118.767 6.00596C118.731 4.91726 119.003 4.43641 120.186 4.52714C123.73 4.79326 127.329 4.01907 130.834 5.08661C136.023 6.66524 139.301 10.0493 140.541 15.3537C140.817 16.5271 140.874 17.7277 140.874 18.9404C140.862 76.1702 140.847 133.4 140.883 190.63C140.886 197.407 135.957 203.773 128.965 204.459C127.918 204.562 126.878 204.698 125.826 204.698C104.112 204.701 82.4013 204.75 60.6876 204.671C54.0707 204.647 49.3439 201.208 47.0243 195.027C46.6251 193.959 46.5193 192.795 46.5193 191.625C46.5374 162.596 46.5344 133.578 46.5344 104.561ZM111.806 157.745C108.787 157.745 105.769 157.778 102.754 157.73C101.399 157.708 100.822 158.274 100.849 159.614C100.885 161.474 100.9 163.336 100.843 165.196C100.797 166.657 101.496 167.144 102.86 167.138C108.845 167.111 114.83 167.117 120.815 167.135C122.178 167.138 122.871 166.606 122.829 165.16C122.774 163.4 122.832 161.64 122.814 159.88C122.792 158.059 122.493 157.757 120.712 157.748C117.739 157.736 114.772 157.745 111.806 157.745ZM115.165 73.6269C115.165 67.7327 115.165 61.8386 115.165 55.9414C115.165 51.7408 115.144 51.7226 110.865 51.7226C99.3277 51.7226 87.7904 51.7226 76.2531 51.7226C75.5001 51.7226 74.7531 51.8648 74.0152 51.9162C72.5273 52.019 72.2098 52.7781 72.2128 54.1027C72.243 67.0009 72.2279 79.899 72.231 92.7972C72.231 94.5573 72.5787 94.9353 74.3358 94.9353C87.234 94.9444 100.132 94.9444 113.03 94.9353C114.815 94.9353 115.162 94.5694 115.162 92.8244C115.168 86.4252 115.165 80.026 115.165 73.6269ZM61.5465 125.637C61.5465 125.737 61.5465 125.84 61.5465 125.939C81.869 125.939 102.192 125.939 122.514 125.939C122.514 125.84 122.514 125.737 122.514 125.637C102.192 125.637 81.869 125.637 61.5465 125.637ZM61.6765 145.179C61.6856 145.231 61.6947 145.282 61.7037 145.333C81.9205 145.333 102.137 145.333 122.354 145.333C122.354 145.282 122.354 145.231 122.354 145.179C102.128 145.179 81.9023 145.179 61.6765 145.179ZM69.4124 141.375C70.6039 141.335 71.3207 140.682 71.3902 139.542C71.4568 138.384 70.7824 137.658 69.609 137.531C68.5384 137.413 67.4739 138.363 67.5253 139.424C67.5828 140.57 68.2269 141.257 69.4124 141.375ZM71.4356 120.009C71.2602 118.848 70.6372 118.146 69.4547 118.149C68.2632 118.152 67.6191 118.884 67.5283 120.021C67.4467 121.073 68.49 122.044 69.5636 121.956C70.743 121.86 71.3116 121.128 71.4356 120.009ZM75.8902 137.507C74.6957 137.588 73.9578 138.205 73.9003 139.361C73.8428 140.513 74.4809 141.248 75.6695 141.357C76.7793 141.459 77.7713 140.564 77.7259 139.473C77.6775 138.314 77.0122 137.664 75.8902 137.507ZM63.0525 137.516C61.9941 137.595 61.2864 138.221 61.2652 139.412C61.2441 140.601 61.9033 141.32 63.107 141.351C64.3227 141.378 64.9548 140.64 65.0394 139.482C65.1211 138.435 64.2168 137.534 63.0525 137.516ZM77.735 120.094C77.7592 119.038 76.9063 118.125 75.8479 118.152C74.6715 118.182 73.9185 118.799 73.8943 120.003C73.8701 121.2 74.5928 121.863 75.7602 121.956C76.7975 122.041 77.7108 121.137 77.735 120.094ZM65.0636 120.072C64.9366 118.932 64.3711 118.179 63.1705 118.167C61.985 118.155 61.2955 118.823 61.2773 120.018C61.2592 121.212 61.9245 121.902 63.11 121.929C64.3197 121.956 64.8943 121.209 65.0636 120.072Z" fill="url(#paint7_linear_22_70)"/>
<path d="M172.365 147.405C172.637 147.39 172.909 147.378 173.181 147.363C172.918 147.611 172.646 147.605 172.365 147.405Z" fill="url(#paint8_linear_22_70)"/>
<path d="M184.068 142.397C184.168 142.346 184.268 142.297 184.368 142.246C184.268 142.297 184.168 142.349 184.068 142.397Z" fill="url(#paint9_linear_22_70)"/>
<path d="M183.134 142.69C183.246 142.63 183.361 142.569 183.473 142.506C183.361 142.569 183.249 142.63 183.134 142.69Z" fill="url(#paint10_linear_22_70)"/>
<path d="M111.806 157.745C114.772 157.745 117.739 157.736 120.709 157.748C122.49 157.754 122.793 158.059 122.811 159.88C122.829 161.64 122.774 163.403 122.826 165.16C122.871 166.606 122.176 167.138 120.812 167.135C114.827 167.117 108.842 167.114 102.857 167.138C101.49 167.144 100.792 166.657 100.84 165.196C100.9 163.336 100.882 161.474 100.846 159.614C100.822 158.277 101.396 157.708 102.751 157.73C105.769 157.775 108.788 157.745 111.806 157.745Z" fill="white"/>
<path d="M115.165 73.6269C115.165 80.0261 115.168 86.4253 115.162 92.8245C115.162 94.5694 114.815 94.9353 113.03 94.9353C100.132 94.9444 87.2339 94.9444 74.3358 94.9353C72.5787 94.9353 72.2309 94.5543 72.2309 92.7972C72.2279 79.8991 72.24 67.0009 72.2128 54.1027C72.2098 52.7812 72.5273 52.0191 74.0152 51.9162C74.7561 51.8648 75.5001 51.7227 76.2531 51.7227C87.7904 51.7227 99.3277 51.7227 110.865 51.7227C115.144 51.7227 115.162 51.7439 115.165 55.9414C115.165 61.8386 115.165 67.7328 115.165 73.6269ZM72.8388 73.3003C72.8388 79.5997 72.8388 85.896 72.8388 92.1954C72.8388 94.2549 72.9053 94.3275 74.9557 94.3275C87.4517 94.3305 99.9476 94.3305 112.444 94.3275C114.343 94.3275 114.557 94.1188 114.557 92.271C114.561 79.6753 114.539 67.0765 114.588 54.4808C114.594 53.0382 114.173 52.5725 112.704 52.5785C100.008 52.6269 87.3095 52.6269 74.614 52.5785C73.2047 52.5725 72.7995 53.0231 72.8116 54.4052C72.8751 60.7015 72.8388 67.0009 72.8388 73.3003Z" fill="url(#paint11_linear_22_70)"/>
<path d="M92.0305 126.003C115.839 126.003 135.14 125.907 135.14 125.788C135.14 125.67 115.839 125.573 92.0305 125.573C68.2216 125.573 48.9207 125.67 48.9207 125.788C48.9207 125.907 68.2216 126.003 92.0305 126.003Z" fill="white"/>
<path d="M61.6766 145.179C81.9024 145.179 102.125 145.179 122.351 145.179C122.351 145.231 122.351 145.282 122.351 145.334C102.134 145.334 81.9175 145.334 61.7008 145.334C61.6948 145.285 61.6857 145.234 61.6766 145.179Z" fill="white"/>
<path d="M69.4125 141.375C68.227 141.257 67.5828 140.57 67.5254 139.424C67.4739 138.363 68.5354 137.413 69.609 137.531C70.7794 137.658 71.4568 138.384 71.3903 139.542C71.3237 140.682 70.604 141.336 69.4125 141.375Z" fill="white"/>
<path d="M71.4356 120.009C71.3116 121.128 70.743 121.86 69.5666 121.957C68.4961 122.044 67.4497 121.073 67.5313 120.021C67.619 118.881 68.2662 118.152 69.4577 118.149C70.6372 118.146 71.2602 118.848 71.4356 120.009Z" fill="white"/>
<path d="M75.8902 137.507C77.0122 137.664 77.6775 138.314 77.7259 139.47C77.7713 140.561 76.7793 141.457 75.6695 141.354C74.4809 141.245 73.8428 140.51 73.9003 139.358C73.9578 138.205 74.6957 137.589 75.8902 137.507Z" fill="white"/>
<path d="M63.0526 137.516C64.2169 137.534 65.1211 138.435 65.0425 139.482C64.9578 140.64 64.3258 141.378 63.11 141.351C61.9064 141.323 61.2471 140.601 61.2683 139.412C61.2865 138.221 61.9941 137.598 63.0526 137.516Z" fill="white"/>
<path d="M77.7351 120.094C77.7109 121.137 76.7976 122.041 75.7603 121.956C74.596 121.863 73.8702 121.2 73.8944 120.003C73.9186 118.799 74.6716 118.182 75.848 118.152C76.9065 118.125 77.7593 119.038 77.7351 120.094Z" fill="white"/>
<path d="M65.0637 120.073C64.8943 121.207 64.3167 121.957 63.113 121.929C61.9276 121.902 61.2622 121.213 61.2804 120.018C61.2985 118.824 61.988 118.155 63.1735 118.167C64.3711 118.179 64.9397 118.932 65.0637 120.073Z" fill="white"/>
<path d="M72.8388 73.3003C72.8388 67.0009 72.872 60.7046 72.8115 54.4052C72.7994 53.0262 73.2017 52.5725 74.614 52.5786C87.3095 52.6239 100.008 52.627 112.704 52.5786C114.173 52.5725 114.591 53.0383 114.588 54.4808C114.539 67.0765 114.56 79.6753 114.557 92.2711C114.557 94.1188 114.34 94.3275 112.444 94.3275C99.9476 94.3305 87.4516 94.3305 74.9557 94.3275C72.9053 94.3275 72.8388 94.2549 72.8388 92.1955C72.8388 85.8961 72.8388 79.5967 72.8388 73.3003ZM109.111 73.3759C109.102 69.6169 105.908 66.4808 102.131 66.5231C98.4143 66.5624 95.3478 69.6683 95.3357 73.4062C95.3236 77.1108 98.4355 80.2318 102.161 80.2499C105.975 80.265 109.12 77.1562 109.111 73.3759ZM85.0474 80.1562C85.9214 80.1773 86.7712 80.138 87.5817 79.8023C88.2319 79.5332 88.2833 79.3124 87.7268 78.762C84.2339 75.2993 84.1855 71.8245 87.5938 68.2439C88.3347 67.4667 88.2349 67.131 87.2611 66.8497C84.4214 66.0362 81.9658 66.6955 80.0182 68.888C78.1039 71.0413 77.7803 73.5423 78.8871 76.1854C80.0273 78.9102 82.1986 80.0866 85.0474 80.1562ZM97.3165 79.2459C96.5998 78.7167 96.0645 78.4142 95.6442 77.9939C93.0887 75.4324 93.1704 71.0413 95.7561 68.5221C96.0857 68.2015 96.8266 68.0776 96.6301 67.4455C96.4456 66.8497 95.747 66.8679 95.2389 66.7015C94.9123 66.5957 94.5555 66.5413 94.2107 66.5261C89.7077 66.3114 86.8317 69.4112 87.0555 74.3407C87.1583 76.6421 88.5041 78.2872 90.4244 79.3578C92.5051 80.5191 94.6885 80.507 97.3165 79.2459Z" fill="white"/>
<path d="M109.111 73.3759C109.12 77.1532 105.972 80.2651 102.161 80.2469C98.4356 80.2288 95.3238 77.1078 95.3359 73.4032C95.3479 69.6653 98.4145 66.5624 102.131 66.5201C105.908 66.4808 109.105 69.6169 109.111 73.3759Z" fill="url(#paint12_linear_22_70)"/>
<path d="M85.0473 80.1561C82.1955 80.0835 80.0271 78.9101 78.887 76.1883C77.7802 73.5422 78.1038 71.0442 80.0181 68.891C81.9656 66.6984 84.4213 66.0392 87.261 66.8527C88.2378 67.1309 88.3346 67.4696 87.5937 68.2468C84.1884 71.8275 84.2338 75.3023 87.7267 78.765C88.2832 79.3154 88.2318 79.5361 87.5816 79.8053C86.7741 80.1379 85.9243 80.1772 85.0473 80.1561Z" fill="#CDCDCD"/>
<path d="M97.3167 79.2459C94.6886 80.507 92.5022 80.519 90.4245 79.3608C88.5042 78.2872 87.1584 76.6451 87.0556 74.3436C86.8348 69.4142 89.7078 66.3144 94.2108 66.5291C94.5556 66.5443 94.9124 66.5987 95.239 66.7045C95.7471 66.8709 96.4457 66.8527 96.6302 67.4485C96.8237 68.0775 96.0828 68.2045 95.7562 68.5251C93.1705 71.0412 93.0888 75.4324 95.6443 77.9969C96.0646 78.4142 96.6029 78.7166 97.3167 79.2459Z" fill="#CDCDCD"/>
<defs>
<linearGradient id="paint0_linear_22_70" x1="168.992" y1="121.736" x2="193.904" y2="123.775" gradientUnits="userSpaceOnUse">
<stop stop-color="#30A94A"/>
<stop offset="1" stop-color="#238832"/>
</linearGradient>
<linearGradient id="paint1_linear_22_70" x1="166.482" y1="144.05" x2="188.183" y2="146.697" gradientUnits="userSpaceOnUse">
<stop stop-color="#30A94A"/>
<stop offset="1" stop-color="#238832"/>
</linearGradient>
<linearGradient id="paint2_linear_22_70" x1="186.299" y1="152.96" x2="187.007" y2="152.988" gradientUnits="userSpaceOnUse">
<stop stop-color="#30A94A"/>
<stop offset="1" stop-color="#238832"/>
</linearGradient>
<linearGradient id="paint3_linear_22_70" x1="186.788" y1="149.032" x2="187.305" y2="149.047" gradientUnits="userSpaceOnUse">
<stop stop-color="#30A94A"/>
<stop offset="1" stop-color="#238832"/>
</linearGradient>
<linearGradient id="paint4_linear_22_70" x1="187.118" y1="145.003" x2="187.576" y2="145.021" gradientUnits="userSpaceOnUse">
<stop stop-color="#30A94A"/>
<stop offset="1" stop-color="#238832"/>
</linearGradient>
<linearGradient id="paint5_linear_22_70" x1="186.254" y1="157.054" x2="186.758" y2="157.083" gradientUnits="userSpaceOnUse">
<stop stop-color="#30A94A"/>
<stop offset="1" stop-color="#238832"/>
</linearGradient>
<linearGradient id="paint6_linear_22_70" x1="187.444" y1="141.232" x2="187.757" y2="141.264" gradientUnits="userSpaceOnUse">
<stop stop-color="#30A94A"/>
<stop offset="1" stop-color="#238832"/>
</linearGradient>
<linearGradient id="paint7_linear_22_70" x1="49.2545" y1="34.969" x2="144.065" y2="39.5431" gradientUnits="userSpaceOnUse">
<stop stop-color="#30A94A"/>
<stop offset="1" stop-color="#238832"/>
</linearGradient>
<linearGradient id="paint8_linear_22_70" x1="172.388" y1="147.392" x2="173.077" y2="147.695" gradientUnits="userSpaceOnUse">
<stop stop-color="#30A94A"/>
<stop offset="1" stop-color="#238832"/>
</linearGradient>
<linearGradient id="paint9_linear_22_70" x1="184.077" y1="142.269" x2="184.367" y2="142.327" gradientUnits="userSpaceOnUse">
<stop stop-color="#30A94A"/>
<stop offset="1" stop-color="#238832"/>
</linearGradient>
<linearGradient id="paint10_linear_22_70" x1="183.144" y1="142.534" x2="183.473" y2="142.596" gradientUnits="userSpaceOnUse">
<stop stop-color="#30A94A"/>
<stop offset="1" stop-color="#238832"/>
</linearGradient>
<linearGradient id="paint11_linear_22_70" x1="73.4578" y1="58.2996" x2="116.272" y2="62.6551" gradientUnits="userSpaceOnUse">
<stop stop-color="#30A94A"/>
<stop offset="1" stop-color="#238832"/>
</linearGradient>
<linearGradient id="paint12_linear_22_70" x1="95.7351" y1="68.6087" x2="109.463" y2="70.0188" gradientUnits="userSpaceOnUse">
<stop stop-color="#30A94A"/>
<stop offset="1" stop-color="#238832"/>
</linearGradient>
</defs>
</svg>
