<svg width="13" height="15" viewBox="0 0 13 15" fill="none" xmlns="http://www.w3.org/2000/svg">
<path d="M6.10801 7.02574C7.06697 7.02574 7.89723 6.71888 8.57582 6.11346C9.25418 5.50813 9.59823 4.76748 9.59823 3.91182C9.59823 3.05645 9.25429 2.3157 8.57571 1.71018C7.89712 1.10495 7.06686 0.798096 6.10801 0.798096C5.14895 0.798096 4.31879 1.10495 3.64032 1.71028C2.96184 2.3156 2.6178 3.05635 2.6178 3.91182C2.6178 4.76748 2.96184 5.50823 3.64032 6.11356C4.31902 6.71878 5.14928 7.02574 6.10801 7.02574ZM4.24085 2.24596C4.76146 1.78149 5.37216 1.55571 6.10801 1.55571C6.84376 1.55571 7.45457 1.78149 7.97529 2.24596C8.49589 2.71054 8.74906 3.2555 8.74906 3.91182C8.74906 4.56833 8.49589 5.1132 7.97529 5.57777C7.45457 6.04234 6.84376 6.26812 6.10801 6.26812C5.37238 6.26812 4.76168 6.04224 4.24085 5.57777C3.72014 5.1133 3.46697 4.56833 3.46697 3.91182C3.46697 3.2555 3.72014 2.71054 4.24085 2.24596Z" fill="#FDFDFD"/>
<path d="M12.1862 10.9004C12.1664 10.6364 12.1264 10.3483 12.0675 10.0441C12.0081 9.73764 11.9316 9.44792 11.84 9.18312C11.7452 8.90943 11.6167 8.63915 11.4575 8.38014C11.2925 8.11131 11.0986 7.87721 10.881 7.68459C10.6534 7.48306 10.3748 7.32104 10.0526 7.20286C9.73159 7.08529 9.3758 7.02574 8.9952 7.02574C8.84574 7.02574 8.70119 7.0825 8.42203 7.25073C8.25022 7.35444 8.04926 7.47438 7.82495 7.60704C7.63314 7.72015 7.37331 7.82614 7.05237 7.92209C6.73925 8.01587 6.42133 8.06343 6.10743 8.06343C5.79375 8.06343 5.47583 8.01587 5.16249 7.92209C4.84189 7.82624 4.58194 7.72026 4.39047 7.60714C4.16829 7.47572 3.96721 7.35578 3.79283 7.25063C3.5139 7.0824 3.36935 7.02563 3.21988 7.02563C2.83918 7.02563 2.4835 7.08529 2.16256 7.20296C1.84062 7.32094 1.56191 7.48296 1.33413 7.68469C1.11653 7.87742 0.922599 8.11141 0.757718 8.38014C0.598757 8.63915 0.470069 8.90933 0.37534 9.18323C0.283851 9.44803 0.207331 9.73764 0.147902 10.0441C0.0889199 10.3479 0.04904 10.6361 0.0292676 10.9008C0.00983034 11.1596 0 11.4289 0 11.7011C0 12.4085 0.242966 12.9812 0.722083 13.4036C1.19528 13.8204 1.82129 14.0317 2.58281 14.0317H9.63295C10.3942 14.0317 11.0203 13.8204 11.4936 13.4036C11.9728 12.9815 12.2158 12.4086 12.2158 11.7009C12.2156 11.4279 12.2057 11.1585 12.1862 10.9004ZM10.902 12.8282C10.5893 13.1036 10.1742 13.2375 9.63284 13.2375H2.58281C2.04136 13.2375 1.62625 13.1036 1.31369 12.8283C1.00705 12.5581 0.858032 12.1893 0.858032 11.7011C0.858032 11.4471 0.86708 11.1964 0.885177 10.9557C0.902827 10.7195 0.938909 10.4601 0.992417 10.1844C1.04526 9.91218 1.1125 9.65668 1.19249 9.42538C1.26923 9.20359 1.3739 8.98398 1.50371 8.77243C1.62759 8.5708 1.77013 8.39782 1.92742 8.25844C2.07454 8.12806 2.25997 8.02135 2.47847 7.94132C2.68055 7.86729 2.90766 7.82676 3.1542 7.82066C3.18425 7.83544 3.23776 7.86367 3.32444 7.91599C3.50083 8.02238 3.70414 8.14377 3.9289 8.27664C4.18225 8.42615 4.50866 8.56119 4.89864 8.67772C5.29732 8.79704 5.70394 8.85763 6.10754 8.85763C6.51115 8.85763 6.91788 8.79704 7.31634 8.67782C7.70665 8.56108 8.03295 8.42615 8.28664 8.27643C8.51665 8.14036 8.71426 8.02249 8.89065 7.91599C8.97733 7.86377 9.03084 7.83544 9.06089 7.82066C9.30754 7.82676 9.53465 7.86729 9.73684 7.94132C9.95523 8.02135 10.1407 8.12816 10.2878 8.25844C10.4451 8.39772 10.5876 8.5707 10.7115 8.77253C10.8414 8.98398 10.9462 9.2037 11.0228 9.42528C11.1029 9.65689 11.1703 9.91228 11.223 10.1843C11.2764 10.4605 11.3126 10.72 11.3302 10.9558V10.956C11.3485 11.1958 11.3576 11.4464 11.3577 11.7011C11.3576 12.1894 11.2086 12.5581 10.902 12.8282Z" fill="#FDFDFD"/>
</svg>
